G75*
G70*
%OFA0B0*%
%FSLAX24Y24*%
%IPPOS*%
%LPD*%
%AMOC8*
5,1,8,0,0,1.08239X$1,22.5*
%
%ADD10R,0.0515X0.0515*%
%ADD11C,0.0515*%
%ADD12C,0.0860*%
%ADD13C,0.0600*%
%ADD14R,0.0594X0.0594*%
%ADD15C,0.0700*%
%ADD16C,0.0645*%
%ADD17R,0.0740X0.0740*%
%ADD18C,0.0740*%
%ADD19C,0.0120*%
%ADD20C,0.0360*%
%ADD21C,0.0240*%
%ADD22C,0.0160*%
D10*
X003600Y030999D03*
X023600Y030999D03*
D11*
X023600Y029999D03*
X023600Y028999D03*
X023600Y027999D03*
X023600Y026999D03*
X023600Y025999D03*
X023600Y024999D03*
X023600Y023999D03*
X023600Y022999D03*
X023600Y021999D03*
X023600Y020999D03*
X023600Y019999D03*
X023600Y018999D03*
X023600Y017999D03*
X023600Y016999D03*
X023600Y015999D03*
X023600Y014999D03*
X023600Y013999D03*
X023600Y012999D03*
X023600Y011999D03*
X023600Y010999D03*
X023600Y009999D03*
X023600Y008999D03*
X023600Y007999D03*
X023600Y006999D03*
X024600Y006999D03*
X024600Y007999D03*
X024600Y008999D03*
X024600Y009999D03*
X024600Y010999D03*
X024600Y011999D03*
X024600Y012999D03*
X024600Y013999D03*
X024600Y014999D03*
X024600Y015999D03*
X024600Y016999D03*
X024600Y017999D03*
X024600Y018999D03*
X024600Y019999D03*
X024600Y020999D03*
X024600Y021999D03*
X024600Y022999D03*
X024600Y023999D03*
X024600Y024999D03*
X024600Y025999D03*
X024600Y026999D03*
X024600Y027999D03*
X024600Y028999D03*
X024600Y029999D03*
X024600Y030999D03*
X004600Y030999D03*
X004600Y029999D03*
X004600Y028999D03*
X004600Y027999D03*
X004600Y026999D03*
X004600Y025999D03*
X004600Y024999D03*
X004600Y023999D03*
X004600Y022999D03*
X004600Y021999D03*
X004600Y020999D03*
X004600Y019999D03*
X004600Y018999D03*
X004600Y017999D03*
X004600Y016999D03*
X004600Y015999D03*
X004600Y014999D03*
X004600Y013999D03*
X004600Y012999D03*
X004600Y011999D03*
X004600Y010999D03*
X004600Y009999D03*
X004600Y008999D03*
X004600Y007999D03*
X004600Y006999D03*
X003600Y006999D03*
X003600Y007999D03*
X003600Y008999D03*
X003600Y009999D03*
X003600Y010999D03*
X003600Y011999D03*
X003600Y012999D03*
X003600Y013999D03*
X003600Y014999D03*
X003600Y015999D03*
X003600Y016999D03*
X003600Y017999D03*
X003600Y018999D03*
X003600Y019999D03*
X003600Y020999D03*
X003600Y021999D03*
X003600Y022999D03*
X003600Y023999D03*
X003600Y024999D03*
X003600Y025999D03*
X003600Y026999D03*
X003600Y027999D03*
X003600Y028999D03*
X003600Y029999D03*
D12*
X006631Y004668D03*
X007616Y004668D03*
X008600Y002699D03*
X009584Y004668D03*
X010569Y004668D03*
X012131Y004668D03*
X013116Y004668D03*
X014100Y002699D03*
X015084Y004668D03*
X016069Y004668D03*
D13*
X019300Y004499D02*
X019900Y004499D01*
X019900Y003499D02*
X019300Y003499D01*
X019300Y002499D02*
X019900Y002499D01*
D14*
X001200Y012899D03*
D15*
X001200Y011899D03*
X001200Y010899D03*
X001200Y009899D03*
X001200Y008899D03*
X001200Y007899D03*
D16*
X004700Y034677D02*
X004700Y035322D01*
X005700Y035322D02*
X005700Y034677D01*
X008500Y034677D02*
X008500Y035322D01*
X009500Y035322D02*
X009500Y034677D01*
X014500Y034677D02*
X014500Y035322D01*
X015500Y035322D02*
X015500Y034677D01*
X020400Y034677D02*
X020400Y035322D01*
X021400Y035322D02*
X021400Y034677D01*
X024300Y034677D02*
X024300Y035322D01*
X025300Y035322D02*
X025300Y034677D01*
D17*
X026600Y006999D03*
D18*
X026600Y007999D03*
X026600Y008999D03*
X026600Y009999D03*
X026600Y010999D03*
X026600Y011999D03*
X026600Y012999D03*
X026600Y013999D03*
X026600Y014999D03*
X026600Y015999D03*
X026600Y016999D03*
X026600Y017999D03*
X026600Y018999D03*
X026600Y019999D03*
X026600Y020999D03*
X026600Y021999D03*
X026600Y022999D03*
X026600Y023999D03*
X026600Y024999D03*
X026600Y025999D03*
X026600Y026999D03*
X026600Y027999D03*
X026600Y028999D03*
X026600Y029999D03*
X026600Y030999D03*
D19*
X000560Y039909D02*
X000560Y001459D01*
X005984Y001459D01*
X005935Y001576D01*
X005935Y001853D01*
X006041Y002109D01*
X006139Y002207D01*
X006041Y002305D01*
X005935Y002561D01*
X005935Y002838D01*
X006041Y003093D01*
X006237Y003289D01*
X006493Y003395D01*
X006770Y003395D01*
X007026Y003289D01*
X007222Y003093D01*
X007328Y002838D01*
X007328Y002561D01*
X007222Y002305D01*
X007124Y002207D01*
X007222Y002109D01*
X007328Y001853D01*
X007328Y001576D01*
X007279Y001459D01*
X009921Y001459D01*
X009872Y001576D01*
X009872Y001853D01*
X009978Y002109D01*
X010076Y002207D01*
X009978Y002305D01*
X009872Y002561D01*
X009872Y002838D01*
X009978Y003093D01*
X010174Y003289D01*
X010430Y003395D01*
X010707Y003395D01*
X010963Y003289D01*
X011159Y003093D01*
X011265Y002838D01*
X011265Y002561D01*
X011159Y002305D01*
X011061Y002207D01*
X011159Y002109D01*
X011265Y001853D01*
X011265Y001576D01*
X011216Y001459D01*
X011484Y001459D01*
X011435Y001576D01*
X011435Y001853D01*
X011541Y002109D01*
X011639Y002207D01*
X011541Y002305D01*
X011435Y002561D01*
X011435Y002838D01*
X011541Y003093D01*
X011737Y003289D01*
X011993Y003395D01*
X012270Y003395D01*
X012526Y003289D01*
X012722Y003093D01*
X012828Y002838D01*
X012828Y002561D01*
X012722Y002305D01*
X012624Y002207D01*
X012722Y002109D01*
X012828Y001853D01*
X012828Y001576D01*
X012779Y001459D01*
X015421Y001459D01*
X015372Y001576D01*
X015372Y001853D01*
X015478Y002109D01*
X015576Y002207D01*
X015478Y002305D01*
X015372Y002561D01*
X015372Y002838D01*
X015478Y003093D01*
X015674Y003289D01*
X015930Y003395D01*
X016207Y003395D01*
X016463Y003289D01*
X016659Y003093D01*
X016765Y002838D01*
X016765Y002561D01*
X016659Y002305D01*
X016561Y002207D01*
X016659Y002109D01*
X016765Y001853D01*
X016765Y001576D01*
X016716Y001459D01*
X030132Y001459D01*
X030132Y039909D01*
X000560Y039909D01*
X000560Y039867D02*
X030132Y039867D01*
X030132Y039749D02*
X029467Y039749D01*
X029424Y039773D02*
X029157Y039845D01*
X028880Y039845D01*
X028613Y039773D01*
X028373Y039635D01*
X028178Y039440D01*
X028039Y039200D01*
X027968Y038933D01*
X027968Y038656D01*
X028039Y038389D01*
X028178Y038149D01*
X028373Y037954D01*
X028613Y037816D01*
X028880Y037744D01*
X029157Y037744D01*
X029424Y037816D01*
X029663Y037954D01*
X029859Y038149D01*
X029997Y038389D01*
X030069Y038656D01*
X030069Y038933D01*
X029997Y039200D01*
X029859Y039440D01*
X029663Y039635D01*
X029424Y039773D01*
X029668Y039630D02*
X030132Y039630D01*
X030132Y039512D02*
X029787Y039512D01*
X029886Y039393D02*
X030132Y039393D01*
X030132Y039275D02*
X029954Y039275D01*
X030009Y039156D02*
X030132Y039156D01*
X030132Y039038D02*
X030041Y039038D01*
X030069Y038919D02*
X030132Y038919D01*
X030132Y038801D02*
X030069Y038801D01*
X030069Y038682D02*
X030132Y038682D01*
X030132Y038564D02*
X030044Y038564D01*
X030012Y038445D02*
X030132Y038445D01*
X030132Y038327D02*
X029961Y038327D01*
X029893Y038208D02*
X030132Y038208D01*
X030132Y038090D02*
X029799Y038090D01*
X029681Y037971D02*
X030132Y037971D01*
X030132Y037853D02*
X029488Y037853D01*
X030132Y037734D02*
X000560Y037734D01*
X000560Y037616D02*
X030132Y037616D01*
X030132Y037497D02*
X000560Y037497D01*
X000560Y037379D02*
X030132Y037379D01*
X030132Y037260D02*
X000560Y037260D01*
X000560Y037142D02*
X030132Y037142D01*
X030132Y037023D02*
X000560Y037023D01*
X000560Y036905D02*
X030132Y036905D01*
X030132Y036786D02*
X000560Y036786D01*
X000560Y036668D02*
X030132Y036668D01*
X030132Y036549D02*
X000560Y036549D01*
X000560Y036431D02*
X030132Y036431D01*
X030132Y036312D02*
X000560Y036312D01*
X000560Y036194D02*
X030132Y036194D01*
X030132Y036075D02*
X000560Y036075D01*
X000560Y035957D02*
X030132Y035957D01*
X030132Y035838D02*
X000560Y035838D01*
X000560Y035720D02*
X004387Y035720D01*
X004415Y035748D02*
X004274Y035606D01*
X004198Y035422D01*
X004198Y035299D01*
X003740Y035299D01*
X003630Y035253D01*
X003546Y035169D01*
X002736Y034359D01*
X002728Y034359D01*
X002596Y034304D01*
X002495Y034203D01*
X002440Y034071D01*
X002440Y033927D01*
X002495Y033795D01*
X002596Y033694D01*
X002728Y033639D01*
X002872Y033639D01*
X003004Y033694D01*
X003105Y033795D01*
X003160Y033927D01*
X003160Y033935D01*
X003924Y034699D01*
X004198Y034699D01*
X004198Y034577D01*
X004274Y034392D01*
X004415Y034251D01*
X004600Y034174D01*
X004800Y034174D01*
X004985Y034251D01*
X005126Y034392D01*
X005200Y034571D01*
X005274Y034392D01*
X005415Y034251D01*
X005600Y034174D01*
X005800Y034174D01*
X005985Y034251D01*
X006126Y034392D01*
X006202Y034577D01*
X006202Y035422D01*
X006126Y035606D01*
X005985Y035748D01*
X005800Y035824D01*
X005600Y035824D01*
X005415Y035748D01*
X005274Y035606D01*
X005200Y035428D01*
X005126Y035606D01*
X004985Y035748D01*
X004800Y035824D01*
X004600Y035824D01*
X004415Y035748D01*
X004272Y035601D02*
X000560Y035601D01*
X000560Y035483D02*
X004223Y035483D01*
X004198Y035364D02*
X000560Y035364D01*
X000560Y035246D02*
X003622Y035246D01*
X003504Y035127D02*
X000560Y035127D01*
X000560Y035009D02*
X003385Y035009D01*
X003267Y034890D02*
X000560Y034890D01*
X000560Y034772D02*
X003148Y034772D01*
X003030Y034653D02*
X000560Y034653D01*
X000560Y034535D02*
X002911Y034535D01*
X002793Y034416D02*
X000560Y034416D01*
X000560Y034298D02*
X002589Y034298D01*
X002485Y034179D02*
X000560Y034179D01*
X000560Y034061D02*
X002440Y034061D01*
X002440Y033942D02*
X000560Y033942D01*
X000560Y033824D02*
X002483Y033824D01*
X002585Y033705D02*
X000560Y033705D01*
X000560Y033587D02*
X030132Y033587D01*
X030132Y033705D02*
X003015Y033705D01*
X003117Y033824D02*
X030132Y033824D01*
X030132Y033942D02*
X003167Y033942D01*
X003286Y034061D02*
X030132Y034061D01*
X030132Y034179D02*
X025412Y034179D01*
X025400Y034174D02*
X025585Y034251D01*
X025726Y034392D01*
X025802Y034577D01*
X025802Y035422D01*
X025726Y035606D01*
X025585Y035748D01*
X025400Y035824D01*
X025200Y035824D01*
X025015Y035748D01*
X024874Y035606D01*
X024800Y035428D01*
X024726Y035606D01*
X024585Y035748D01*
X024400Y035824D01*
X024200Y035824D01*
X024015Y035748D01*
X023874Y035606D01*
X023798Y035422D01*
X023798Y034577D01*
X023874Y034392D01*
X024015Y034251D01*
X024200Y034174D01*
X024400Y034174D01*
X024585Y034251D01*
X024726Y034392D01*
X024800Y034571D01*
X024874Y034392D01*
X025015Y034251D01*
X025200Y034174D01*
X025400Y034174D01*
X025188Y034179D02*
X024412Y034179D01*
X024188Y034179D02*
X021512Y034179D01*
X021500Y034174D02*
X021685Y034251D01*
X021826Y034392D01*
X021902Y034577D01*
X021902Y035422D01*
X021826Y035606D01*
X021685Y035748D01*
X021500Y035824D01*
X021300Y035824D01*
X021115Y035748D01*
X020974Y035606D01*
X020900Y035428D01*
X020826Y035606D01*
X020685Y035748D01*
X020500Y035824D01*
X020300Y035824D01*
X020115Y035748D01*
X019974Y035606D01*
X019898Y035422D01*
X019898Y034577D01*
X019974Y034392D01*
X020115Y034251D01*
X020300Y034174D01*
X020500Y034174D01*
X020685Y034251D01*
X020826Y034392D01*
X020900Y034571D01*
X020974Y034392D01*
X021115Y034251D01*
X021300Y034174D01*
X021500Y034174D01*
X021288Y034179D02*
X020512Y034179D01*
X020288Y034179D02*
X014612Y034179D01*
X014600Y034174D02*
X014785Y034251D01*
X014926Y034392D01*
X015002Y034577D01*
X015002Y035422D01*
X014926Y035606D01*
X014785Y035748D01*
X014600Y035824D01*
X014400Y035824D01*
X014215Y035748D01*
X014074Y035606D01*
X013998Y035422D01*
X013998Y034577D01*
X014074Y034392D01*
X014215Y034251D01*
X014400Y034174D01*
X014600Y034174D01*
X014388Y034179D02*
X009612Y034179D01*
X009600Y034174D02*
X009785Y034251D01*
X009926Y034392D01*
X010002Y034577D01*
X010002Y035422D01*
X009926Y035606D01*
X009785Y035748D01*
X009600Y035824D01*
X009400Y035824D01*
X009215Y035748D01*
X009074Y035606D01*
X009000Y035428D01*
X008926Y035606D01*
X008785Y035748D01*
X008600Y035824D01*
X008400Y035824D01*
X008215Y035748D01*
X008074Y035606D01*
X007998Y035422D01*
X007998Y034577D01*
X008074Y034392D01*
X008215Y034251D01*
X008400Y034174D01*
X008600Y034174D01*
X008785Y034251D01*
X008926Y034392D01*
X009000Y034571D01*
X009074Y034392D01*
X009215Y034251D01*
X009400Y034174D01*
X009600Y034174D01*
X009388Y034179D02*
X008612Y034179D01*
X008388Y034179D02*
X005812Y034179D01*
X005588Y034179D02*
X004812Y034179D01*
X004588Y034179D02*
X003404Y034179D01*
X003523Y034298D02*
X004368Y034298D01*
X004264Y034416D02*
X003641Y034416D01*
X003760Y034535D02*
X004215Y034535D01*
X004198Y034653D02*
X003878Y034653D01*
X005032Y034298D02*
X005368Y034298D01*
X005264Y034416D02*
X005136Y034416D01*
X005185Y034535D02*
X005215Y034535D01*
X005177Y035483D02*
X005223Y035483D01*
X005272Y035601D02*
X005128Y035601D01*
X005013Y035720D02*
X005387Y035720D01*
X006013Y035720D02*
X008187Y035720D01*
X008072Y035601D02*
X006128Y035601D01*
X006177Y035483D02*
X008023Y035483D01*
X007998Y035364D02*
X006202Y035364D01*
X006202Y035246D02*
X007998Y035246D01*
X007998Y035127D02*
X006202Y035127D01*
X006202Y035009D02*
X007998Y035009D01*
X007998Y034890D02*
X006202Y034890D01*
X006202Y034772D02*
X007998Y034772D01*
X007998Y034653D02*
X006202Y034653D01*
X006185Y034535D02*
X008015Y034535D01*
X008064Y034416D02*
X006136Y034416D01*
X006032Y034298D02*
X008168Y034298D01*
X008832Y034298D02*
X009168Y034298D01*
X009064Y034416D02*
X008936Y034416D01*
X008985Y034535D02*
X009015Y034535D01*
X009832Y034298D02*
X014168Y034298D01*
X014064Y034416D02*
X009936Y034416D01*
X009985Y034535D02*
X014015Y034535D01*
X013998Y034653D02*
X010002Y034653D01*
X010002Y034772D02*
X013998Y034772D01*
X013998Y034890D02*
X010002Y034890D01*
X010002Y035009D02*
X013998Y035009D01*
X013998Y035127D02*
X010002Y035127D01*
X010002Y035246D02*
X013998Y035246D01*
X013998Y035364D02*
X010002Y035364D01*
X009977Y035483D02*
X014023Y035483D01*
X014072Y035601D02*
X009928Y035601D01*
X009813Y035720D02*
X014187Y035720D01*
X014813Y035720D02*
X015227Y035720D01*
X015247Y035734D02*
X015186Y035690D01*
X015132Y035636D01*
X015087Y035574D01*
X015053Y035507D01*
X015029Y035435D01*
X015018Y035360D01*
X015018Y035047D01*
X015452Y035047D01*
X015452Y034952D01*
X015017Y034952D01*
X015018Y034639D01*
X015029Y034564D01*
X015053Y034491D01*
X015087Y034424D01*
X015132Y034362D01*
X015186Y034309D01*
X015247Y034264D01*
X015315Y034229D01*
X015387Y034206D01*
X015452Y034196D01*
X015452Y034952D01*
X015548Y034952D01*
X015548Y035047D01*
X015982Y035047D01*
X015982Y035360D01*
X015971Y035435D01*
X015947Y035507D01*
X015913Y035574D01*
X015868Y035636D01*
X015814Y035690D01*
X015753Y035734D01*
X015685Y035769D01*
X015613Y035792D01*
X015548Y035803D01*
X015548Y035047D01*
X015452Y035047D01*
X015452Y035803D01*
X015387Y035792D01*
X015315Y035769D01*
X015247Y035734D01*
X015107Y035601D02*
X014928Y035601D01*
X014977Y035483D02*
X015045Y035483D01*
X015018Y035364D02*
X015002Y035364D01*
X015002Y035246D02*
X015018Y035246D01*
X015018Y035127D02*
X015002Y035127D01*
X015002Y035009D02*
X015452Y035009D01*
X015548Y035009D02*
X019898Y035009D01*
X019898Y035127D02*
X015982Y035127D01*
X015982Y035246D02*
X019898Y035246D01*
X019898Y035364D02*
X015982Y035364D01*
X015955Y035483D02*
X019923Y035483D01*
X019972Y035601D02*
X015893Y035601D01*
X015773Y035720D02*
X020087Y035720D01*
X020713Y035720D02*
X021087Y035720D01*
X020972Y035601D02*
X020828Y035601D01*
X020877Y035483D02*
X020923Y035483D01*
X021713Y035720D02*
X023987Y035720D01*
X023872Y035601D02*
X021828Y035601D01*
X021877Y035483D02*
X023823Y035483D01*
X023798Y035364D02*
X021902Y035364D01*
X021902Y035246D02*
X023798Y035246D01*
X023798Y035127D02*
X021902Y035127D01*
X021902Y035009D02*
X023798Y035009D01*
X023798Y034890D02*
X021902Y034890D01*
X021902Y034772D02*
X023798Y034772D01*
X023798Y034653D02*
X021902Y034653D01*
X021885Y034535D02*
X023815Y034535D01*
X023864Y034416D02*
X021836Y034416D01*
X021732Y034298D02*
X023968Y034298D01*
X024632Y034298D02*
X024968Y034298D01*
X024864Y034416D02*
X024736Y034416D01*
X024785Y034535D02*
X024815Y034535D01*
X024777Y035483D02*
X024823Y035483D01*
X024872Y035601D02*
X024728Y035601D01*
X024613Y035720D02*
X024987Y035720D01*
X025613Y035720D02*
X030132Y035720D01*
X030132Y035601D02*
X025728Y035601D01*
X025777Y035483D02*
X030132Y035483D01*
X030132Y035364D02*
X025802Y035364D01*
X025802Y035246D02*
X030132Y035246D01*
X030132Y035127D02*
X025802Y035127D01*
X025802Y035009D02*
X030132Y035009D01*
X030132Y034890D02*
X025802Y034890D01*
X025802Y034772D02*
X030132Y034772D01*
X030132Y034653D02*
X025802Y034653D01*
X025785Y034535D02*
X030132Y034535D01*
X030132Y034416D02*
X025736Y034416D01*
X025632Y034298D02*
X030132Y034298D01*
X030132Y033468D02*
X000560Y033468D01*
X000560Y033350D02*
X030132Y033350D01*
X030132Y033231D02*
X000560Y033231D01*
X000560Y033113D02*
X030132Y033113D01*
X030132Y032994D02*
X000560Y032994D01*
X000560Y032876D02*
X030132Y032876D01*
X030132Y032757D02*
X000560Y032757D01*
X000560Y032639D02*
X018379Y032639D01*
X018428Y032659D02*
X018296Y032604D01*
X018195Y032503D01*
X018140Y032371D01*
X018140Y032227D01*
X018195Y032095D01*
X018200Y032090D01*
X018200Y031508D01*
X018195Y031503D01*
X018140Y031371D01*
X018140Y031227D01*
X018195Y031095D01*
X018296Y030994D01*
X018428Y030939D01*
X018572Y030939D01*
X018704Y030994D01*
X018805Y031095D01*
X018860Y031227D01*
X018860Y031371D01*
X018805Y031503D01*
X018800Y031508D01*
X018800Y032090D01*
X018805Y032095D01*
X018860Y032227D01*
X018860Y032371D01*
X018805Y032503D01*
X018704Y032604D01*
X018572Y032659D01*
X018428Y032659D01*
X018621Y032639D02*
X030132Y032639D01*
X030132Y032520D02*
X018788Y032520D01*
X018847Y032402D02*
X030132Y032402D01*
X030132Y032283D02*
X018860Y032283D01*
X018834Y032165D02*
X030132Y032165D01*
X030132Y032046D02*
X018800Y032046D01*
X018800Y031928D02*
X030132Y031928D01*
X030132Y031809D02*
X018800Y031809D01*
X018800Y031691D02*
X030132Y031691D01*
X030132Y031572D02*
X018800Y031572D01*
X018826Y031454D02*
X026325Y031454D01*
X026322Y031452D02*
X026255Y031403D01*
X026196Y031344D01*
X026147Y031277D01*
X026109Y031203D01*
X026083Y031123D01*
X026070Y031041D01*
X026070Y031039D01*
X026560Y031039D01*
X026560Y030959D01*
X026070Y030959D01*
X026070Y030957D01*
X026083Y030875D01*
X026109Y030796D01*
X026147Y030721D01*
X026196Y030654D01*
X026255Y030595D01*
X026322Y030546D01*
X026394Y030509D01*
X026288Y030465D01*
X026134Y030311D01*
X026050Y030108D01*
X026050Y029890D01*
X026134Y029688D01*
X026288Y029533D01*
X026370Y029499D01*
X026288Y029465D01*
X026134Y029311D01*
X026050Y029108D01*
X026050Y028890D01*
X026134Y028688D01*
X026288Y028533D01*
X026370Y028499D01*
X026288Y028465D01*
X026134Y028311D01*
X026050Y028108D01*
X026050Y027890D01*
X026134Y027688D01*
X026288Y027533D01*
X026370Y027499D01*
X026288Y027465D01*
X026134Y027311D01*
X026050Y027108D01*
X026050Y026890D01*
X026134Y026688D01*
X026288Y026533D01*
X026370Y026499D01*
X026288Y026465D01*
X026134Y026311D01*
X026050Y026108D01*
X026050Y025890D01*
X026134Y025688D01*
X026288Y025533D01*
X026370Y025499D01*
X026288Y025465D01*
X026134Y025311D01*
X026050Y025108D01*
X026050Y024890D01*
X026134Y024688D01*
X026288Y024533D01*
X026370Y024499D01*
X026288Y024465D01*
X026134Y024311D01*
X026050Y024108D01*
X026050Y023890D01*
X026134Y023688D01*
X026288Y023533D01*
X026370Y023499D01*
X026288Y023465D01*
X026134Y023311D01*
X026050Y023108D01*
X026050Y022890D01*
X026134Y022688D01*
X026288Y022533D01*
X026370Y022499D01*
X026288Y022465D01*
X026134Y022311D01*
X026050Y022108D01*
X026050Y021890D01*
X026134Y021688D01*
X026288Y021533D01*
X026370Y021499D01*
X026288Y021465D01*
X026134Y021311D01*
X026050Y021108D01*
X026050Y020890D01*
X026134Y020688D01*
X026288Y020533D01*
X026370Y020499D01*
X026288Y020465D01*
X026134Y020311D01*
X026050Y020108D01*
X026050Y019890D01*
X026134Y019688D01*
X026288Y019533D01*
X026370Y019499D01*
X026288Y019465D01*
X026134Y019311D01*
X026050Y019108D01*
X026050Y018890D01*
X026134Y018688D01*
X026288Y018533D01*
X026370Y018499D01*
X026288Y018465D01*
X026134Y018311D01*
X026050Y018108D01*
X026050Y017890D01*
X026134Y017688D01*
X026288Y017533D01*
X026370Y017499D01*
X026288Y017465D01*
X026134Y017311D01*
X026050Y017108D01*
X026050Y016890D01*
X026134Y016688D01*
X026288Y016533D01*
X026370Y016499D01*
X026288Y016465D01*
X026134Y016311D01*
X026050Y016108D01*
X026050Y015890D01*
X026134Y015688D01*
X026288Y015533D01*
X026370Y015499D01*
X026288Y015465D01*
X026134Y015311D01*
X026050Y015108D01*
X026050Y014890D01*
X026134Y014688D01*
X026288Y014533D01*
X026370Y014499D01*
X026288Y014465D01*
X026134Y014311D01*
X026050Y014108D01*
X026050Y013890D01*
X026134Y013688D01*
X026288Y013533D01*
X026370Y013499D01*
X026288Y013465D01*
X026134Y013311D01*
X026050Y013108D01*
X026050Y012890D01*
X026134Y012688D01*
X026288Y012533D01*
X026370Y012499D01*
X026288Y012465D01*
X026134Y012311D01*
X026050Y012108D01*
X026050Y011890D01*
X026134Y011688D01*
X026288Y011533D01*
X026370Y011499D01*
X026288Y011465D01*
X026134Y011311D01*
X026050Y011108D01*
X026050Y010890D01*
X026134Y010688D01*
X026288Y010533D01*
X026370Y010499D01*
X026288Y010465D01*
X026134Y010311D01*
X026050Y010108D01*
X026050Y009890D01*
X026134Y009688D01*
X026288Y009533D01*
X026370Y009499D01*
X026288Y009465D01*
X026134Y009311D01*
X026050Y009108D01*
X026050Y008890D01*
X026134Y008688D01*
X026288Y008533D01*
X026370Y008499D01*
X026288Y008465D01*
X001515Y008465D01*
X001500Y008450D02*
X001649Y008599D01*
X001730Y008794D01*
X001730Y009004D01*
X001649Y009199D01*
X001500Y009348D01*
X001378Y009399D01*
X001500Y009450D01*
X001649Y009599D01*
X001730Y009794D01*
X001730Y010004D01*
X001649Y010199D01*
X001500Y010348D01*
X001378Y010399D01*
X001500Y010450D01*
X001649Y010599D01*
X001730Y010794D01*
X001730Y011004D01*
X001649Y011199D01*
X001500Y011348D01*
X001378Y011399D01*
X001500Y011450D01*
X001649Y011599D01*
X001730Y011794D01*
X001730Y012004D01*
X001649Y012199D01*
X001500Y012348D01*
X001322Y012422D01*
X001571Y012422D01*
X001677Y012528D01*
X001677Y013270D01*
X001571Y013376D01*
X000829Y013376D01*
X000723Y013270D01*
X000723Y012528D01*
X000829Y012422D01*
X001078Y012422D01*
X000900Y012348D01*
X000751Y012199D01*
X000670Y012004D01*
X000670Y011794D01*
X000751Y011599D01*
X000900Y011450D01*
X001022Y011399D01*
X000900Y011348D01*
X000751Y011199D01*
X000670Y011004D01*
X000670Y010794D01*
X000751Y010599D01*
X000900Y010450D01*
X001022Y010399D01*
X000900Y010348D01*
X000751Y010199D01*
X000670Y010004D01*
X000670Y009794D01*
X000751Y009599D01*
X000900Y009450D01*
X001022Y009399D01*
X000900Y009348D01*
X000751Y009199D01*
X000670Y009004D01*
X000670Y008794D01*
X000751Y008599D01*
X000900Y008450D01*
X001051Y008387D01*
X001004Y008372D01*
X000933Y008335D01*
X000868Y008288D01*
X000811Y008231D01*
X000764Y008166D01*
X000727Y008095D01*
X000703Y008018D01*
X000690Y007939D01*
X001160Y007939D01*
X001160Y007859D01*
X001240Y007859D01*
X001240Y007389D01*
X001240Y007389D01*
X001319Y007402D01*
X001396Y007426D01*
X001467Y007463D01*
X001532Y007510D01*
X001589Y007567D01*
X001636Y007632D01*
X001673Y007703D01*
X001697Y007780D01*
X001710Y007859D01*
X001240Y007859D01*
X001240Y007939D01*
X001710Y007939D01*
X001710Y007939D01*
X001697Y008018D01*
X001673Y008095D01*
X001636Y008166D01*
X001589Y008231D01*
X001532Y008288D01*
X001467Y008335D01*
X001396Y008372D01*
X001349Y008387D01*
X001500Y008450D01*
X001446Y008346D02*
X003328Y008346D01*
X003352Y008370D02*
X003229Y008247D01*
X003163Y008086D01*
X003163Y007912D01*
X003229Y007751D01*
X003352Y007628D01*
X003513Y007562D01*
X003687Y007562D01*
X003848Y007628D01*
X003971Y007751D01*
X004037Y007912D01*
X004037Y008086D01*
X003971Y008247D01*
X003848Y008370D01*
X003687Y008437D01*
X003513Y008437D01*
X003352Y008370D01*
X003221Y008228D02*
X001592Y008228D01*
X001665Y008109D02*
X003172Y008109D01*
X003163Y007991D02*
X001702Y007991D01*
X001710Y007859D02*
X001710Y007859D01*
X001689Y007754D02*
X003228Y007754D01*
X003179Y007872D02*
X001240Y007872D01*
X001160Y007872D02*
X000560Y007872D01*
X000560Y007754D02*
X000711Y007754D01*
X000703Y007780D02*
X000727Y007703D01*
X000764Y007632D01*
X000811Y007567D01*
X000868Y007510D01*
X000933Y007463D01*
X001004Y007426D01*
X001081Y007402D01*
X001160Y007389D01*
X001160Y007859D01*
X000690Y007859D01*
X000690Y007859D01*
X000703Y007780D01*
X000762Y007635D02*
X000560Y007635D01*
X000560Y007517D02*
X000861Y007517D01*
X001103Y007398D02*
X000560Y007398D01*
X000560Y007280D02*
X003290Y007280D01*
X003282Y007271D02*
X003243Y007218D01*
X003213Y007159D01*
X003193Y007097D01*
X003183Y007032D01*
X003183Y007018D01*
X003581Y007018D01*
X003581Y006980D01*
X003619Y006980D01*
X003619Y007018D01*
X004017Y007018D01*
X004017Y007032D01*
X004007Y007097D01*
X003987Y007159D01*
X003957Y007218D01*
X003918Y007271D01*
X003872Y007317D01*
X003819Y007356D01*
X003760Y007386D01*
X003698Y007406D01*
X003633Y007417D01*
X003619Y007417D01*
X003619Y007018D01*
X003581Y007018D01*
X003581Y007417D01*
X003567Y007417D01*
X003502Y007406D01*
X003440Y007386D01*
X003381Y007356D01*
X003328Y007317D01*
X003282Y007271D01*
X003214Y007161D02*
X000560Y007161D01*
X000560Y007043D02*
X003184Y007043D01*
X003183Y006980D02*
X003183Y006966D01*
X003193Y006901D01*
X003213Y006839D01*
X003243Y006780D01*
X003282Y006727D01*
X003328Y006681D01*
X003381Y006642D01*
X003440Y006612D01*
X003502Y006592D01*
X003567Y006582D01*
X003581Y006582D01*
X003581Y006980D01*
X003183Y006980D01*
X003189Y006924D02*
X000560Y006924D01*
X000560Y006806D02*
X003230Y006806D01*
X003322Y006687D02*
X000560Y006687D01*
X000560Y006569D02*
X026081Y006569D01*
X026081Y006567D02*
X026102Y006531D01*
X026132Y006501D01*
X026168Y006480D01*
X026209Y006469D01*
X026560Y006469D01*
X026560Y006959D01*
X026640Y006959D01*
X026640Y006469D01*
X026991Y006469D01*
X027032Y006480D01*
X027068Y006501D01*
X027098Y006531D01*
X027119Y006567D01*
X027130Y006608D01*
X027130Y006959D01*
X026640Y006959D01*
X026640Y007039D01*
X027130Y007039D01*
X027130Y007390D01*
X027119Y007431D01*
X027098Y007467D01*
X027068Y007497D01*
X027032Y007518D01*
X026991Y007529D01*
X026903Y007529D01*
X026912Y007533D01*
X027066Y007688D01*
X027150Y007890D01*
X027150Y008108D01*
X027066Y008311D01*
X026912Y008465D01*
X030132Y008465D01*
X030132Y008583D02*
X026962Y008583D01*
X026912Y008533D02*
X027066Y008688D01*
X027150Y008890D01*
X027150Y009108D01*
X027066Y009311D01*
X026912Y009465D01*
X026830Y009499D01*
X026912Y009533D01*
X027066Y009688D01*
X027150Y009890D01*
X027150Y010108D01*
X027066Y010311D01*
X026912Y010465D01*
X026830Y010499D01*
X026912Y010533D01*
X027066Y010688D01*
X027150Y010890D01*
X027150Y011108D01*
X027066Y011311D01*
X026912Y011465D01*
X026830Y011499D01*
X026912Y011533D01*
X027066Y011688D01*
X027150Y011890D01*
X027150Y012108D01*
X027066Y012311D01*
X026912Y012465D01*
X026830Y012499D01*
X026912Y012533D01*
X027066Y012688D01*
X027150Y012890D01*
X027150Y013108D01*
X027066Y013311D01*
X026912Y013465D01*
X026830Y013499D01*
X026912Y013533D01*
X027066Y013688D01*
X027150Y013890D01*
X027150Y014108D01*
X027066Y014311D01*
X026912Y014465D01*
X026830Y014499D01*
X026912Y014533D01*
X027066Y014688D01*
X027150Y014890D01*
X027150Y015108D01*
X027066Y015311D01*
X026912Y015465D01*
X026830Y015499D01*
X026912Y015533D01*
X027066Y015688D01*
X027150Y015890D01*
X027150Y016108D01*
X027066Y016311D01*
X026912Y016465D01*
X026830Y016499D01*
X026912Y016533D01*
X027066Y016688D01*
X027150Y016890D01*
X027150Y017108D01*
X027066Y017311D01*
X026912Y017465D01*
X026830Y017499D01*
X026912Y017533D01*
X027066Y017688D01*
X027150Y017890D01*
X027150Y018108D01*
X027066Y018311D01*
X026912Y018465D01*
X026830Y018499D01*
X026912Y018533D01*
X027066Y018688D01*
X027150Y018890D01*
X027150Y019108D01*
X027066Y019311D01*
X026912Y019465D01*
X026830Y019499D01*
X026912Y019533D01*
X027066Y019688D01*
X027150Y019890D01*
X027150Y020108D01*
X027066Y020311D01*
X026912Y020465D01*
X026830Y020499D01*
X026912Y020533D01*
X027066Y020688D01*
X027150Y020890D01*
X027150Y021108D01*
X027066Y021311D01*
X026912Y021465D01*
X026830Y021499D01*
X026912Y021533D01*
X027066Y021688D01*
X027150Y021890D01*
X027150Y022108D01*
X027066Y022311D01*
X026912Y022465D01*
X026830Y022499D01*
X026912Y022533D01*
X027066Y022688D01*
X027150Y022890D01*
X027150Y023108D01*
X027066Y023311D01*
X026912Y023465D01*
X026830Y023499D01*
X026912Y023533D01*
X027066Y023688D01*
X027150Y023890D01*
X027150Y024108D01*
X027066Y024311D01*
X026912Y024465D01*
X026830Y024499D01*
X026912Y024533D01*
X027066Y024688D01*
X027150Y024890D01*
X027150Y025108D01*
X027066Y025311D01*
X026912Y025465D01*
X026830Y025499D01*
X026912Y025533D01*
X027066Y025688D01*
X027150Y025890D01*
X027150Y026108D01*
X027066Y026311D01*
X026912Y026465D01*
X026830Y026499D01*
X026912Y026533D01*
X027066Y026688D01*
X027150Y026890D01*
X027150Y027108D01*
X027066Y027311D01*
X026912Y027465D01*
X026830Y027499D01*
X026912Y027533D01*
X027066Y027688D01*
X027150Y027890D01*
X027150Y028108D01*
X027066Y028311D01*
X026912Y028465D01*
X026830Y028499D01*
X026912Y028533D01*
X027066Y028688D01*
X027150Y028890D01*
X027150Y029108D01*
X027066Y029311D01*
X026912Y029465D01*
X026830Y029499D01*
X026912Y029533D01*
X027066Y029688D01*
X027150Y029890D01*
X027150Y030108D01*
X027066Y030311D01*
X026912Y030465D01*
X026806Y030509D01*
X026878Y030546D01*
X026945Y030595D01*
X027004Y030654D01*
X027053Y030721D01*
X027091Y030796D01*
X027117Y030875D01*
X027130Y030957D01*
X027130Y030959D01*
X026640Y030959D01*
X026640Y031039D01*
X027130Y031039D01*
X027130Y031041D01*
X027117Y031123D01*
X027091Y031203D01*
X027053Y031277D01*
X027004Y031344D01*
X026945Y031403D01*
X026878Y031452D01*
X026803Y031490D01*
X026724Y031516D01*
X026642Y031529D01*
X026640Y031529D01*
X026640Y031039D01*
X026560Y031039D01*
X026560Y031529D01*
X026558Y031529D01*
X026476Y031516D01*
X026397Y031490D01*
X026322Y031452D01*
X026189Y031335D02*
X024848Y031335D01*
X024872Y031317D02*
X024819Y031356D01*
X024760Y031386D01*
X024698Y031406D01*
X024633Y031417D01*
X024619Y031417D01*
X024619Y031018D01*
X025017Y031018D01*
X025017Y031032D01*
X025007Y031097D01*
X024987Y031159D01*
X024957Y031218D01*
X024918Y031271D01*
X024872Y031317D01*
X024958Y031217D02*
X026116Y031217D01*
X026079Y031098D02*
X025007Y031098D01*
X025017Y030980D02*
X024619Y030980D01*
X024619Y031018D01*
X024581Y031018D01*
X024581Y030980D01*
X024619Y030980D01*
X024619Y030582D01*
X024633Y030582D01*
X024698Y030592D01*
X024760Y030612D01*
X024819Y030642D01*
X024872Y030681D01*
X024918Y030727D01*
X024957Y030780D01*
X024987Y030839D01*
X025007Y030901D01*
X025017Y030966D01*
X025017Y030980D01*
X026560Y030980D01*
X026640Y030980D02*
X030132Y030980D01*
X030132Y031098D02*
X027121Y031098D01*
X027084Y031217D02*
X030132Y031217D01*
X030132Y031335D02*
X027011Y031335D01*
X026875Y031454D02*
X030132Y031454D01*
X030132Y030861D02*
X027112Y030861D01*
X027064Y030743D02*
X030132Y030743D01*
X030132Y030624D02*
X026975Y030624D01*
X026814Y030506D02*
X030132Y030506D01*
X030132Y030387D02*
X026990Y030387D01*
X027084Y030269D02*
X030132Y030269D01*
X030132Y030150D02*
X027133Y030150D01*
X027150Y030032D02*
X030132Y030032D01*
X030132Y029913D02*
X027150Y029913D01*
X027111Y029795D02*
X030132Y029795D01*
X030132Y029676D02*
X027055Y029676D01*
X026936Y029558D02*
X030132Y029558D01*
X030132Y029439D02*
X026938Y029439D01*
X027056Y029321D02*
X030132Y029321D01*
X030132Y029202D02*
X027111Y029202D01*
X027150Y029084D02*
X030132Y029084D01*
X030132Y028965D02*
X027150Y028965D01*
X027132Y028847D02*
X030132Y028847D01*
X030132Y028728D02*
X027083Y028728D01*
X026988Y028610D02*
X030132Y028610D01*
X030132Y028491D02*
X026849Y028491D01*
X027004Y028373D02*
X030132Y028373D01*
X030132Y028254D02*
X027090Y028254D01*
X027139Y028136D02*
X030132Y028136D01*
X030132Y028017D02*
X027150Y028017D01*
X027150Y027899D02*
X030132Y027899D01*
X030132Y027780D02*
X027105Y027780D01*
X027040Y027662D02*
X030132Y027662D01*
X030132Y027543D02*
X026922Y027543D01*
X026952Y027425D02*
X030132Y027425D01*
X030132Y027306D02*
X027068Y027306D01*
X027117Y027188D02*
X030132Y027188D01*
X030132Y027069D02*
X027150Y027069D01*
X027150Y026951D02*
X030132Y026951D01*
X030132Y026832D02*
X027126Y026832D01*
X027077Y026714D02*
X030132Y026714D01*
X030132Y026595D02*
X026974Y026595D01*
X026884Y026477D02*
X030132Y026477D01*
X030132Y026358D02*
X027019Y026358D01*
X027096Y026240D02*
X030132Y026240D01*
X030132Y026121D02*
X027145Y026121D01*
X027150Y026003D02*
X030132Y026003D01*
X030132Y025884D02*
X027148Y025884D01*
X027099Y025766D02*
X030132Y025766D01*
X030132Y025647D02*
X027026Y025647D01*
X026901Y025529D02*
X030132Y025529D01*
X030132Y025410D02*
X026967Y025410D01*
X027074Y025292D02*
X030132Y025292D01*
X030132Y025173D02*
X027123Y025173D01*
X027150Y025055D02*
X030132Y025055D01*
X030132Y024936D02*
X027150Y024936D01*
X027120Y024818D02*
X030132Y024818D01*
X030132Y024699D02*
X027071Y024699D01*
X026959Y024581D02*
X030132Y024581D01*
X030132Y024462D02*
X026915Y024462D01*
X027033Y024344D02*
X030132Y024344D01*
X030132Y024225D02*
X027102Y024225D01*
X027150Y024107D02*
X030132Y024107D01*
X030132Y023988D02*
X027150Y023988D01*
X027142Y023870D02*
X030132Y023870D01*
X030132Y023751D02*
X027093Y023751D01*
X027011Y023633D02*
X030132Y023633D01*
X030132Y023514D02*
X026866Y023514D01*
X026981Y023396D02*
X030132Y023396D01*
X030132Y023277D02*
X027080Y023277D01*
X027129Y023159D02*
X030132Y023159D01*
X030132Y023040D02*
X027150Y023040D01*
X027150Y022922D02*
X030132Y022922D01*
X030132Y022803D02*
X027114Y022803D01*
X027063Y022685D02*
X030132Y022685D01*
X030132Y022566D02*
X026945Y022566D01*
X026929Y022448D02*
X030132Y022448D01*
X030132Y022329D02*
X027048Y022329D01*
X027108Y022211D02*
X030132Y022211D01*
X030132Y022092D02*
X027150Y022092D01*
X027150Y021974D02*
X030132Y021974D01*
X030132Y021855D02*
X027136Y021855D01*
X027087Y021737D02*
X030132Y021737D01*
X030132Y021618D02*
X026997Y021618D01*
X026831Y021500D02*
X030132Y021500D01*
X030132Y021381D02*
X026996Y021381D01*
X027086Y021263D02*
X030132Y021263D01*
X030132Y021144D02*
X027135Y021144D01*
X027150Y021026D02*
X030132Y021026D01*
X030132Y020907D02*
X027150Y020907D01*
X027108Y020789D02*
X030132Y020789D01*
X030132Y020670D02*
X027049Y020670D01*
X026930Y020552D02*
X030132Y020552D01*
X030132Y020433D02*
X026944Y020433D01*
X027062Y020315D02*
X030132Y020315D01*
X030132Y020196D02*
X027114Y020196D01*
X027150Y020078D02*
X030132Y020078D01*
X030132Y019959D02*
X027150Y019959D01*
X027130Y019841D02*
X030132Y019841D01*
X030132Y019722D02*
X027081Y019722D01*
X026982Y019604D02*
X030132Y019604D01*
X030132Y019485D02*
X026864Y019485D01*
X027010Y019367D02*
X030132Y019367D01*
X030132Y019248D02*
X027092Y019248D01*
X027141Y019130D02*
X030132Y019130D01*
X030132Y019011D02*
X027150Y019011D01*
X027150Y018893D02*
X030132Y018893D01*
X030132Y018774D02*
X027102Y018774D01*
X027034Y018656D02*
X030132Y018656D01*
X030132Y018537D02*
X026916Y018537D01*
X026958Y018419D02*
X030132Y018419D01*
X030132Y018300D02*
X027071Y018300D01*
X027120Y018182D02*
X030132Y018182D01*
X030132Y018063D02*
X027150Y018063D01*
X027150Y017945D02*
X030132Y017945D01*
X030132Y017826D02*
X027124Y017826D01*
X027075Y017708D02*
X030132Y017708D01*
X030132Y017589D02*
X026968Y017589D01*
X026899Y017471D02*
X030132Y017471D01*
X030132Y017352D02*
X027025Y017352D01*
X027098Y017234D02*
X030132Y017234D01*
X030132Y017115D02*
X027147Y017115D01*
X027150Y016997D02*
X030132Y016997D01*
X030132Y016878D02*
X027145Y016878D01*
X027096Y016760D02*
X030132Y016760D01*
X030132Y016641D02*
X027020Y016641D01*
X026887Y016523D02*
X030132Y016523D01*
X030132Y016404D02*
X026973Y016404D01*
X027077Y016286D02*
X030132Y016286D01*
X030132Y016167D02*
X027126Y016167D01*
X027150Y016049D02*
X030132Y016049D01*
X030132Y015930D02*
X027150Y015930D01*
X027118Y015812D02*
X030132Y015812D01*
X030132Y015693D02*
X027069Y015693D01*
X026953Y015575D02*
X030132Y015575D01*
X030132Y015456D02*
X026921Y015456D01*
X027039Y015338D02*
X030132Y015338D01*
X030132Y015219D02*
X027104Y015219D01*
X027150Y015101D02*
X030132Y015101D01*
X030132Y014982D02*
X027150Y014982D01*
X027139Y014864D02*
X030132Y014864D01*
X030132Y014745D02*
X027090Y014745D01*
X027005Y014627D02*
X030132Y014627D01*
X030132Y014508D02*
X026852Y014508D01*
X026987Y014390D02*
X030132Y014390D01*
X030132Y014271D02*
X027083Y014271D01*
X027132Y014153D02*
X030132Y014153D01*
X030132Y014034D02*
X027150Y014034D01*
X027150Y013916D02*
X030132Y013916D01*
X030132Y013797D02*
X027112Y013797D01*
X027057Y013679D02*
X030132Y013679D01*
X030132Y013560D02*
X026939Y013560D01*
X026935Y013442D02*
X030132Y013442D01*
X030132Y013323D02*
X027054Y013323D01*
X027110Y013205D02*
X030132Y013205D01*
X030132Y013086D02*
X027150Y013086D01*
X027150Y012968D02*
X030132Y012968D01*
X030132Y012849D02*
X027133Y012849D01*
X027084Y012731D02*
X030132Y012731D01*
X030132Y012612D02*
X026991Y012612D01*
X026843Y012494D02*
X030132Y012494D01*
X030132Y012375D02*
X027002Y012375D01*
X027089Y012257D02*
X030132Y012257D01*
X030132Y012138D02*
X027138Y012138D01*
X027150Y012020D02*
X030132Y012020D01*
X030132Y011901D02*
X027150Y011901D01*
X027106Y011783D02*
X030132Y011783D01*
X030132Y011664D02*
X027043Y011664D01*
X026924Y011546D02*
X030132Y011546D01*
X030132Y011427D02*
X026950Y011427D01*
X027067Y011309D02*
X030132Y011309D01*
X030132Y011190D02*
X027116Y011190D01*
X027150Y011072D02*
X030132Y011072D01*
X030132Y010953D02*
X027150Y010953D01*
X027127Y010835D02*
X030132Y010835D01*
X030132Y010716D02*
X027078Y010716D01*
X026976Y010598D02*
X030132Y010598D01*
X030132Y010479D02*
X026878Y010479D01*
X027016Y010361D02*
X030132Y010361D01*
X030132Y010242D02*
X027095Y010242D01*
X027144Y010124D02*
X030132Y010124D01*
X030132Y010005D02*
X027150Y010005D01*
X027149Y009887D02*
X030132Y009887D01*
X030132Y009768D02*
X027100Y009768D01*
X027028Y009650D02*
X030132Y009650D01*
X030132Y009531D02*
X026907Y009531D01*
X026964Y009413D02*
X030132Y009413D01*
X030132Y009294D02*
X027073Y009294D01*
X027122Y009176D02*
X030132Y009176D01*
X030132Y009057D02*
X027150Y009057D01*
X027150Y008939D02*
X030132Y008939D01*
X030132Y008820D02*
X027121Y008820D01*
X027072Y008702D02*
X030132Y008702D01*
X030132Y008346D02*
X027031Y008346D01*
X027101Y008228D02*
X030132Y008228D01*
X030132Y008109D02*
X027150Y008109D01*
X027150Y007991D02*
X030132Y007991D01*
X030132Y007872D02*
X027143Y007872D01*
X027094Y007754D02*
X030132Y007754D01*
X030132Y007635D02*
X027014Y007635D01*
X027034Y007517D02*
X030132Y007517D01*
X030132Y007398D02*
X027128Y007398D01*
X027130Y007280D02*
X030132Y007280D01*
X030132Y007161D02*
X027130Y007161D01*
X027130Y007043D02*
X030132Y007043D01*
X030132Y006924D02*
X027130Y006924D01*
X027130Y006806D02*
X030132Y006806D01*
X030132Y006687D02*
X027130Y006687D01*
X027119Y006569D02*
X030132Y006569D01*
X030132Y006450D02*
X000560Y006450D01*
X000560Y006332D02*
X030132Y006332D01*
X030132Y006213D02*
X000560Y006213D01*
X000560Y006095D02*
X030132Y006095D01*
X030132Y005976D02*
X000560Y005976D01*
X000560Y005858D02*
X005704Y005858D01*
X005696Y005854D02*
X005595Y005753D01*
X005540Y005621D01*
X005540Y005477D01*
X005595Y005345D01*
X005696Y005244D01*
X005828Y005189D01*
X005972Y005189D01*
X006104Y005244D01*
X006149Y005289D01*
X006851Y005289D01*
X006896Y005244D01*
X007028Y005189D01*
X007172Y005189D01*
X007304Y005244D01*
X007405Y005345D01*
X007460Y005477D01*
X007460Y005621D01*
X007405Y005753D01*
X007304Y005854D01*
X007172Y005909D01*
X007028Y005909D01*
X006896Y005854D01*
X006851Y005809D01*
X006149Y005809D01*
X006104Y005854D01*
X005972Y005909D01*
X005828Y005909D01*
X005696Y005854D01*
X005589Y005739D02*
X000560Y005739D01*
X000560Y005621D02*
X005540Y005621D01*
X005540Y005502D02*
X000560Y005502D01*
X000560Y005384D02*
X005579Y005384D01*
X005675Y005265D02*
X000560Y005265D01*
X000560Y005147D02*
X006248Y005147D01*
X006286Y005185D02*
X006114Y005013D01*
X006021Y004789D01*
X006021Y004546D01*
X006114Y004322D01*
X006286Y004150D01*
X006510Y004058D01*
X006753Y004058D01*
X006977Y004150D01*
X007124Y004297D01*
X007270Y004150D01*
X007494Y004058D01*
X007737Y004058D01*
X007961Y004150D01*
X008047Y004236D01*
X008206Y004077D01*
X008462Y003971D01*
X008738Y003971D01*
X008994Y004077D01*
X009153Y004236D01*
X009239Y004150D01*
X009463Y004058D01*
X009706Y004058D01*
X009930Y004150D01*
X010076Y004297D01*
X010223Y004150D01*
X010447Y004058D01*
X010690Y004058D01*
X010914Y004150D01*
X011086Y004322D01*
X011179Y004546D01*
X011179Y004789D01*
X011086Y005013D01*
X010914Y005185D01*
X010690Y005278D01*
X010447Y005278D01*
X010223Y005185D01*
X010076Y005038D01*
X009930Y005185D01*
X009706Y005278D01*
X009463Y005278D01*
X009239Y005185D01*
X009153Y005099D01*
X008994Y005258D01*
X008738Y005364D01*
X008462Y005364D01*
X008206Y005258D01*
X008047Y005099D01*
X007961Y005185D01*
X007737Y005278D01*
X007494Y005278D01*
X007270Y005185D01*
X007124Y005038D01*
X006977Y005185D01*
X006753Y005278D01*
X006510Y005278D01*
X006286Y005185D01*
X006125Y005265D02*
X006480Y005265D01*
X006783Y005265D02*
X006875Y005265D01*
X007015Y005147D02*
X007232Y005147D01*
X007325Y005265D02*
X007464Y005265D01*
X007421Y005384D02*
X030132Y005384D01*
X030132Y005502D02*
X007460Y005502D01*
X007460Y005621D02*
X030132Y005621D01*
X030132Y005739D02*
X007411Y005739D01*
X007296Y005858D02*
X030132Y005858D01*
X030132Y005265D02*
X016220Y005265D01*
X016190Y005278D02*
X015947Y005278D01*
X015723Y005185D01*
X015576Y005038D01*
X015430Y005185D01*
X015206Y005278D01*
X014963Y005278D01*
X014739Y005185D01*
X014653Y005099D01*
X014494Y005258D01*
X014238Y005364D01*
X013962Y005364D01*
X013706Y005258D01*
X013547Y005099D01*
X013461Y005185D01*
X013237Y005278D01*
X012994Y005278D01*
X012770Y005185D01*
X012624Y005038D01*
X012477Y005185D01*
X012253Y005278D01*
X012010Y005278D01*
X011786Y005185D01*
X011614Y005013D01*
X011521Y004789D01*
X011521Y004546D01*
X011614Y004322D01*
X011786Y004150D01*
X012010Y004058D01*
X012253Y004058D01*
X012477Y004150D01*
X012624Y004297D01*
X012770Y004150D01*
X012994Y004058D01*
X013237Y004058D01*
X013461Y004150D01*
X013547Y004236D01*
X013706Y004077D01*
X013962Y003971D01*
X014238Y003971D01*
X014494Y004077D01*
X014653Y004236D01*
X014739Y004150D01*
X014963Y004058D01*
X015206Y004058D01*
X015430Y004150D01*
X015576Y004297D01*
X015723Y004150D01*
X015947Y004058D01*
X016190Y004058D01*
X016414Y004150D01*
X016586Y004322D01*
X016679Y004546D01*
X016679Y004789D01*
X016586Y005013D01*
X016414Y005185D01*
X016190Y005278D01*
X015917Y005265D02*
X015236Y005265D01*
X015468Y005147D02*
X015685Y005147D01*
X014933Y005265D02*
X014477Y005265D01*
X014606Y005147D02*
X014701Y005147D01*
X014691Y004199D02*
X014616Y004199D01*
X014497Y004080D02*
X014909Y004080D01*
X015260Y004080D02*
X015893Y004080D01*
X015675Y004199D02*
X015478Y004199D01*
X016244Y004080D02*
X019057Y004080D01*
X019028Y004092D02*
X019205Y004019D01*
X019995Y004019D01*
X020172Y004092D01*
X020307Y004227D01*
X020380Y004404D01*
X020380Y004595D01*
X020307Y004771D01*
X020172Y004906D01*
X019995Y004979D01*
X019205Y004979D01*
X019028Y004906D01*
X018893Y004771D01*
X018820Y004595D01*
X018820Y004404D01*
X018893Y004227D01*
X019028Y004092D01*
X018922Y004199D02*
X016462Y004199D01*
X016581Y004317D02*
X018856Y004317D01*
X018820Y004436D02*
X016633Y004436D01*
X016679Y004554D02*
X018820Y004554D01*
X018852Y004673D02*
X016679Y004673D01*
X016678Y004791D02*
X018913Y004791D01*
X019037Y004910D02*
X016629Y004910D01*
X016571Y005028D02*
X030132Y005028D01*
X030132Y004910D02*
X020163Y004910D01*
X020287Y004791D02*
X030132Y004791D01*
X030132Y004673D02*
X020348Y004673D01*
X020380Y004554D02*
X030132Y004554D01*
X030132Y004436D02*
X020380Y004436D01*
X020344Y004317D02*
X030132Y004317D01*
X030132Y004199D02*
X020278Y004199D01*
X020143Y004080D02*
X030132Y004080D01*
X030132Y003962D02*
X000560Y003962D01*
X000560Y004080D02*
X006456Y004080D01*
X006238Y004199D02*
X000560Y004199D01*
X000560Y004317D02*
X006119Y004317D01*
X006067Y004436D02*
X000560Y004436D01*
X000560Y004554D02*
X006021Y004554D01*
X006021Y004673D02*
X000560Y004673D01*
X000560Y004791D02*
X006022Y004791D01*
X006071Y004910D02*
X000560Y004910D01*
X000560Y005028D02*
X006129Y005028D01*
X006096Y005858D02*
X006904Y005858D01*
X007767Y005265D02*
X008223Y005265D01*
X008094Y005147D02*
X007999Y005147D01*
X008009Y004199D02*
X008084Y004199D01*
X008203Y004080D02*
X007791Y004080D01*
X007440Y004080D02*
X006807Y004080D01*
X007025Y004199D02*
X007222Y004199D01*
X006833Y003369D02*
X010367Y003369D01*
X010135Y003251D02*
X008812Y003251D01*
X008826Y003246D02*
X008738Y003275D01*
X008660Y003287D01*
X008660Y002759D01*
X009188Y002759D01*
X009175Y002837D01*
X009147Y002926D01*
X009105Y003008D01*
X009050Y003083D01*
X008984Y003149D01*
X008909Y003204D01*
X008826Y003246D01*
X008660Y003251D02*
X008540Y003251D01*
X008540Y003287D02*
X008462Y003275D01*
X008374Y003246D01*
X008291Y003204D01*
X008216Y003149D01*
X008150Y003083D01*
X008095Y003008D01*
X008053Y002926D01*
X008025Y002837D01*
X008012Y002759D01*
X008540Y002759D01*
X008540Y002639D01*
X008660Y002639D01*
X008660Y002111D01*
X008738Y002124D01*
X008826Y002152D01*
X008909Y002194D01*
X008984Y002249D01*
X009050Y002315D01*
X009105Y002390D01*
X009147Y002473D01*
X009175Y002561D01*
X009188Y002639D01*
X008660Y002639D01*
X008660Y002759D01*
X008540Y002759D01*
X008540Y003287D01*
X008540Y003132D02*
X008660Y003132D01*
X008660Y003014D02*
X008540Y003014D01*
X008540Y002895D02*
X008660Y002895D01*
X008660Y002777D02*
X008540Y002777D01*
X008540Y002658D02*
X007328Y002658D01*
X007328Y002777D02*
X008015Y002777D01*
X008043Y002895D02*
X007304Y002895D01*
X007255Y003014D02*
X008099Y003014D01*
X008199Y003132D02*
X007183Y003132D01*
X007065Y003251D02*
X008388Y003251D01*
X009001Y003132D02*
X010017Y003132D01*
X009945Y003014D02*
X009101Y003014D01*
X009157Y002895D02*
X009896Y002895D01*
X009872Y002777D02*
X009185Y002777D01*
X009169Y002540D02*
X009881Y002540D01*
X009872Y002658D02*
X008660Y002658D01*
X008660Y002540D02*
X008540Y002540D01*
X008540Y002639D02*
X008540Y002111D01*
X008462Y002124D01*
X008374Y002152D01*
X008291Y002194D01*
X008216Y002249D01*
X008150Y002315D01*
X008095Y002390D01*
X008053Y002473D01*
X008025Y002561D01*
X008012Y002639D01*
X008540Y002639D01*
X008540Y002421D02*
X008660Y002421D01*
X008660Y002303D02*
X008540Y002303D01*
X008540Y002184D02*
X008660Y002184D01*
X008889Y002184D02*
X010053Y002184D01*
X009980Y002303D02*
X009038Y002303D01*
X009121Y002421D02*
X009930Y002421D01*
X009960Y002066D02*
X007240Y002066D01*
X007289Y001947D02*
X009911Y001947D01*
X009872Y001829D02*
X007328Y001829D01*
X007328Y001710D02*
X009872Y001710D01*
X009872Y001592D02*
X007328Y001592D01*
X007285Y001473D02*
X009915Y001473D01*
X011222Y001473D02*
X011478Y001473D01*
X011435Y001592D02*
X011265Y001592D01*
X011265Y001710D02*
X011435Y001710D01*
X011435Y001829D02*
X011265Y001829D01*
X011226Y001947D02*
X011474Y001947D01*
X011523Y002066D02*
X011177Y002066D01*
X011084Y002184D02*
X011616Y002184D01*
X011543Y002303D02*
X011157Y002303D01*
X011207Y002421D02*
X011493Y002421D01*
X011444Y002540D02*
X011256Y002540D01*
X011265Y002658D02*
X011435Y002658D01*
X011435Y002777D02*
X011265Y002777D01*
X011241Y002895D02*
X011459Y002895D01*
X011508Y003014D02*
X011192Y003014D01*
X011120Y003132D02*
X011580Y003132D01*
X011698Y003251D02*
X011002Y003251D01*
X010770Y003369D02*
X011930Y003369D01*
X012333Y003369D02*
X015867Y003369D01*
X015635Y003251D02*
X014312Y003251D01*
X014326Y003246D02*
X014238Y003275D01*
X014160Y003287D01*
X014160Y002759D01*
X014688Y002759D01*
X014675Y002837D01*
X014647Y002926D01*
X014605Y003008D01*
X014550Y003083D01*
X014484Y003149D01*
X014409Y003204D01*
X014326Y003246D01*
X014160Y003251D02*
X014040Y003251D01*
X014040Y003287D02*
X013962Y003275D01*
X013874Y003246D01*
X013791Y003204D01*
X013716Y003149D01*
X013650Y003083D01*
X013595Y003008D01*
X013553Y002926D01*
X013525Y002837D01*
X013512Y002759D01*
X014040Y002759D01*
X014040Y002639D01*
X014160Y002639D01*
X014160Y002111D01*
X014238Y002124D01*
X014326Y002152D01*
X014409Y002194D01*
X014484Y002249D01*
X014550Y002315D01*
X014605Y002390D01*
X014647Y002473D01*
X014675Y002561D01*
X014688Y002639D01*
X014160Y002639D01*
X014160Y002759D01*
X014040Y002759D01*
X014040Y003287D01*
X014040Y003132D02*
X014160Y003132D01*
X014160Y003014D02*
X014040Y003014D01*
X014040Y002895D02*
X014160Y002895D01*
X014160Y002777D02*
X014040Y002777D01*
X014040Y002658D02*
X012828Y002658D01*
X012828Y002777D02*
X013515Y002777D01*
X013543Y002895D02*
X012804Y002895D01*
X012755Y003014D02*
X013599Y003014D01*
X013699Y003132D02*
X012683Y003132D01*
X012565Y003251D02*
X013888Y003251D01*
X014501Y003132D02*
X015517Y003132D01*
X015445Y003014D02*
X014601Y003014D01*
X014657Y002895D02*
X015396Y002895D01*
X015372Y002777D02*
X014685Y002777D01*
X014669Y002540D02*
X015381Y002540D01*
X015372Y002658D02*
X014160Y002658D01*
X014160Y002540D02*
X014040Y002540D01*
X014040Y002639D02*
X014040Y002111D01*
X013962Y002124D01*
X013874Y002152D01*
X013791Y002194D01*
X013716Y002249D01*
X013650Y002315D01*
X013595Y002390D01*
X013553Y002473D01*
X013525Y002561D01*
X013512Y002639D01*
X014040Y002639D01*
X014040Y002421D02*
X014160Y002421D01*
X014160Y002303D02*
X014040Y002303D01*
X014040Y002184D02*
X014160Y002184D01*
X014389Y002184D02*
X015553Y002184D01*
X015480Y002303D02*
X014538Y002303D01*
X014621Y002421D02*
X015430Y002421D01*
X015460Y002066D02*
X012740Y002066D01*
X012789Y001947D02*
X015411Y001947D01*
X015372Y001829D02*
X012828Y001829D01*
X012828Y001710D02*
X015372Y001710D01*
X015372Y001592D02*
X012828Y001592D01*
X012785Y001473D02*
X015415Y001473D01*
X016584Y002184D02*
X018936Y002184D01*
X018893Y002227D02*
X019028Y002092D01*
X019205Y002019D01*
X019995Y002019D01*
X020172Y002092D01*
X020307Y002227D01*
X020380Y002404D01*
X020380Y002595D01*
X020307Y002771D01*
X020172Y002906D01*
X019995Y002979D01*
X019205Y002979D01*
X019028Y002906D01*
X018893Y002771D01*
X018820Y002595D01*
X018820Y002404D01*
X018893Y002227D01*
X018862Y002303D02*
X016657Y002303D01*
X016707Y002421D02*
X018820Y002421D01*
X018820Y002540D02*
X016756Y002540D01*
X016765Y002658D02*
X018846Y002658D01*
X018899Y002777D02*
X016765Y002777D01*
X016741Y002895D02*
X019017Y002895D01*
X019123Y003073D02*
X019059Y003106D01*
X019000Y003148D01*
X018949Y003199D01*
X018907Y003258D01*
X018874Y003322D01*
X018851Y003391D01*
X018841Y003459D01*
X019560Y003459D01*
X019640Y003459D01*
X019640Y003039D01*
X019936Y003039D01*
X020008Y003050D01*
X020077Y003073D01*
X020141Y003106D01*
X020200Y003148D01*
X020251Y003199D01*
X020293Y003258D01*
X020326Y003322D01*
X020349Y003391D01*
X020359Y003459D01*
X019640Y003459D01*
X019640Y003539D01*
X020359Y003539D01*
X020349Y003607D01*
X020326Y003676D01*
X020293Y003740D01*
X020251Y003799D01*
X020200Y003850D01*
X020141Y003892D01*
X020077Y003925D01*
X020008Y003948D01*
X019936Y003959D01*
X019640Y003959D01*
X019640Y003539D01*
X019560Y003539D01*
X019560Y003459D01*
X019560Y003039D01*
X019264Y003039D01*
X019192Y003050D01*
X019123Y003073D01*
X019023Y003132D02*
X016620Y003132D01*
X016692Y003014D02*
X028059Y003014D01*
X028039Y002980D02*
X027968Y002713D01*
X027968Y002436D01*
X028039Y002169D01*
X028178Y001930D01*
X028373Y001734D01*
X028613Y001596D01*
X028880Y001524D01*
X029157Y001524D01*
X029424Y001596D01*
X029663Y001734D01*
X029859Y001930D01*
X029997Y002169D01*
X030069Y002436D01*
X030069Y002713D01*
X029997Y002980D01*
X029859Y003220D01*
X029663Y003415D01*
X029424Y003554D01*
X029157Y003625D01*
X028880Y003625D01*
X028613Y003554D01*
X028373Y003415D01*
X028178Y003220D01*
X028039Y002980D01*
X028016Y002895D02*
X020183Y002895D01*
X020301Y002777D02*
X027985Y002777D01*
X027968Y002658D02*
X020354Y002658D01*
X020380Y002540D02*
X027968Y002540D01*
X027972Y002421D02*
X020380Y002421D01*
X020338Y002303D02*
X028004Y002303D01*
X028035Y002184D02*
X020264Y002184D01*
X020108Y002066D02*
X028099Y002066D01*
X028168Y001947D02*
X016726Y001947D01*
X016765Y001829D02*
X028279Y001829D01*
X028415Y001710D02*
X016765Y001710D01*
X016765Y001592D02*
X028628Y001592D01*
X029408Y001592D02*
X030132Y001592D01*
X030132Y001710D02*
X029622Y001710D01*
X029758Y001829D02*
X030132Y001829D01*
X030132Y001947D02*
X029869Y001947D01*
X029937Y002066D02*
X030132Y002066D01*
X030132Y002184D02*
X030001Y002184D01*
X030033Y002303D02*
X030132Y002303D01*
X030132Y002421D02*
X030065Y002421D01*
X030069Y002540D02*
X030132Y002540D01*
X030132Y002658D02*
X030069Y002658D01*
X030052Y002777D02*
X030132Y002777D01*
X030132Y002895D02*
X030020Y002895D01*
X029978Y003014D02*
X030132Y003014D01*
X030132Y003132D02*
X029910Y003132D01*
X029828Y003251D02*
X030132Y003251D01*
X030132Y003369D02*
X029710Y003369D01*
X029538Y003488D02*
X030132Y003488D01*
X030132Y003606D02*
X029228Y003606D01*
X028808Y003606D02*
X020349Y003606D01*
X020301Y003725D02*
X030132Y003725D01*
X030132Y003843D02*
X020207Y003843D01*
X020341Y003369D02*
X028327Y003369D01*
X028208Y003251D02*
X020288Y003251D01*
X020177Y003132D02*
X028127Y003132D01*
X028498Y003488D02*
X019640Y003488D01*
X019560Y003488D02*
X002194Y003488D01*
X002288Y003433D02*
X002049Y003571D01*
X001782Y003643D01*
X001505Y003643D01*
X001238Y003571D01*
X000998Y003433D01*
X000803Y003237D01*
X000664Y002998D01*
X000593Y002731D01*
X000593Y002454D01*
X000664Y002187D01*
X000803Y001947D01*
X000560Y001947D01*
X000560Y001829D02*
X000921Y001829D01*
X000998Y001752D02*
X000803Y001947D01*
X000734Y002066D02*
X000560Y002066D01*
X000560Y002184D02*
X000666Y002184D01*
X000633Y002303D02*
X000560Y002303D01*
X000560Y002421D02*
X000602Y002421D01*
X000593Y002540D02*
X000560Y002540D01*
X000560Y002658D02*
X000593Y002658D01*
X000605Y002777D02*
X000560Y002777D01*
X000560Y002895D02*
X000637Y002895D01*
X000673Y003014D02*
X000560Y003014D01*
X000560Y003132D02*
X000742Y003132D01*
X000816Y003251D02*
X000560Y003251D01*
X000560Y003369D02*
X000934Y003369D01*
X001093Y003488D02*
X000560Y003488D01*
X000560Y003606D02*
X001367Y003606D01*
X001919Y003606D02*
X018851Y003606D01*
X018851Y003607D02*
X018841Y003539D01*
X019560Y003539D01*
X019560Y003959D01*
X019264Y003959D01*
X019192Y003948D01*
X019123Y003925D01*
X019059Y003892D01*
X019000Y003850D01*
X018949Y003799D01*
X018907Y003740D01*
X018874Y003676D01*
X018851Y003607D01*
X018899Y003725D02*
X000560Y003725D01*
X000560Y003843D02*
X018993Y003843D01*
X018859Y003369D02*
X016270Y003369D01*
X016502Y003251D02*
X018912Y003251D01*
X019560Y003251D02*
X019640Y003251D01*
X019640Y003369D02*
X019560Y003369D01*
X019560Y003132D02*
X019640Y003132D01*
X019640Y003606D02*
X019560Y003606D01*
X019560Y003725D02*
X019640Y003725D01*
X019640Y003843D02*
X019560Y003843D01*
X019092Y002066D02*
X016677Y002066D01*
X016722Y001473D02*
X030132Y001473D01*
X030132Y005147D02*
X016452Y005147D01*
X013723Y005265D02*
X013267Y005265D01*
X013499Y005147D02*
X013594Y005147D01*
X012964Y005265D02*
X012283Y005265D01*
X012515Y005147D02*
X012732Y005147D01*
X012722Y004199D02*
X012525Y004199D01*
X012307Y004080D02*
X012940Y004080D01*
X013291Y004080D02*
X013703Y004080D01*
X013584Y004199D02*
X013509Y004199D01*
X013531Y002540D02*
X012819Y002540D01*
X012770Y002421D02*
X013579Y002421D01*
X013662Y002303D02*
X012720Y002303D01*
X012647Y002184D02*
X013811Y002184D01*
X011956Y004080D02*
X010744Y004080D01*
X010962Y004199D02*
X011738Y004199D01*
X011619Y004317D02*
X011081Y004317D01*
X011133Y004436D02*
X011567Y004436D01*
X011521Y004554D02*
X011179Y004554D01*
X011179Y004673D02*
X011521Y004673D01*
X011522Y004791D02*
X011178Y004791D01*
X011129Y004910D02*
X011571Y004910D01*
X011629Y005028D02*
X011071Y005028D01*
X010952Y005147D02*
X011748Y005147D01*
X011980Y005265D02*
X010720Y005265D01*
X010417Y005265D02*
X009736Y005265D01*
X009968Y005147D02*
X010185Y005147D01*
X010175Y004199D02*
X009978Y004199D01*
X009760Y004080D02*
X010393Y004080D01*
X009409Y004080D02*
X008997Y004080D01*
X009116Y004199D02*
X009191Y004199D01*
X009201Y005147D02*
X009106Y005147D01*
X008977Y005265D02*
X009433Y005265D01*
X008031Y002540D02*
X007319Y002540D01*
X007270Y002421D02*
X008079Y002421D01*
X008162Y002303D02*
X007220Y002303D01*
X007147Y002184D02*
X008311Y002184D01*
X006430Y003369D02*
X002352Y003369D01*
X002288Y003433D02*
X002484Y003237D01*
X002622Y002998D01*
X002694Y002731D01*
X002694Y002454D01*
X002622Y002187D01*
X002484Y001947D01*
X005974Y001947D01*
X005935Y001829D02*
X002365Y001829D01*
X002288Y001752D02*
X002484Y001947D01*
X002552Y002066D02*
X006023Y002066D01*
X006116Y002184D02*
X002621Y002184D01*
X002653Y002303D02*
X006043Y002303D01*
X005993Y002421D02*
X002685Y002421D01*
X002694Y002540D02*
X005944Y002540D01*
X005935Y002658D02*
X002694Y002658D01*
X002682Y002777D02*
X005935Y002777D01*
X005959Y002895D02*
X002650Y002895D01*
X002613Y003014D02*
X006008Y003014D01*
X006080Y003132D02*
X002545Y003132D01*
X002471Y003251D02*
X006198Y003251D01*
X005935Y001710D02*
X002216Y001710D01*
X002288Y001752D02*
X002049Y001613D01*
X001782Y001542D01*
X001505Y001542D01*
X001238Y001613D01*
X000998Y001752D01*
X001070Y001710D02*
X000560Y001710D01*
X000560Y001592D02*
X001319Y001592D01*
X001967Y001592D02*
X005935Y001592D01*
X005978Y001473D02*
X000560Y001473D01*
X003619Y006582D02*
X003633Y006582D01*
X003698Y006592D01*
X003760Y006612D01*
X003819Y006642D01*
X003872Y006681D01*
X003918Y006727D01*
X003957Y006780D01*
X003987Y006839D01*
X004007Y006901D01*
X004017Y006966D01*
X004017Y006980D01*
X003619Y006980D01*
X003619Y006582D01*
X003619Y006687D02*
X003581Y006687D01*
X003581Y006806D02*
X003619Y006806D01*
X003619Y006924D02*
X003581Y006924D01*
X003581Y007043D02*
X003619Y007043D01*
X003619Y007161D02*
X003581Y007161D01*
X003581Y007280D02*
X003619Y007280D01*
X003619Y007398D02*
X003581Y007398D01*
X003477Y007398D02*
X001297Y007398D01*
X001240Y007398D02*
X001160Y007398D01*
X001160Y007389D02*
X001160Y007389D01*
X001160Y007517D02*
X001240Y007517D01*
X001240Y007635D02*
X001160Y007635D01*
X001160Y007754D02*
X001240Y007754D01*
X001539Y007517D02*
X026166Y007517D01*
X026168Y007518D02*
X026132Y007497D01*
X026102Y007467D01*
X026081Y007431D01*
X026070Y007390D01*
X026070Y007039D01*
X026560Y007039D01*
X026560Y006959D01*
X026070Y006959D01*
X026070Y006608D01*
X026081Y006567D01*
X026070Y006687D02*
X024878Y006687D01*
X024872Y006681D02*
X024918Y006727D01*
X024957Y006780D01*
X024987Y006839D01*
X025007Y006901D01*
X025017Y006966D01*
X025017Y006980D01*
X024619Y006980D01*
X024619Y007018D01*
X025017Y007018D01*
X025017Y007032D01*
X025007Y007097D01*
X024987Y007159D01*
X024957Y007218D01*
X024918Y007271D01*
X024872Y007317D01*
X024819Y007356D01*
X024760Y007386D01*
X024698Y007406D01*
X024633Y007417D01*
X024619Y007417D01*
X024619Y007018D01*
X024581Y007018D01*
X024581Y006980D01*
X024619Y006980D01*
X024619Y006582D01*
X024633Y006582D01*
X024698Y006592D01*
X024760Y006612D01*
X024819Y006642D01*
X024872Y006681D01*
X024970Y006806D02*
X026070Y006806D01*
X026070Y006924D02*
X025011Y006924D01*
X025016Y007043D02*
X026070Y007043D01*
X026070Y007161D02*
X024986Y007161D01*
X024910Y007280D02*
X026070Y007280D01*
X026072Y007398D02*
X024723Y007398D01*
X024619Y007398D02*
X024581Y007398D01*
X024581Y007417D02*
X024567Y007417D01*
X024502Y007406D01*
X024440Y007386D01*
X024381Y007356D01*
X024328Y007317D01*
X024282Y007271D01*
X024243Y007218D01*
X024213Y007159D01*
X024193Y007097D01*
X024183Y007032D01*
X024183Y007018D01*
X024581Y007018D01*
X024581Y007417D01*
X024477Y007398D02*
X023723Y007398D01*
X023698Y007406D02*
X023633Y007417D01*
X023619Y007417D01*
X023619Y007018D01*
X024017Y007018D01*
X024017Y007032D01*
X024007Y007097D01*
X023987Y007159D01*
X023957Y007218D01*
X023918Y007271D01*
X023872Y007317D01*
X023819Y007356D01*
X023760Y007386D01*
X023698Y007406D01*
X023619Y007398D02*
X023581Y007398D01*
X023581Y007417D02*
X023567Y007417D01*
X023502Y007406D01*
X023440Y007386D01*
X023381Y007356D01*
X023328Y007317D01*
X023282Y007271D01*
X023243Y007218D01*
X023213Y007159D01*
X023193Y007097D01*
X023183Y007032D01*
X023183Y007018D01*
X023581Y007018D01*
X023581Y006980D01*
X023619Y006980D01*
X023619Y007018D01*
X023581Y007018D01*
X023581Y007417D01*
X023477Y007398D02*
X004723Y007398D01*
X004698Y007406D02*
X004633Y007417D01*
X004619Y007417D01*
X004619Y007018D01*
X005017Y007018D01*
X005017Y007032D01*
X005007Y007097D01*
X004987Y007159D01*
X004957Y007218D01*
X004918Y007271D01*
X004872Y007317D01*
X004819Y007356D01*
X004760Y007386D01*
X004698Y007406D01*
X004619Y007398D02*
X004581Y007398D01*
X004581Y007417D02*
X004567Y007417D01*
X004502Y007406D01*
X004440Y007386D01*
X004381Y007356D01*
X004328Y007317D01*
X004282Y007271D01*
X004243Y007218D01*
X004213Y007159D01*
X004193Y007097D01*
X004183Y007032D01*
X004183Y007018D01*
X004581Y007018D01*
X004581Y006980D01*
X004619Y006980D01*
X004619Y007018D01*
X004581Y007018D01*
X004581Y007417D01*
X004477Y007398D02*
X003723Y007398D01*
X003910Y007280D02*
X004290Y007280D01*
X004214Y007161D02*
X003986Y007161D01*
X004016Y007043D02*
X004184Y007043D01*
X004183Y006980D02*
X004183Y006966D01*
X004193Y006901D01*
X004213Y006839D01*
X004243Y006780D01*
X004282Y006727D01*
X004328Y006681D01*
X004381Y006642D01*
X004440Y006612D01*
X004502Y006592D01*
X004567Y006582D01*
X004581Y006582D01*
X004581Y006980D01*
X004183Y006980D01*
X004189Y006924D02*
X004011Y006924D01*
X003970Y006806D02*
X004230Y006806D01*
X004322Y006687D02*
X003878Y006687D01*
X004581Y006687D02*
X004619Y006687D01*
X004619Y006582D02*
X004633Y006582D01*
X004698Y006592D01*
X004760Y006612D01*
X004819Y006642D01*
X004872Y006681D01*
X004918Y006727D01*
X004957Y006780D01*
X004987Y006839D01*
X005007Y006901D01*
X005017Y006966D01*
X005017Y006980D01*
X004619Y006980D01*
X004619Y006582D01*
X004619Y006806D02*
X004581Y006806D01*
X004581Y006924D02*
X004619Y006924D01*
X004619Y007043D02*
X004581Y007043D01*
X004581Y007161D02*
X004619Y007161D01*
X004619Y007280D02*
X004581Y007280D01*
X004513Y007562D02*
X004687Y007562D01*
X004848Y007628D01*
X004971Y007751D01*
X005037Y007912D01*
X005037Y008086D01*
X004971Y008247D01*
X004848Y008370D01*
X004687Y008437D01*
X004513Y008437D01*
X004352Y008370D01*
X004229Y008247D01*
X004163Y008086D01*
X004163Y007912D01*
X004229Y007751D01*
X004352Y007628D01*
X004513Y007562D01*
X004345Y007635D02*
X003855Y007635D01*
X003972Y007754D02*
X004228Y007754D01*
X004179Y007872D02*
X004021Y007872D01*
X004037Y007991D02*
X004163Y007991D01*
X004172Y008109D02*
X004028Y008109D01*
X003979Y008228D02*
X004221Y008228D01*
X004328Y008346D02*
X003872Y008346D01*
X003739Y008583D02*
X004461Y008583D01*
X004513Y008562D02*
X004687Y008562D01*
X004848Y008628D01*
X004971Y008751D01*
X005037Y008912D01*
X005037Y009086D01*
X004971Y009247D01*
X004848Y009370D01*
X004687Y009437D01*
X004513Y009437D01*
X004352Y009370D01*
X004229Y009247D01*
X004163Y009086D01*
X004163Y008912D01*
X004229Y008751D01*
X004352Y008628D01*
X004513Y008562D01*
X004739Y008583D02*
X023461Y008583D01*
X023513Y008562D02*
X023687Y008562D01*
X023848Y008628D01*
X023971Y008751D01*
X024037Y008912D01*
X024037Y009086D01*
X023971Y009247D01*
X023848Y009370D01*
X023687Y009437D01*
X023513Y009437D01*
X023352Y009370D01*
X023229Y009247D01*
X023163Y009086D01*
X023163Y008912D01*
X023229Y008751D01*
X023352Y008628D01*
X023513Y008562D01*
X023513Y008437D02*
X023352Y008370D01*
X023229Y008247D01*
X023163Y008086D01*
X023163Y007912D01*
X023229Y007751D01*
X023352Y007628D01*
X023513Y007562D01*
X023687Y007562D01*
X023848Y007628D01*
X023971Y007751D01*
X024037Y007912D01*
X024037Y008086D01*
X023971Y008247D01*
X023848Y008370D01*
X023687Y008437D01*
X023513Y008437D01*
X023328Y008346D02*
X004872Y008346D01*
X004979Y008228D02*
X023221Y008228D01*
X023172Y008109D02*
X005028Y008109D01*
X005037Y007991D02*
X023163Y007991D01*
X023179Y007872D02*
X005021Y007872D01*
X004972Y007754D02*
X023228Y007754D01*
X023345Y007635D02*
X004855Y007635D01*
X004910Y007280D02*
X023290Y007280D01*
X023214Y007161D02*
X004986Y007161D01*
X005016Y007043D02*
X023184Y007043D01*
X023183Y006980D02*
X023183Y006966D01*
X023193Y006901D01*
X023213Y006839D01*
X023243Y006780D01*
X023282Y006727D01*
X023328Y006681D01*
X023381Y006642D01*
X023440Y006612D01*
X023502Y006592D01*
X023567Y006582D01*
X023581Y006582D01*
X023581Y006980D01*
X023183Y006980D01*
X023189Y006924D02*
X005011Y006924D01*
X004970Y006806D02*
X023230Y006806D01*
X023322Y006687D02*
X004878Y006687D01*
X003345Y007635D02*
X001638Y007635D01*
X000954Y008346D02*
X000560Y008346D01*
X000560Y008228D02*
X000808Y008228D01*
X000735Y008109D02*
X000560Y008109D01*
X000560Y007991D02*
X000698Y007991D01*
X000690Y007939D02*
X000690Y007939D01*
X000560Y008465D02*
X000885Y008465D01*
X000766Y008583D02*
X000560Y008583D01*
X000560Y008702D02*
X000708Y008702D01*
X000670Y008820D02*
X000560Y008820D01*
X000560Y008939D02*
X000670Y008939D01*
X000692Y009057D02*
X000560Y009057D01*
X000560Y009176D02*
X000741Y009176D01*
X000845Y009294D02*
X000560Y009294D01*
X000560Y009413D02*
X000990Y009413D01*
X000818Y009531D02*
X000560Y009531D01*
X000560Y009650D02*
X000730Y009650D01*
X000681Y009768D02*
X000560Y009768D01*
X000560Y009887D02*
X000670Y009887D01*
X000670Y010005D02*
X000560Y010005D01*
X000560Y010124D02*
X000719Y010124D01*
X000793Y010242D02*
X000560Y010242D01*
X000560Y010361D02*
X000929Y010361D01*
X000870Y010479D02*
X000560Y010479D01*
X000560Y010598D02*
X000752Y010598D01*
X000702Y010716D02*
X000560Y010716D01*
X000560Y010835D02*
X000670Y010835D01*
X000670Y010953D02*
X000560Y010953D01*
X000560Y011072D02*
X000698Y011072D01*
X000747Y011190D02*
X000560Y011190D01*
X000560Y011309D02*
X000860Y011309D01*
X000955Y011427D02*
X000560Y011427D01*
X000560Y011546D02*
X000804Y011546D01*
X000724Y011664D02*
X000560Y011664D01*
X000560Y011783D02*
X000675Y011783D01*
X000670Y011901D02*
X000560Y011901D01*
X000560Y012020D02*
X000676Y012020D01*
X000725Y012138D02*
X000560Y012138D01*
X000560Y012257D02*
X000808Y012257D01*
X000964Y012375D02*
X000560Y012375D01*
X000560Y012494D02*
X000757Y012494D01*
X000723Y012612D02*
X000560Y012612D01*
X000560Y012731D02*
X000723Y012731D01*
X000723Y012849D02*
X000560Y012849D01*
X000560Y012968D02*
X000723Y012968D01*
X000723Y013086D02*
X000560Y013086D01*
X000560Y013205D02*
X000723Y013205D01*
X000776Y013323D02*
X000560Y013323D01*
X000560Y013442D02*
X026265Y013442D01*
X026261Y013560D02*
X000560Y013560D01*
X000560Y013679D02*
X003302Y013679D01*
X003352Y013628D02*
X003513Y013562D01*
X003687Y013562D01*
X003848Y013628D01*
X003971Y013751D01*
X004037Y013912D01*
X004037Y014086D01*
X003971Y014247D01*
X003848Y014370D01*
X003687Y014437D01*
X003513Y014437D01*
X003352Y014370D01*
X003229Y014247D01*
X003163Y014086D01*
X003163Y013912D01*
X003229Y013751D01*
X003352Y013628D01*
X003210Y013797D02*
X000560Y013797D01*
X000560Y013916D02*
X003163Y013916D01*
X003163Y014034D02*
X000560Y014034D01*
X000560Y014153D02*
X003190Y014153D01*
X003253Y014271D02*
X000560Y014271D01*
X000560Y014390D02*
X003400Y014390D01*
X003513Y014562D02*
X003687Y014562D01*
X003848Y014628D01*
X003971Y014751D01*
X004037Y014912D01*
X004037Y015086D01*
X003971Y015247D01*
X003848Y015370D01*
X003687Y015437D01*
X003513Y015437D01*
X003352Y015370D01*
X003229Y015247D01*
X003163Y015086D01*
X003163Y014912D01*
X003229Y014751D01*
X003352Y014628D01*
X003513Y014562D01*
X003356Y014627D02*
X000560Y014627D01*
X000560Y014745D02*
X003235Y014745D01*
X003183Y014864D02*
X000560Y014864D01*
X000560Y014982D02*
X003163Y014982D01*
X003169Y015101D02*
X000560Y015101D01*
X000560Y015219D02*
X003218Y015219D01*
X003320Y015338D02*
X000560Y015338D01*
X000560Y015456D02*
X026279Y015456D01*
X026247Y015575D02*
X024718Y015575D01*
X024687Y015562D02*
X024848Y015628D01*
X024971Y015751D01*
X025037Y015912D01*
X025037Y016086D01*
X024971Y016247D01*
X024848Y016370D01*
X024687Y016437D01*
X024513Y016437D01*
X024352Y016370D01*
X024229Y016247D01*
X024163Y016086D01*
X024163Y015912D01*
X024229Y015751D01*
X024352Y015628D01*
X024513Y015562D01*
X024687Y015562D01*
X024687Y015437D02*
X024513Y015437D01*
X024352Y015370D01*
X024229Y015247D01*
X024163Y015086D01*
X024163Y014912D01*
X024229Y014751D01*
X024352Y014628D01*
X024513Y014562D01*
X024687Y014562D01*
X024848Y014628D01*
X024971Y014751D01*
X025037Y014912D01*
X025037Y015086D01*
X024971Y015247D01*
X024848Y015370D01*
X024687Y015437D01*
X024880Y015338D02*
X026161Y015338D01*
X026096Y015219D02*
X024982Y015219D01*
X025031Y015101D02*
X026050Y015101D01*
X026050Y014982D02*
X025037Y014982D01*
X025017Y014864D02*
X026061Y014864D01*
X026110Y014745D02*
X024965Y014745D01*
X024844Y014627D02*
X026195Y014627D01*
X026348Y014508D02*
X000560Y014508D01*
X000560Y015575D02*
X003482Y015575D01*
X003513Y015562D02*
X003687Y015562D01*
X003848Y015628D01*
X003971Y015751D01*
X004037Y015912D01*
X004037Y016086D01*
X003971Y016247D01*
X003848Y016370D01*
X003687Y016437D01*
X003513Y016437D01*
X003352Y016370D01*
X003229Y016247D01*
X003163Y016086D01*
X003163Y015912D01*
X003229Y015751D01*
X003352Y015628D01*
X003513Y015562D01*
X003718Y015575D02*
X004482Y015575D01*
X004513Y015562D02*
X004687Y015562D01*
X004848Y015628D01*
X004971Y015751D01*
X005037Y015912D01*
X005037Y016086D01*
X004971Y016247D01*
X004848Y016370D01*
X004687Y016437D01*
X004513Y016437D01*
X004352Y016370D01*
X004229Y016247D01*
X004163Y016086D01*
X004163Y015912D01*
X004229Y015751D01*
X004352Y015628D01*
X004513Y015562D01*
X004513Y015437D02*
X004352Y015370D01*
X004229Y015247D01*
X004163Y015086D01*
X004163Y014912D01*
X004229Y014751D01*
X004352Y014628D01*
X004513Y014562D01*
X004687Y014562D01*
X004848Y014628D01*
X004971Y014751D01*
X005037Y014912D01*
X005037Y015086D01*
X004971Y015247D01*
X004848Y015370D01*
X004687Y015437D01*
X004513Y015437D01*
X004320Y015338D02*
X003880Y015338D01*
X003982Y015219D02*
X004218Y015219D01*
X004169Y015101D02*
X004031Y015101D01*
X004037Y014982D02*
X004163Y014982D01*
X004183Y014864D02*
X004017Y014864D01*
X003965Y014745D02*
X004235Y014745D01*
X004356Y014627D02*
X003844Y014627D01*
X003800Y014390D02*
X004400Y014390D01*
X004352Y014370D02*
X004229Y014247D01*
X004163Y014086D01*
X004163Y013912D01*
X004229Y013751D01*
X004352Y013628D01*
X004513Y013562D01*
X004687Y013562D01*
X004848Y013628D01*
X004971Y013751D01*
X005037Y013912D01*
X005037Y014086D01*
X004971Y014247D01*
X004848Y014370D01*
X004687Y014437D01*
X004513Y014437D01*
X004352Y014370D01*
X004253Y014271D02*
X003947Y014271D01*
X004010Y014153D02*
X004190Y014153D01*
X004163Y014034D02*
X004037Y014034D01*
X004037Y013916D02*
X004163Y013916D01*
X004210Y013797D02*
X003990Y013797D01*
X003898Y013679D02*
X004302Y013679D01*
X004352Y013370D02*
X004229Y013247D01*
X004163Y013086D01*
X004037Y013086D01*
X003971Y013247D01*
X003848Y013370D01*
X003687Y013437D01*
X003513Y013437D01*
X003352Y013370D01*
X003229Y013247D01*
X003163Y013086D01*
X001677Y013086D01*
X001677Y012968D02*
X003163Y012968D01*
X003163Y012912D02*
X003229Y012751D01*
X003352Y012628D01*
X003513Y012562D01*
X003687Y012562D01*
X003848Y012628D01*
X003971Y012751D01*
X004037Y012912D01*
X004037Y013086D01*
X004037Y012968D02*
X004163Y012968D01*
X004163Y012912D02*
X004229Y012751D01*
X004352Y012628D01*
X004513Y012562D01*
X004687Y012562D01*
X004848Y012628D01*
X004971Y012751D01*
X005037Y012912D01*
X005037Y013086D01*
X023163Y013086D01*
X023163Y012912D01*
X023229Y012751D01*
X023352Y012628D01*
X023513Y012562D01*
X023687Y012562D01*
X023848Y012628D01*
X023971Y012751D01*
X024037Y012912D01*
X024037Y013086D01*
X024163Y013086D01*
X024163Y012912D01*
X024229Y012751D01*
X024352Y012628D01*
X024513Y012562D01*
X024687Y012562D01*
X024848Y012628D01*
X024971Y012751D01*
X025037Y012912D01*
X025037Y013086D01*
X026050Y013086D01*
X026050Y012968D02*
X025037Y012968D01*
X025037Y013086D02*
X024971Y013247D01*
X024848Y013370D01*
X024687Y013437D01*
X024513Y013437D01*
X024352Y013370D01*
X024229Y013247D01*
X024163Y013086D01*
X024163Y012968D02*
X024037Y012968D01*
X024037Y013086D02*
X023971Y013247D01*
X023848Y013370D01*
X023687Y013437D01*
X023513Y013437D01*
X023352Y013370D01*
X023229Y013247D01*
X023163Y013086D01*
X023163Y012968D02*
X005037Y012968D01*
X005037Y013086D02*
X004971Y013247D01*
X004848Y013370D01*
X004687Y013437D01*
X004513Y013437D01*
X004352Y013370D01*
X004305Y013323D02*
X003895Y013323D01*
X003988Y013205D02*
X004212Y013205D01*
X004163Y013086D02*
X004163Y012912D01*
X004189Y012849D02*
X004011Y012849D01*
X003950Y012731D02*
X004250Y012731D01*
X004391Y012612D02*
X003809Y012612D01*
X003687Y012437D02*
X003513Y012437D01*
X003352Y012370D01*
X003229Y012247D01*
X003163Y012086D01*
X003163Y011912D01*
X003229Y011751D01*
X003352Y011628D01*
X003513Y011562D01*
X003687Y011562D01*
X003848Y011628D01*
X003971Y011751D01*
X004037Y011912D01*
X004037Y012086D01*
X003971Y012247D01*
X003848Y012370D01*
X003687Y012437D01*
X003835Y012375D02*
X004365Y012375D01*
X004352Y012370D02*
X004229Y012247D01*
X004163Y012086D01*
X004163Y011912D01*
X004229Y011751D01*
X004352Y011628D01*
X004513Y011562D01*
X004687Y011562D01*
X004848Y011628D01*
X004971Y011751D01*
X005037Y011912D01*
X005037Y012086D01*
X004971Y012247D01*
X004848Y012370D01*
X004687Y012437D01*
X004513Y012437D01*
X004352Y012370D01*
X004239Y012257D02*
X003961Y012257D01*
X004016Y012138D02*
X004184Y012138D01*
X004163Y012020D02*
X004037Y012020D01*
X004033Y011901D02*
X004167Y011901D01*
X004216Y011783D02*
X003984Y011783D01*
X003884Y011664D02*
X004316Y011664D01*
X004490Y011427D02*
X003710Y011427D01*
X003687Y011437D02*
X003848Y011370D01*
X003971Y011247D01*
X004037Y011086D01*
X004037Y010912D01*
X003971Y010751D01*
X003848Y010628D01*
X003687Y010562D01*
X003513Y010562D01*
X003352Y010628D01*
X003229Y010751D01*
X003163Y010912D01*
X003163Y011086D01*
X003229Y011247D01*
X003352Y011370D01*
X003513Y011437D01*
X003687Y011437D01*
X003490Y011427D02*
X001445Y011427D01*
X001540Y011309D02*
X003291Y011309D01*
X003206Y011190D02*
X001653Y011190D01*
X001702Y011072D02*
X003163Y011072D01*
X003163Y010953D02*
X001730Y010953D01*
X001730Y010835D02*
X003195Y010835D01*
X003264Y010716D02*
X001698Y010716D01*
X001648Y010598D02*
X003426Y010598D01*
X003513Y010437D02*
X003352Y010370D01*
X003229Y010247D01*
X003163Y010086D01*
X003163Y009912D01*
X003229Y009751D01*
X003352Y009628D01*
X003513Y009562D01*
X003687Y009562D01*
X003848Y009628D01*
X003971Y009751D01*
X004037Y009912D01*
X004037Y010086D01*
X003971Y010247D01*
X003848Y010370D01*
X003687Y010437D01*
X003513Y010437D01*
X003343Y010361D02*
X001471Y010361D01*
X001530Y010479D02*
X026322Y010479D01*
X026224Y010598D02*
X024774Y010598D01*
X024848Y010628D02*
X024971Y010751D01*
X025037Y010912D01*
X025037Y011086D01*
X024971Y011247D01*
X024848Y011370D01*
X024687Y011437D01*
X024513Y011437D01*
X024352Y011370D01*
X024229Y011247D01*
X024163Y011086D01*
X024163Y010912D01*
X024229Y010751D01*
X024352Y010628D01*
X024513Y010562D01*
X024687Y010562D01*
X024848Y010628D01*
X024936Y010716D02*
X026122Y010716D01*
X026073Y010835D02*
X025005Y010835D01*
X025037Y010953D02*
X026050Y010953D01*
X026050Y011072D02*
X025037Y011072D01*
X024994Y011190D02*
X026084Y011190D01*
X026133Y011309D02*
X024909Y011309D01*
X024710Y011427D02*
X026250Y011427D01*
X026276Y011546D02*
X001596Y011546D01*
X001676Y011664D02*
X003316Y011664D01*
X003216Y011783D02*
X001725Y011783D01*
X001730Y011901D02*
X003167Y011901D01*
X003163Y012020D02*
X001724Y012020D01*
X001675Y012138D02*
X003184Y012138D01*
X003239Y012257D02*
X001592Y012257D01*
X001436Y012375D02*
X003365Y012375D01*
X003391Y012612D02*
X001677Y012612D01*
X001677Y012731D02*
X003250Y012731D01*
X003189Y012849D02*
X001677Y012849D01*
X001677Y013205D02*
X003212Y013205D01*
X003163Y013086D02*
X003163Y012912D01*
X003305Y013323D02*
X001624Y013323D01*
X001643Y012494D02*
X026357Y012494D01*
X026209Y012612D02*
X024809Y012612D01*
X024950Y012731D02*
X026116Y012731D01*
X026067Y012849D02*
X025011Y012849D01*
X024988Y013205D02*
X026090Y013205D01*
X026146Y013323D02*
X024895Y013323D01*
X024848Y013628D02*
X024971Y013751D01*
X025037Y013912D01*
X025037Y014086D01*
X024971Y014247D01*
X024848Y014370D01*
X024687Y014437D01*
X024513Y014437D01*
X024352Y014370D01*
X024229Y014247D01*
X024163Y014086D01*
X024163Y013912D01*
X024229Y013751D01*
X024352Y013628D01*
X024513Y013562D01*
X024687Y013562D01*
X024848Y013628D01*
X024898Y013679D02*
X026143Y013679D01*
X026088Y013797D02*
X024990Y013797D01*
X025037Y013916D02*
X026050Y013916D01*
X026050Y014034D02*
X025037Y014034D01*
X025010Y014153D02*
X026068Y014153D01*
X026117Y014271D02*
X024947Y014271D01*
X024800Y014390D02*
X026213Y014390D01*
X026131Y015693D02*
X024913Y015693D01*
X024996Y015812D02*
X026082Y015812D01*
X026050Y015930D02*
X025037Y015930D01*
X025037Y016049D02*
X026050Y016049D01*
X026074Y016167D02*
X025004Y016167D01*
X024932Y016286D02*
X026123Y016286D01*
X026227Y016404D02*
X024765Y016404D01*
X024687Y016562D02*
X024848Y016628D01*
X024971Y016751D01*
X025037Y016912D01*
X025037Y017086D01*
X024971Y017247D01*
X024848Y017370D01*
X024687Y017437D01*
X024513Y017437D01*
X024352Y017370D01*
X024229Y017247D01*
X024163Y017086D01*
X024163Y016912D01*
X024229Y016751D01*
X024352Y016628D01*
X024513Y016562D01*
X024687Y016562D01*
X024861Y016641D02*
X026180Y016641D01*
X026104Y016760D02*
X024974Y016760D01*
X025023Y016878D02*
X026055Y016878D01*
X026050Y016997D02*
X025037Y016997D01*
X025025Y017115D02*
X026053Y017115D01*
X026102Y017234D02*
X024976Y017234D01*
X024866Y017352D02*
X026175Y017352D01*
X026301Y017471D02*
X000560Y017471D01*
X000560Y017589D02*
X003447Y017589D01*
X003513Y017562D02*
X003687Y017562D01*
X003848Y017628D01*
X003971Y017751D01*
X004037Y017912D01*
X004037Y018086D01*
X003971Y018247D01*
X003848Y018370D01*
X003687Y018437D01*
X003513Y018437D01*
X003352Y018370D01*
X003229Y018247D01*
X003163Y018086D01*
X003163Y017912D01*
X003229Y017751D01*
X003352Y017628D01*
X003513Y017562D01*
X003513Y017437D02*
X003352Y017370D01*
X003229Y017247D01*
X003163Y017086D01*
X003163Y016912D01*
X003229Y016751D01*
X003352Y016628D01*
X003513Y016562D01*
X003687Y016562D01*
X003848Y016628D01*
X003971Y016751D01*
X004037Y016912D01*
X004037Y017086D01*
X003971Y017247D01*
X003848Y017370D01*
X003687Y017437D01*
X003513Y017437D01*
X003334Y017352D02*
X000560Y017352D01*
X000560Y017234D02*
X003224Y017234D01*
X003175Y017115D02*
X000560Y017115D01*
X000560Y016997D02*
X003163Y016997D01*
X003177Y016878D02*
X000560Y016878D01*
X000560Y016760D02*
X003226Y016760D01*
X003339Y016641D02*
X000560Y016641D01*
X000560Y016523D02*
X026313Y016523D01*
X026232Y017589D02*
X024753Y017589D01*
X024687Y017562D02*
X024848Y017628D01*
X024971Y017751D01*
X025037Y017912D01*
X025037Y018086D01*
X024971Y018247D01*
X024848Y018370D01*
X024687Y018437D01*
X024513Y018437D01*
X024352Y018370D01*
X024229Y018247D01*
X024163Y018086D01*
X024163Y017912D01*
X024229Y017751D01*
X024352Y017628D01*
X024513Y017562D01*
X024687Y017562D01*
X024447Y017589D02*
X023753Y017589D01*
X023687Y017562D02*
X023848Y017628D01*
X023971Y017751D01*
X024037Y017912D01*
X024037Y018086D01*
X023971Y018247D01*
X023848Y018370D01*
X023687Y018437D01*
X023513Y018437D01*
X023352Y018370D01*
X023229Y018247D01*
X023163Y018086D01*
X023163Y017912D01*
X023229Y017751D01*
X023352Y017628D01*
X023513Y017562D01*
X023687Y017562D01*
X023687Y017437D02*
X023513Y017437D01*
X023352Y017370D01*
X023229Y017247D01*
X023163Y017086D01*
X023163Y016912D01*
X023229Y016751D01*
X023352Y016628D01*
X023513Y016562D01*
X023687Y016562D01*
X023848Y016628D01*
X023971Y016751D01*
X024037Y016912D01*
X024037Y017086D01*
X023971Y017247D01*
X023848Y017370D01*
X023687Y017437D01*
X023866Y017352D02*
X024334Y017352D01*
X024224Y017234D02*
X023976Y017234D01*
X024025Y017115D02*
X024175Y017115D01*
X024163Y016997D02*
X024037Y016997D01*
X024023Y016878D02*
X024177Y016878D01*
X024226Y016760D02*
X023974Y016760D01*
X023861Y016641D02*
X024339Y016641D01*
X024435Y016404D02*
X023765Y016404D01*
X023687Y016437D02*
X023513Y016437D01*
X023352Y016370D01*
X023229Y016247D01*
X023163Y016086D01*
X023163Y015912D01*
X023229Y015751D01*
X023352Y015628D01*
X023513Y015562D01*
X023687Y015562D01*
X023848Y015628D01*
X023971Y015751D01*
X024037Y015912D01*
X024037Y016086D01*
X023971Y016247D01*
X023848Y016370D01*
X023687Y016437D01*
X023435Y016404D02*
X004765Y016404D01*
X004687Y016562D02*
X004848Y016628D01*
X004971Y016751D01*
X005037Y016912D01*
X005037Y017086D01*
X004971Y017247D01*
X004848Y017370D01*
X004687Y017437D01*
X004513Y017437D01*
X004352Y017370D01*
X004229Y017247D01*
X004163Y017086D01*
X004163Y016912D01*
X004229Y016751D01*
X004352Y016628D01*
X004513Y016562D01*
X004687Y016562D01*
X004861Y016641D02*
X023339Y016641D01*
X023226Y016760D02*
X004974Y016760D01*
X005023Y016878D02*
X023177Y016878D01*
X023163Y016997D02*
X005037Y016997D01*
X005025Y017115D02*
X023175Y017115D01*
X023224Y017234D02*
X004976Y017234D01*
X004866Y017352D02*
X023334Y017352D01*
X023447Y017589D02*
X004753Y017589D01*
X004687Y017562D02*
X004848Y017628D01*
X004971Y017751D01*
X005037Y017912D01*
X005037Y018086D01*
X004971Y018247D01*
X004848Y018370D01*
X004687Y018437D01*
X004513Y018437D01*
X004352Y018370D01*
X004229Y018247D01*
X004163Y018086D01*
X004163Y017912D01*
X004229Y017751D01*
X004352Y017628D01*
X004513Y017562D01*
X004687Y017562D01*
X004447Y017589D02*
X003753Y017589D01*
X003927Y017708D02*
X004273Y017708D01*
X004198Y017826D02*
X004002Y017826D01*
X004037Y017945D02*
X004163Y017945D01*
X004163Y018063D02*
X004037Y018063D01*
X003998Y018182D02*
X004202Y018182D01*
X004282Y018300D02*
X003918Y018300D01*
X003730Y018419D02*
X004470Y018419D01*
X004513Y018562D02*
X004687Y018562D01*
X004848Y018628D01*
X004971Y018751D01*
X005037Y018912D01*
X005037Y019086D01*
X004971Y019247D01*
X004848Y019370D01*
X004687Y019437D01*
X004513Y019437D01*
X004352Y019370D01*
X004229Y019247D01*
X004163Y019086D01*
X004163Y018912D01*
X004229Y018751D01*
X004352Y018628D01*
X004513Y018562D01*
X004325Y018656D02*
X003875Y018656D01*
X003848Y018628D02*
X003971Y018751D01*
X004037Y018912D01*
X004037Y019086D01*
X003971Y019247D01*
X003848Y019370D01*
X003687Y019437D01*
X003513Y019437D01*
X003352Y019370D01*
X003229Y019247D01*
X003163Y019086D01*
X003163Y018912D01*
X003229Y018751D01*
X003352Y018628D01*
X003513Y018562D01*
X003687Y018562D01*
X003848Y018628D01*
X003980Y018774D02*
X004220Y018774D01*
X004171Y018893D02*
X004029Y018893D01*
X004037Y019011D02*
X004163Y019011D01*
X004181Y019130D02*
X004019Y019130D01*
X003970Y019248D02*
X004230Y019248D01*
X004349Y019367D02*
X003851Y019367D01*
X003760Y019612D02*
X003819Y019642D01*
X003872Y019681D01*
X003918Y019727D01*
X003957Y019780D01*
X003987Y019839D01*
X004007Y019901D01*
X004017Y019966D01*
X004017Y019980D01*
X003619Y019980D01*
X003619Y020018D01*
X004017Y020018D01*
X004017Y020032D01*
X004007Y020097D01*
X003987Y020159D01*
X003957Y020218D01*
X003918Y020271D01*
X003872Y020317D01*
X003819Y020356D01*
X003760Y020386D01*
X003698Y020406D01*
X003633Y020417D01*
X003619Y020417D01*
X003619Y020018D01*
X003581Y020018D01*
X003581Y019980D01*
X003619Y019980D01*
X003619Y019582D01*
X003633Y019582D01*
X003698Y019592D01*
X003760Y019612D01*
X003734Y019604D02*
X004412Y019604D01*
X004352Y019628D02*
X004513Y019562D01*
X004687Y019562D01*
X004848Y019628D01*
X004971Y019751D01*
X005037Y019912D01*
X005037Y020086D01*
X004971Y020247D01*
X004848Y020370D01*
X004687Y020437D01*
X004513Y020437D01*
X004352Y020370D01*
X004229Y020247D01*
X004163Y020086D01*
X004163Y019912D01*
X004229Y019751D01*
X004352Y019628D01*
X004258Y019722D02*
X003913Y019722D01*
X003987Y019841D02*
X004192Y019841D01*
X004163Y019959D02*
X004016Y019959D01*
X004010Y020078D02*
X004163Y020078D01*
X004208Y020196D02*
X003968Y020196D01*
X003875Y020315D02*
X004297Y020315D01*
X004505Y020433D02*
X000560Y020433D01*
X000560Y020315D02*
X003325Y020315D01*
X003328Y020317D02*
X003282Y020271D01*
X003243Y020218D01*
X003213Y020159D01*
X003193Y020097D01*
X003183Y020032D01*
X003183Y020018D01*
X003581Y020018D01*
X003581Y020417D01*
X003567Y020417D01*
X003502Y020406D01*
X003440Y020386D01*
X003381Y020356D01*
X003328Y020317D01*
X003232Y020196D02*
X000560Y020196D01*
X000560Y020078D02*
X003190Y020078D01*
X003183Y019980D02*
X003183Y019966D01*
X003193Y019901D01*
X003213Y019839D01*
X003243Y019780D01*
X003282Y019727D01*
X003328Y019681D01*
X003381Y019642D01*
X003440Y019612D01*
X003502Y019592D01*
X003567Y019582D01*
X003581Y019582D01*
X003581Y019980D01*
X003183Y019980D01*
X003184Y019959D02*
X000560Y019959D01*
X000560Y019841D02*
X003213Y019841D01*
X003287Y019722D02*
X000560Y019722D01*
X000560Y019604D02*
X003466Y019604D01*
X003581Y019604D02*
X003619Y019604D01*
X003619Y019722D02*
X003581Y019722D01*
X003581Y019841D02*
X003619Y019841D01*
X003619Y019959D02*
X003581Y019959D01*
X003581Y020078D02*
X003619Y020078D01*
X003619Y020196D02*
X003581Y020196D01*
X003581Y020315D02*
X003619Y020315D01*
X003687Y020562D02*
X003848Y020628D01*
X003971Y020751D01*
X004037Y020912D01*
X004037Y021086D01*
X003971Y021247D01*
X003848Y021370D01*
X003687Y021437D01*
X003513Y021437D01*
X003352Y021370D01*
X003229Y021247D01*
X003163Y021086D01*
X003163Y020912D01*
X003229Y020751D01*
X003352Y020628D01*
X003513Y020562D01*
X003687Y020562D01*
X003890Y020670D02*
X004310Y020670D01*
X004352Y020628D02*
X004513Y020562D01*
X004687Y020562D01*
X004848Y020628D01*
X004971Y020751D01*
X005037Y020912D01*
X005037Y021086D01*
X004971Y021247D01*
X004848Y021370D01*
X004687Y021437D01*
X004513Y021437D01*
X004352Y021370D01*
X004229Y021247D01*
X004163Y021086D01*
X004163Y020912D01*
X004229Y020751D01*
X004352Y020628D01*
X004214Y020789D02*
X003986Y020789D01*
X004035Y020907D02*
X004165Y020907D01*
X004163Y021026D02*
X004037Y021026D01*
X004013Y021144D02*
X004187Y021144D01*
X004245Y021263D02*
X003955Y021263D01*
X003821Y021381D02*
X004379Y021381D01*
X004513Y021562D02*
X004687Y021562D01*
X004848Y021628D01*
X004971Y021751D01*
X005037Y021912D01*
X005037Y022086D01*
X004971Y022247D01*
X004848Y022370D01*
X004687Y022437D01*
X004513Y022437D01*
X004352Y022370D01*
X004229Y022247D01*
X004163Y022086D01*
X004163Y021912D01*
X004229Y021751D01*
X004352Y021628D01*
X004513Y021562D01*
X004377Y021618D02*
X003823Y021618D01*
X003848Y021628D02*
X003971Y021751D01*
X004037Y021912D01*
X004037Y022086D01*
X003971Y022247D01*
X003848Y022370D01*
X003687Y022437D01*
X003513Y022437D01*
X003352Y022370D01*
X003229Y022247D01*
X003163Y022086D01*
X003163Y021912D01*
X003229Y021751D01*
X003352Y021628D01*
X003513Y021562D01*
X003687Y021562D01*
X003848Y021628D01*
X003956Y021737D02*
X004244Y021737D01*
X004186Y021855D02*
X004014Y021855D01*
X004037Y021974D02*
X004163Y021974D01*
X004165Y022092D02*
X004035Y022092D01*
X003986Y022211D02*
X004214Y022211D01*
X004311Y022329D02*
X003889Y022329D01*
X003848Y022628D02*
X003971Y022751D01*
X004037Y022912D01*
X004037Y023086D01*
X003971Y023247D01*
X003848Y023370D01*
X003687Y023437D01*
X003513Y023437D01*
X003352Y023370D01*
X003229Y023247D01*
X003163Y023086D01*
X003163Y022912D01*
X003229Y022751D01*
X003352Y022628D01*
X003513Y022562D01*
X003687Y022562D01*
X003848Y022628D01*
X003904Y022685D02*
X004296Y022685D01*
X004352Y022628D02*
X004229Y022751D01*
X004163Y022912D01*
X004163Y023086D01*
X004229Y023247D01*
X004352Y023370D01*
X004513Y023437D01*
X004687Y023437D01*
X004848Y023370D01*
X004971Y023247D01*
X005037Y023086D01*
X005037Y022912D01*
X004971Y022751D01*
X004848Y022628D01*
X004687Y022562D01*
X004513Y022562D01*
X004352Y022628D01*
X004502Y022566D02*
X003698Y022566D01*
X003502Y022566D02*
X000560Y022566D01*
X000560Y022448D02*
X026271Y022448D01*
X026255Y022566D02*
X024698Y022566D01*
X024687Y022562D02*
X024848Y022628D01*
X024971Y022751D01*
X025037Y022912D01*
X025037Y023086D01*
X024971Y023247D01*
X024848Y023370D01*
X024687Y023437D01*
X024513Y023437D01*
X024352Y023370D01*
X024229Y023247D01*
X024163Y023086D01*
X024163Y022912D01*
X024229Y022751D01*
X024352Y022628D01*
X024513Y022562D01*
X024687Y022562D01*
X024687Y022437D02*
X024513Y022437D01*
X024352Y022370D01*
X024229Y022247D01*
X024163Y022086D01*
X024163Y021912D01*
X024229Y021751D01*
X024352Y021628D01*
X024513Y021562D01*
X024687Y021562D01*
X024848Y021628D01*
X024971Y021751D01*
X025037Y021912D01*
X025037Y022086D01*
X024971Y022247D01*
X024848Y022370D01*
X024687Y022437D01*
X024502Y022566D02*
X023698Y022566D01*
X023687Y022562D02*
X023848Y022628D01*
X023971Y022751D01*
X024037Y022912D01*
X024037Y023086D01*
X023971Y023247D01*
X023848Y023370D01*
X023687Y023437D01*
X023513Y023437D01*
X023352Y023370D01*
X023229Y023247D01*
X023163Y023086D01*
X023163Y022912D01*
X023229Y022751D01*
X023352Y022628D01*
X023513Y022562D01*
X023687Y022562D01*
X023687Y022437D02*
X023513Y022437D01*
X023352Y022370D01*
X023229Y022247D01*
X023163Y022086D01*
X023163Y021912D01*
X023229Y021751D01*
X023352Y021628D01*
X023513Y021562D01*
X023687Y021562D01*
X023848Y021628D01*
X023971Y021751D01*
X024037Y021912D01*
X024037Y022086D01*
X023971Y022247D01*
X023848Y022370D01*
X023687Y022437D01*
X023502Y022566D02*
X004698Y022566D01*
X004904Y022685D02*
X023296Y022685D01*
X023208Y022803D02*
X004992Y022803D01*
X005037Y022922D02*
X023163Y022922D01*
X023163Y023040D02*
X005037Y023040D01*
X005007Y023159D02*
X023193Y023159D01*
X023259Y023277D02*
X004941Y023277D01*
X004786Y023396D02*
X023414Y023396D01*
X023513Y023562D02*
X023352Y023628D01*
X023229Y023751D01*
X023163Y023912D01*
X023163Y024086D01*
X023229Y024247D01*
X023352Y024370D01*
X023513Y024437D01*
X023687Y024437D01*
X023848Y024370D01*
X023971Y024247D01*
X024037Y024086D01*
X024037Y023912D01*
X023971Y023751D01*
X023848Y023628D01*
X023687Y023562D01*
X023513Y023562D01*
X023348Y023633D02*
X004852Y023633D01*
X004848Y023628D02*
X004971Y023751D01*
X005037Y023912D01*
X005037Y024086D01*
X004971Y024247D01*
X004848Y024370D01*
X004687Y024437D01*
X004513Y024437D01*
X004352Y024370D01*
X004229Y024247D01*
X004163Y024086D01*
X004163Y023912D01*
X004229Y023751D01*
X004352Y023628D01*
X004513Y023562D01*
X004687Y023562D01*
X004848Y023628D01*
X004971Y023751D02*
X023229Y023751D01*
X023180Y023870D02*
X005020Y023870D01*
X005037Y023988D02*
X023163Y023988D01*
X023171Y024107D02*
X005029Y024107D01*
X004980Y024225D02*
X023220Y024225D01*
X023326Y024344D02*
X004874Y024344D01*
X004733Y024581D02*
X023467Y024581D01*
X023513Y024562D02*
X023687Y024562D01*
X023848Y024628D01*
X023971Y024751D01*
X024037Y024912D01*
X024037Y025086D01*
X023971Y025247D01*
X023848Y025370D01*
X023687Y025437D01*
X023513Y025437D01*
X023352Y025370D01*
X023229Y025247D01*
X023163Y025086D01*
X023163Y024912D01*
X023229Y024751D01*
X023352Y024628D01*
X023513Y024562D01*
X023733Y024581D02*
X024467Y024581D01*
X024513Y024562D02*
X024687Y024562D01*
X024848Y024628D01*
X024971Y024751D01*
X025037Y024912D01*
X025037Y025086D01*
X024971Y025247D01*
X024848Y025370D01*
X024687Y025437D01*
X024513Y025437D01*
X024352Y025370D01*
X024229Y025247D01*
X024163Y025086D01*
X024163Y024912D01*
X024229Y024751D01*
X024352Y024628D01*
X024513Y024562D01*
X024513Y024437D02*
X024352Y024370D01*
X024229Y024247D01*
X024163Y024086D01*
X024163Y023912D01*
X024229Y023751D01*
X024352Y023628D01*
X024513Y023562D01*
X024687Y023562D01*
X024848Y023628D01*
X024971Y023751D01*
X025037Y023912D01*
X025037Y024086D01*
X024971Y024247D01*
X024848Y024370D01*
X024687Y024437D01*
X024513Y024437D01*
X024326Y024344D02*
X023874Y024344D01*
X023980Y024225D02*
X024220Y024225D01*
X024171Y024107D02*
X024029Y024107D01*
X024037Y023988D02*
X024163Y023988D01*
X024180Y023870D02*
X024020Y023870D01*
X023971Y023751D02*
X024229Y023751D01*
X024348Y023633D02*
X023852Y023633D01*
X023786Y023396D02*
X024414Y023396D01*
X024259Y023277D02*
X023941Y023277D01*
X024007Y023159D02*
X024193Y023159D01*
X024163Y023040D02*
X024037Y023040D01*
X024037Y022922D02*
X024163Y022922D01*
X024208Y022803D02*
X023992Y022803D01*
X023904Y022685D02*
X024296Y022685D01*
X024311Y022329D02*
X023889Y022329D01*
X023986Y022211D02*
X024214Y022211D01*
X024165Y022092D02*
X024035Y022092D01*
X024037Y021974D02*
X024163Y021974D01*
X024186Y021855D02*
X024014Y021855D01*
X023956Y021737D02*
X024244Y021737D01*
X024377Y021618D02*
X023823Y021618D01*
X023687Y021437D02*
X023513Y021437D01*
X023352Y021370D01*
X023229Y021247D01*
X023163Y021086D01*
X023163Y020912D01*
X023229Y020751D01*
X023352Y020628D01*
X023513Y020562D01*
X023687Y020562D01*
X023848Y020628D01*
X023971Y020751D01*
X024037Y020912D01*
X024037Y021086D01*
X023971Y021247D01*
X023848Y021370D01*
X023687Y021437D01*
X023821Y021381D02*
X024379Y021381D01*
X024352Y021370D02*
X024229Y021247D01*
X024163Y021086D01*
X024163Y020912D01*
X024229Y020751D01*
X024352Y020628D01*
X024513Y020562D01*
X024687Y020562D01*
X024848Y020628D01*
X024971Y020751D01*
X025037Y020912D01*
X025037Y021086D01*
X024971Y021247D01*
X024848Y021370D01*
X024687Y021437D01*
X024513Y021437D01*
X024352Y021370D01*
X024245Y021263D02*
X023955Y021263D01*
X024013Y021144D02*
X024187Y021144D01*
X024163Y021026D02*
X024037Y021026D01*
X024035Y020907D02*
X024165Y020907D01*
X024214Y020789D02*
X023986Y020789D01*
X023890Y020670D02*
X024310Y020670D01*
X024352Y020370D02*
X024229Y020247D01*
X024163Y020086D01*
X024163Y019912D01*
X024229Y019751D01*
X024352Y019628D01*
X024513Y019562D01*
X024687Y019562D01*
X024848Y019628D01*
X024971Y019751D01*
X025037Y019912D01*
X025037Y020086D01*
X024971Y020247D01*
X024848Y020370D01*
X024687Y020437D01*
X024513Y020437D01*
X024352Y020370D01*
X024297Y020315D02*
X023903Y020315D01*
X023848Y020370D02*
X023687Y020437D01*
X023513Y020437D01*
X023352Y020370D01*
X023229Y020247D01*
X023163Y020086D01*
X023163Y019912D01*
X023229Y019751D01*
X023352Y019628D01*
X023513Y019562D01*
X023687Y019562D01*
X023848Y019628D01*
X023971Y019751D01*
X024037Y019912D01*
X024037Y020086D01*
X023971Y020247D01*
X023848Y020370D01*
X023695Y020433D02*
X024505Y020433D01*
X024695Y020433D02*
X026256Y020433D01*
X026270Y020552D02*
X000560Y020552D01*
X000560Y020670D02*
X003310Y020670D01*
X003214Y020789D02*
X000560Y020789D01*
X000560Y020907D02*
X003165Y020907D01*
X003163Y021026D02*
X000560Y021026D01*
X000560Y021144D02*
X003187Y021144D01*
X003245Y021263D02*
X000560Y021263D01*
X000560Y021381D02*
X003379Y021381D01*
X003377Y021618D02*
X000560Y021618D01*
X000560Y021500D02*
X026369Y021500D01*
X026204Y021381D02*
X024821Y021381D01*
X024955Y021263D02*
X026114Y021263D01*
X026065Y021144D02*
X025013Y021144D01*
X025037Y021026D02*
X026050Y021026D01*
X026050Y020907D02*
X025035Y020907D01*
X024986Y020789D02*
X026092Y020789D01*
X026151Y020670D02*
X024890Y020670D01*
X024903Y020315D02*
X026138Y020315D01*
X026086Y020196D02*
X024992Y020196D01*
X025037Y020078D02*
X026050Y020078D01*
X026050Y019959D02*
X025037Y019959D01*
X025008Y019841D02*
X026070Y019841D01*
X026119Y019722D02*
X024942Y019722D01*
X024788Y019604D02*
X026218Y019604D01*
X026336Y019485D02*
X000560Y019485D01*
X000560Y019367D02*
X003349Y019367D01*
X003230Y019248D02*
X000560Y019248D01*
X000560Y019130D02*
X003181Y019130D01*
X003163Y019011D02*
X000560Y019011D01*
X000560Y018893D02*
X003171Y018893D01*
X003220Y018774D02*
X000560Y018774D01*
X000560Y018656D02*
X003325Y018656D01*
X003470Y018419D02*
X000560Y018419D01*
X000560Y018537D02*
X026284Y018537D01*
X026242Y018419D02*
X024730Y018419D01*
X024687Y018562D02*
X024848Y018628D01*
X024971Y018751D01*
X025037Y018912D01*
X025037Y019086D01*
X024971Y019247D01*
X024848Y019370D01*
X024687Y019437D01*
X024513Y019437D01*
X024352Y019370D01*
X024229Y019247D01*
X024163Y019086D01*
X024163Y018912D01*
X024229Y018751D01*
X024352Y018628D01*
X024513Y018562D01*
X024687Y018562D01*
X024875Y018656D02*
X026166Y018656D01*
X026098Y018774D02*
X024980Y018774D01*
X025029Y018893D02*
X026050Y018893D01*
X026050Y019011D02*
X025037Y019011D01*
X025019Y019130D02*
X026059Y019130D01*
X026108Y019248D02*
X024970Y019248D01*
X024851Y019367D02*
X026190Y019367D01*
X026129Y018300D02*
X024918Y018300D01*
X024998Y018182D02*
X026080Y018182D01*
X026050Y018063D02*
X025037Y018063D01*
X025037Y017945D02*
X026050Y017945D01*
X026076Y017826D02*
X025002Y017826D01*
X024927Y017708D02*
X026125Y017708D01*
X024470Y018419D02*
X023730Y018419D01*
X023687Y018562D02*
X023848Y018628D01*
X023971Y018751D01*
X024037Y018912D01*
X024037Y019086D01*
X023971Y019247D01*
X023848Y019370D01*
X023687Y019437D01*
X023513Y019437D01*
X023352Y019370D01*
X023229Y019247D01*
X023163Y019086D01*
X023163Y018912D01*
X023229Y018751D01*
X023352Y018628D01*
X023513Y018562D01*
X023687Y018562D01*
X023875Y018656D02*
X024325Y018656D01*
X024220Y018774D02*
X023980Y018774D01*
X024029Y018893D02*
X024171Y018893D01*
X024163Y019011D02*
X024037Y019011D01*
X024019Y019130D02*
X024181Y019130D01*
X024230Y019248D02*
X023970Y019248D01*
X023851Y019367D02*
X024349Y019367D01*
X024412Y019604D02*
X023788Y019604D01*
X023942Y019722D02*
X024258Y019722D01*
X024192Y019841D02*
X024008Y019841D01*
X024037Y019959D02*
X024163Y019959D01*
X024163Y020078D02*
X024037Y020078D01*
X023992Y020196D02*
X024208Y020196D01*
X023505Y020433D02*
X004695Y020433D01*
X004903Y020315D02*
X023297Y020315D01*
X023208Y020196D02*
X004992Y020196D01*
X005037Y020078D02*
X023163Y020078D01*
X023163Y019959D02*
X005037Y019959D01*
X005008Y019841D02*
X023192Y019841D01*
X023258Y019722D02*
X004942Y019722D01*
X004788Y019604D02*
X023412Y019604D01*
X023349Y019367D02*
X004851Y019367D01*
X004970Y019248D02*
X023230Y019248D01*
X023181Y019130D02*
X005019Y019130D01*
X005037Y019011D02*
X023163Y019011D01*
X023171Y018893D02*
X005029Y018893D01*
X004980Y018774D02*
X023220Y018774D01*
X023325Y018656D02*
X004875Y018656D01*
X004730Y018419D02*
X023470Y018419D01*
X023282Y018300D02*
X004918Y018300D01*
X004998Y018182D02*
X023202Y018182D01*
X023163Y018063D02*
X005037Y018063D01*
X005037Y017945D02*
X023163Y017945D01*
X023198Y017826D02*
X005002Y017826D01*
X004927Y017708D02*
X023273Y017708D01*
X023927Y017708D02*
X024273Y017708D01*
X024198Y017826D02*
X024002Y017826D01*
X024037Y017945D02*
X024163Y017945D01*
X024163Y018063D02*
X024037Y018063D01*
X023998Y018182D02*
X024202Y018182D01*
X024282Y018300D02*
X023918Y018300D01*
X023932Y016286D02*
X024268Y016286D01*
X024196Y016167D02*
X024004Y016167D01*
X024037Y016049D02*
X024163Y016049D01*
X024163Y015930D02*
X024037Y015930D01*
X023996Y015812D02*
X024204Y015812D01*
X024287Y015693D02*
X023913Y015693D01*
X023718Y015575D02*
X024482Y015575D01*
X024320Y015338D02*
X023880Y015338D01*
X023848Y015370D02*
X023687Y015437D01*
X023513Y015437D01*
X023352Y015370D01*
X023229Y015247D01*
X023163Y015086D01*
X023163Y014912D01*
X023229Y014751D01*
X023352Y014628D01*
X023513Y014562D01*
X023687Y014562D01*
X023848Y014628D01*
X023971Y014751D01*
X024037Y014912D01*
X024037Y015086D01*
X023971Y015247D01*
X023848Y015370D01*
X023982Y015219D02*
X024218Y015219D01*
X024169Y015101D02*
X024031Y015101D01*
X024037Y014982D02*
X024163Y014982D01*
X024183Y014864D02*
X024017Y014864D01*
X023965Y014745D02*
X024235Y014745D01*
X024356Y014627D02*
X023844Y014627D01*
X023800Y014390D02*
X024400Y014390D01*
X024253Y014271D02*
X023947Y014271D01*
X023971Y014247D02*
X023848Y014370D01*
X023687Y014437D01*
X023513Y014437D01*
X023352Y014370D01*
X023229Y014247D01*
X023163Y014086D01*
X023163Y013912D01*
X023229Y013751D01*
X023352Y013628D01*
X023513Y013562D01*
X023687Y013562D01*
X023848Y013628D01*
X023971Y013751D01*
X024037Y013912D01*
X024037Y014086D01*
X023971Y014247D01*
X024010Y014153D02*
X024190Y014153D01*
X024163Y014034D02*
X024037Y014034D01*
X024037Y013916D02*
X024163Y013916D01*
X024210Y013797D02*
X023990Y013797D01*
X023898Y013679D02*
X024302Y013679D01*
X024305Y013323D02*
X023895Y013323D01*
X023988Y013205D02*
X024212Y013205D01*
X024189Y012849D02*
X024011Y012849D01*
X023950Y012731D02*
X024250Y012731D01*
X024391Y012612D02*
X023809Y012612D01*
X023687Y012437D02*
X023513Y012437D01*
X023352Y012370D01*
X023229Y012247D01*
X023163Y012086D01*
X023163Y011912D01*
X023229Y011751D01*
X023352Y011628D01*
X023513Y011562D01*
X023687Y011562D01*
X023848Y011628D01*
X023971Y011751D01*
X024037Y011912D01*
X024037Y012086D01*
X023971Y012247D01*
X023848Y012370D01*
X023687Y012437D01*
X023835Y012375D02*
X024365Y012375D01*
X024352Y012370D02*
X024229Y012247D01*
X024163Y012086D01*
X024163Y011912D01*
X024229Y011751D01*
X024352Y011628D01*
X024513Y011562D01*
X024687Y011562D01*
X024848Y011628D01*
X024971Y011751D01*
X025037Y011912D01*
X025037Y012086D01*
X024971Y012247D01*
X024848Y012370D01*
X024687Y012437D01*
X024513Y012437D01*
X024352Y012370D01*
X024239Y012257D02*
X023961Y012257D01*
X024016Y012138D02*
X024184Y012138D01*
X024163Y012020D02*
X024037Y012020D01*
X024033Y011901D02*
X024167Y011901D01*
X024216Y011783D02*
X023984Y011783D01*
X023884Y011664D02*
X024316Y011664D01*
X024490Y011427D02*
X023710Y011427D01*
X023687Y011437D02*
X023513Y011437D01*
X023352Y011370D01*
X023229Y011247D01*
X023163Y011086D01*
X023163Y010912D01*
X023229Y010751D01*
X023352Y010628D01*
X023513Y010562D01*
X023687Y010562D01*
X023848Y010628D01*
X023971Y010751D01*
X024037Y010912D01*
X024037Y011086D01*
X023971Y011247D01*
X023848Y011370D01*
X023687Y011437D01*
X023490Y011427D02*
X004710Y011427D01*
X004687Y011437D02*
X004513Y011437D01*
X004352Y011370D01*
X004229Y011247D01*
X004163Y011086D01*
X004163Y010912D01*
X004229Y010751D01*
X004352Y010628D01*
X004513Y010562D01*
X004687Y010562D01*
X004848Y010628D01*
X004971Y010751D01*
X005037Y010912D01*
X005037Y011086D01*
X004971Y011247D01*
X004848Y011370D01*
X004687Y011437D01*
X004909Y011309D02*
X023291Y011309D01*
X023206Y011190D02*
X004994Y011190D01*
X005037Y011072D02*
X023163Y011072D01*
X023163Y010953D02*
X005037Y010953D01*
X005005Y010835D02*
X023195Y010835D01*
X023264Y010716D02*
X004936Y010716D01*
X004774Y010598D02*
X023426Y010598D01*
X023513Y010437D02*
X023352Y010370D01*
X023229Y010247D01*
X023163Y010086D01*
X023163Y009912D01*
X023229Y009751D01*
X023352Y009628D01*
X023513Y009562D01*
X023687Y009562D01*
X023848Y009628D01*
X023971Y009751D01*
X024037Y009912D01*
X024037Y010086D01*
X023971Y010247D01*
X023848Y010370D01*
X023687Y010437D01*
X023513Y010437D01*
X023343Y010361D02*
X004857Y010361D01*
X004848Y010370D02*
X004687Y010437D01*
X004513Y010437D01*
X004352Y010370D01*
X004229Y010247D01*
X004163Y010086D01*
X004163Y009912D01*
X004229Y009751D01*
X004352Y009628D01*
X004513Y009562D01*
X004687Y009562D01*
X004848Y009628D01*
X004971Y009751D01*
X005037Y009912D01*
X005037Y010086D01*
X004971Y010247D01*
X004848Y010370D01*
X004973Y010242D02*
X023227Y010242D01*
X023178Y010124D02*
X005022Y010124D01*
X005037Y010005D02*
X023163Y010005D01*
X023173Y009887D02*
X005027Y009887D01*
X004978Y009768D02*
X023222Y009768D01*
X023331Y009650D02*
X004869Y009650D01*
X004745Y009413D02*
X023455Y009413D01*
X023276Y009294D02*
X004924Y009294D01*
X005000Y009176D02*
X023200Y009176D01*
X023163Y009057D02*
X005037Y009057D01*
X005037Y008939D02*
X023163Y008939D01*
X023201Y008820D02*
X004999Y008820D01*
X004921Y008702D02*
X023279Y008702D01*
X023739Y008583D02*
X024461Y008583D01*
X024513Y008562D02*
X024687Y008562D01*
X024848Y008628D01*
X024971Y008751D01*
X025037Y008912D01*
X025037Y009086D01*
X024971Y009247D01*
X024848Y009370D01*
X024687Y009437D01*
X024513Y009437D01*
X024352Y009370D01*
X024229Y009247D01*
X024163Y009086D01*
X024163Y008912D01*
X024229Y008751D01*
X024352Y008628D01*
X024513Y008562D01*
X024513Y008437D02*
X024352Y008370D01*
X024229Y008247D01*
X024163Y008086D01*
X024163Y007912D01*
X024229Y007751D01*
X024352Y007628D01*
X024513Y007562D01*
X024687Y007562D01*
X024848Y007628D01*
X024971Y007751D01*
X025037Y007912D01*
X025037Y008086D01*
X024971Y008247D01*
X024848Y008370D01*
X024687Y008437D01*
X024513Y008437D01*
X024328Y008346D02*
X023872Y008346D01*
X023979Y008228D02*
X024221Y008228D01*
X024172Y008109D02*
X024028Y008109D01*
X024037Y007991D02*
X024163Y007991D01*
X024179Y007872D02*
X024021Y007872D01*
X023972Y007754D02*
X024228Y007754D01*
X024345Y007635D02*
X023855Y007635D01*
X023910Y007280D02*
X024290Y007280D01*
X024214Y007161D02*
X023986Y007161D01*
X024016Y007043D02*
X024184Y007043D01*
X024183Y006980D02*
X024183Y006966D01*
X024193Y006901D01*
X024213Y006839D01*
X024243Y006780D01*
X024282Y006727D01*
X024328Y006681D01*
X024381Y006642D01*
X024440Y006612D01*
X024502Y006592D01*
X024567Y006582D01*
X024581Y006582D01*
X024581Y006980D01*
X024183Y006980D01*
X024189Y006924D02*
X024011Y006924D01*
X024007Y006901D02*
X024017Y006966D01*
X024017Y006980D01*
X023619Y006980D01*
X023619Y006582D01*
X023633Y006582D01*
X023698Y006592D01*
X023760Y006612D01*
X023819Y006642D01*
X023872Y006681D01*
X023918Y006727D01*
X023957Y006780D01*
X023987Y006839D01*
X024007Y006901D01*
X023970Y006806D02*
X024230Y006806D01*
X024322Y006687D02*
X023878Y006687D01*
X023619Y006687D02*
X023581Y006687D01*
X023581Y006806D02*
X023619Y006806D01*
X023619Y006924D02*
X023581Y006924D01*
X023581Y007043D02*
X023619Y007043D01*
X023619Y007161D02*
X023581Y007161D01*
X023581Y007280D02*
X023619Y007280D01*
X024581Y007280D02*
X024619Y007280D01*
X024619Y007161D02*
X024581Y007161D01*
X024581Y007043D02*
X024619Y007043D01*
X024619Y006924D02*
X024581Y006924D01*
X024581Y006806D02*
X024619Y006806D01*
X024619Y006687D02*
X024581Y006687D01*
X024855Y007635D02*
X026186Y007635D01*
X026134Y007688D02*
X026288Y007533D01*
X026297Y007529D01*
X026209Y007529D01*
X026168Y007518D01*
X026134Y007688D02*
X026050Y007890D01*
X026050Y008108D01*
X026134Y008311D01*
X026288Y008465D01*
X026238Y008583D02*
X024739Y008583D01*
X024921Y008702D02*
X026128Y008702D01*
X026079Y008820D02*
X024999Y008820D01*
X025037Y008939D02*
X026050Y008939D01*
X026050Y009057D02*
X025037Y009057D01*
X025000Y009176D02*
X026078Y009176D01*
X026127Y009294D02*
X024924Y009294D01*
X024745Y009413D02*
X026236Y009413D01*
X026293Y009531D02*
X001582Y009531D01*
X001670Y009650D02*
X003331Y009650D01*
X003222Y009768D02*
X001719Y009768D01*
X001730Y009887D02*
X003173Y009887D01*
X003163Y010005D02*
X001730Y010005D01*
X001681Y010124D02*
X003178Y010124D01*
X003227Y010242D02*
X001607Y010242D01*
X001410Y009413D02*
X003455Y009413D01*
X003513Y009437D02*
X003352Y009370D01*
X003229Y009247D01*
X003163Y009086D01*
X003163Y008912D01*
X003229Y008751D01*
X003352Y008628D01*
X003513Y008562D01*
X003687Y008562D01*
X003848Y008628D01*
X003971Y008751D01*
X004037Y008912D01*
X004037Y009086D01*
X003971Y009247D01*
X003848Y009370D01*
X003687Y009437D01*
X003513Y009437D01*
X003745Y009413D02*
X004455Y009413D01*
X004276Y009294D02*
X003924Y009294D01*
X004000Y009176D02*
X004200Y009176D01*
X004163Y009057D02*
X004037Y009057D01*
X004037Y008939D02*
X004163Y008939D01*
X004201Y008820D02*
X003999Y008820D01*
X003921Y008702D02*
X004279Y008702D01*
X003461Y008583D02*
X001634Y008583D01*
X001692Y008702D02*
X003279Y008702D01*
X003201Y008820D02*
X001730Y008820D01*
X001730Y008939D02*
X003163Y008939D01*
X003163Y009057D02*
X001708Y009057D01*
X001659Y009176D02*
X003200Y009176D01*
X003276Y009294D02*
X001555Y009294D01*
X003869Y009650D02*
X004331Y009650D01*
X004222Y009768D02*
X003978Y009768D01*
X004027Y009887D02*
X004173Y009887D01*
X004163Y010005D02*
X004037Y010005D01*
X004022Y010124D02*
X004178Y010124D01*
X004227Y010242D02*
X003973Y010242D01*
X003857Y010361D02*
X004343Y010361D01*
X004426Y010598D02*
X003774Y010598D01*
X003936Y010716D02*
X004264Y010716D01*
X004195Y010835D02*
X004005Y010835D01*
X004037Y010953D02*
X004163Y010953D01*
X004163Y011072D02*
X004037Y011072D01*
X003994Y011190D02*
X004206Y011190D01*
X004291Y011309D02*
X003909Y011309D01*
X004884Y011664D02*
X023316Y011664D01*
X023216Y011783D02*
X004984Y011783D01*
X005033Y011901D02*
X023167Y011901D01*
X023163Y012020D02*
X005037Y012020D01*
X005016Y012138D02*
X023184Y012138D01*
X023239Y012257D02*
X004961Y012257D01*
X004835Y012375D02*
X023365Y012375D01*
X023391Y012612D02*
X004809Y012612D01*
X004950Y012731D02*
X023250Y012731D01*
X023189Y012849D02*
X005011Y012849D01*
X004988Y013205D02*
X023212Y013205D01*
X023305Y013323D02*
X004895Y013323D01*
X004898Y013679D02*
X023302Y013679D01*
X023210Y013797D02*
X004990Y013797D01*
X005037Y013916D02*
X023163Y013916D01*
X023163Y014034D02*
X005037Y014034D01*
X005010Y014153D02*
X023190Y014153D01*
X023253Y014271D02*
X004947Y014271D01*
X004800Y014390D02*
X023400Y014390D01*
X023356Y014627D02*
X004844Y014627D01*
X004965Y014745D02*
X023235Y014745D01*
X023183Y014864D02*
X005017Y014864D01*
X005037Y014982D02*
X023163Y014982D01*
X023169Y015101D02*
X005031Y015101D01*
X004982Y015219D02*
X023218Y015219D01*
X023320Y015338D02*
X004880Y015338D01*
X004718Y015575D02*
X023482Y015575D01*
X023287Y015693D02*
X004913Y015693D01*
X004996Y015812D02*
X023204Y015812D01*
X023163Y015930D02*
X005037Y015930D01*
X005037Y016049D02*
X023163Y016049D01*
X023196Y016167D02*
X005004Y016167D01*
X004932Y016286D02*
X023268Y016286D01*
X024835Y012375D02*
X026198Y012375D01*
X026111Y012257D02*
X024961Y012257D01*
X025016Y012138D02*
X026062Y012138D01*
X026050Y012020D02*
X025037Y012020D01*
X025033Y011901D02*
X026050Y011901D01*
X026094Y011783D02*
X024984Y011783D01*
X024884Y011664D02*
X026157Y011664D01*
X026184Y010361D02*
X024857Y010361D01*
X024848Y010370D02*
X024687Y010437D01*
X024513Y010437D01*
X024352Y010370D01*
X024229Y010247D01*
X024163Y010086D01*
X024163Y009912D01*
X024229Y009751D01*
X024352Y009628D01*
X024513Y009562D01*
X024687Y009562D01*
X024848Y009628D01*
X024971Y009751D01*
X025037Y009912D01*
X025037Y010086D01*
X024971Y010247D01*
X024848Y010370D01*
X024973Y010242D02*
X026105Y010242D01*
X026056Y010124D02*
X025022Y010124D01*
X025037Y010005D02*
X026050Y010005D01*
X026051Y009887D02*
X025027Y009887D01*
X024978Y009768D02*
X026100Y009768D01*
X026172Y009650D02*
X024869Y009650D01*
X024455Y009413D02*
X023745Y009413D01*
X023924Y009294D02*
X024276Y009294D01*
X024200Y009176D02*
X024000Y009176D01*
X024037Y009057D02*
X024163Y009057D01*
X024163Y008939D02*
X024037Y008939D01*
X023999Y008820D02*
X024201Y008820D01*
X024279Y008702D02*
X023921Y008702D01*
X023869Y009650D02*
X024331Y009650D01*
X024222Y009768D02*
X023978Y009768D01*
X024027Y009887D02*
X024173Y009887D01*
X024163Y010005D02*
X024037Y010005D01*
X024022Y010124D02*
X024178Y010124D01*
X024227Y010242D02*
X023973Y010242D01*
X023857Y010361D02*
X024343Y010361D01*
X024426Y010598D02*
X023774Y010598D01*
X023936Y010716D02*
X024264Y010716D01*
X024195Y010835D02*
X024005Y010835D01*
X024037Y010953D02*
X024163Y010953D01*
X024163Y011072D02*
X024037Y011072D01*
X023994Y011190D02*
X024206Y011190D01*
X024291Y011309D02*
X023909Y011309D01*
X024872Y008346D02*
X026169Y008346D01*
X026099Y008228D02*
X024979Y008228D01*
X025028Y008109D02*
X026050Y008109D01*
X026050Y007991D02*
X025037Y007991D01*
X025021Y007872D02*
X026057Y007872D01*
X026106Y007754D02*
X024972Y007754D01*
X026560Y006924D02*
X026640Y006924D01*
X026640Y006806D02*
X026560Y006806D01*
X026560Y006687D02*
X026640Y006687D01*
X026640Y006569D02*
X026560Y006569D01*
X026912Y008465D02*
X026830Y008499D01*
X026912Y008533D01*
X023310Y020670D02*
X004890Y020670D01*
X004986Y020789D02*
X023214Y020789D01*
X023165Y020907D02*
X005035Y020907D01*
X005037Y021026D02*
X023163Y021026D01*
X023187Y021144D02*
X005013Y021144D01*
X004955Y021263D02*
X023245Y021263D01*
X023379Y021381D02*
X004821Y021381D01*
X004823Y021618D02*
X023377Y021618D01*
X023244Y021737D02*
X004956Y021737D01*
X005014Y021855D02*
X023186Y021855D01*
X023163Y021974D02*
X005037Y021974D01*
X005035Y022092D02*
X023165Y022092D01*
X023214Y022211D02*
X004986Y022211D01*
X004889Y022329D02*
X023311Y022329D01*
X024889Y022329D02*
X026152Y022329D01*
X026092Y022211D02*
X024986Y022211D01*
X025035Y022092D02*
X026050Y022092D01*
X026050Y021974D02*
X025037Y021974D01*
X025014Y021855D02*
X026064Y021855D01*
X026113Y021737D02*
X024956Y021737D01*
X024823Y021618D02*
X026203Y021618D01*
X026137Y022685D02*
X024904Y022685D01*
X024992Y022803D02*
X026086Y022803D01*
X026050Y022922D02*
X025037Y022922D01*
X025037Y023040D02*
X026050Y023040D01*
X026071Y023159D02*
X025007Y023159D01*
X024941Y023277D02*
X026120Y023277D01*
X026219Y023396D02*
X024786Y023396D01*
X024852Y023633D02*
X026189Y023633D01*
X026107Y023751D02*
X024971Y023751D01*
X025020Y023870D02*
X026058Y023870D01*
X026050Y023988D02*
X025037Y023988D01*
X025029Y024107D02*
X026050Y024107D01*
X026098Y024225D02*
X024980Y024225D01*
X024874Y024344D02*
X026167Y024344D01*
X026285Y024462D02*
X000560Y024462D01*
X000560Y024344D02*
X003326Y024344D01*
X003352Y024370D02*
X003229Y024247D01*
X003163Y024086D01*
X003163Y023912D01*
X003229Y023751D01*
X003352Y023628D01*
X003513Y023562D01*
X003687Y023562D01*
X003848Y023628D01*
X003971Y023751D01*
X004037Y023912D01*
X004037Y024086D01*
X003971Y024247D01*
X003848Y024370D01*
X003687Y024437D01*
X003513Y024437D01*
X003352Y024370D01*
X003220Y024225D02*
X000560Y024225D01*
X000560Y024107D02*
X003171Y024107D01*
X003163Y023988D02*
X000560Y023988D01*
X000560Y023870D02*
X003180Y023870D01*
X003229Y023751D02*
X000560Y023751D01*
X000560Y023633D02*
X003348Y023633D01*
X003414Y023396D02*
X000560Y023396D01*
X000560Y023514D02*
X026334Y023514D01*
X026241Y024581D02*
X024733Y024581D01*
X024919Y024699D02*
X026129Y024699D01*
X026080Y024818D02*
X024998Y024818D01*
X025037Y024936D02*
X026050Y024936D01*
X026050Y025055D02*
X025037Y025055D01*
X025001Y025173D02*
X026077Y025173D01*
X026126Y025292D02*
X024926Y025292D01*
X024751Y025410D02*
X026233Y025410D01*
X026299Y025529D02*
X000560Y025529D01*
X000560Y025647D02*
X003333Y025647D01*
X003352Y025628D02*
X003513Y025562D01*
X003687Y025562D01*
X003848Y025628D01*
X003971Y025751D01*
X004037Y025912D01*
X004037Y026086D01*
X003971Y026247D01*
X003848Y026370D01*
X003687Y026437D01*
X003513Y026437D01*
X003352Y026370D01*
X003229Y026247D01*
X003163Y026086D01*
X003163Y025912D01*
X003229Y025751D01*
X003352Y025628D01*
X003223Y025766D02*
X000560Y025766D01*
X000560Y025884D02*
X003174Y025884D01*
X003163Y026003D02*
X000560Y026003D01*
X000560Y026121D02*
X003177Y026121D01*
X003226Y026240D02*
X000560Y026240D01*
X000560Y026358D02*
X003340Y026358D01*
X003432Y026595D02*
X000560Y026595D01*
X000560Y026477D02*
X026316Y026477D01*
X026226Y026595D02*
X024768Y026595D01*
X024848Y026628D02*
X024971Y026751D01*
X025037Y026912D01*
X025037Y027086D01*
X024971Y027247D01*
X024848Y027370D01*
X024687Y027437D01*
X024513Y027437D01*
X024352Y027370D01*
X024229Y027247D01*
X024163Y027086D01*
X024163Y026912D01*
X024229Y026751D01*
X024352Y026628D01*
X024513Y026562D01*
X024687Y026562D01*
X024848Y026628D01*
X024933Y026714D02*
X026123Y026714D01*
X026074Y026832D02*
X025004Y026832D01*
X025037Y026951D02*
X026050Y026951D01*
X026050Y027069D02*
X025037Y027069D01*
X024995Y027188D02*
X026083Y027188D01*
X026132Y027306D02*
X024912Y027306D01*
X024716Y027425D02*
X026248Y027425D01*
X026278Y027543D02*
X000560Y027543D01*
X000560Y027425D02*
X003484Y027425D01*
X003513Y027437D02*
X003352Y027370D01*
X003229Y027247D01*
X003163Y027086D01*
X003163Y026912D01*
X003229Y026751D01*
X003352Y026628D01*
X003513Y026562D01*
X003687Y026562D01*
X003848Y026628D01*
X003971Y026751D01*
X004037Y026912D01*
X004037Y027086D01*
X003971Y027247D01*
X003848Y027370D01*
X003687Y027437D01*
X003513Y027437D01*
X003513Y027562D02*
X003687Y027562D01*
X003848Y027628D01*
X003971Y027751D01*
X004037Y027912D01*
X004037Y028086D01*
X003971Y028247D01*
X003848Y028370D01*
X003687Y028437D01*
X003513Y028437D01*
X003352Y028370D01*
X003229Y028247D01*
X003163Y028086D01*
X003163Y027912D01*
X003229Y027751D01*
X003352Y027628D01*
X003513Y027562D01*
X003319Y027662D02*
X000560Y027662D01*
X000560Y027780D02*
X003217Y027780D01*
X003168Y027899D02*
X000560Y027899D01*
X000560Y028017D02*
X003163Y028017D01*
X003183Y028136D02*
X000560Y028136D01*
X000560Y028254D02*
X003236Y028254D01*
X003359Y028373D02*
X000560Y028373D01*
X000560Y028491D02*
X026351Y028491D01*
X026212Y028610D02*
X024803Y028610D01*
X024848Y028628D02*
X024971Y028751D01*
X025037Y028912D01*
X025037Y029086D01*
X024971Y029247D01*
X024848Y029370D01*
X024687Y029437D01*
X024513Y029437D01*
X024352Y029370D01*
X024229Y029247D01*
X024163Y029086D01*
X024163Y028912D01*
X024229Y028751D01*
X024352Y028628D01*
X024513Y028562D01*
X024687Y028562D01*
X024848Y028628D01*
X024948Y028728D02*
X026117Y028728D01*
X026068Y028847D02*
X025010Y028847D01*
X025037Y028965D02*
X026050Y028965D01*
X026050Y029084D02*
X025037Y029084D01*
X024989Y029202D02*
X026089Y029202D01*
X026144Y029321D02*
X024897Y029321D01*
X024848Y029628D02*
X024687Y029562D01*
X024513Y029562D01*
X024352Y029628D01*
X024229Y029751D01*
X024163Y029912D01*
X024163Y030086D01*
X024229Y030247D01*
X024352Y030370D01*
X024513Y030437D01*
X024687Y030437D01*
X024848Y030370D01*
X024971Y030247D01*
X025037Y030086D01*
X025037Y029912D01*
X024971Y029751D01*
X024848Y029628D01*
X024896Y029676D02*
X026145Y029676D01*
X026089Y029795D02*
X024989Y029795D01*
X025037Y029913D02*
X026050Y029913D01*
X026050Y030032D02*
X025037Y030032D01*
X025011Y030150D02*
X026067Y030150D01*
X026116Y030269D02*
X024949Y030269D01*
X024806Y030387D02*
X026210Y030387D01*
X026386Y030506D02*
X000560Y030506D01*
X000560Y030624D02*
X003234Y030624D01*
X003244Y030614D02*
X003281Y030592D01*
X003321Y030582D01*
X003581Y030582D01*
X003581Y030980D01*
X003619Y030980D01*
X003619Y031018D01*
X004017Y031018D01*
X004017Y031278D01*
X004007Y031318D01*
X003986Y031355D01*
X003956Y031385D01*
X003919Y031406D01*
X003879Y031417D01*
X003619Y031417D01*
X003619Y031018D01*
X003581Y031018D01*
X003581Y030980D01*
X003183Y030980D01*
X003183Y030721D01*
X003193Y030680D01*
X003214Y030643D01*
X003244Y030614D01*
X003183Y030743D02*
X000560Y030743D01*
X000560Y030861D02*
X003183Y030861D01*
X003183Y030980D02*
X000560Y030980D01*
X000560Y031098D02*
X003183Y031098D01*
X003183Y031018D02*
X003581Y031018D01*
X003581Y031417D01*
X003321Y031417D01*
X003281Y031406D01*
X003244Y031385D01*
X003214Y031355D01*
X003193Y031318D01*
X003183Y031278D01*
X003183Y031018D01*
X003183Y031217D02*
X000560Y031217D01*
X000560Y031335D02*
X003203Y031335D01*
X003581Y031335D02*
X003619Y031335D01*
X003619Y031217D02*
X003581Y031217D01*
X003581Y031098D02*
X003619Y031098D01*
X003619Y030980D02*
X004017Y030980D01*
X004017Y030721D01*
X004007Y030680D01*
X003986Y030643D01*
X003956Y030614D01*
X003919Y030592D01*
X003879Y030582D01*
X003619Y030582D01*
X003619Y030980D01*
X003581Y030980D01*
X003581Y030861D02*
X003619Y030861D01*
X003619Y030743D02*
X003581Y030743D01*
X003581Y030624D02*
X003619Y030624D01*
X003687Y030437D02*
X003513Y030437D01*
X003352Y030370D01*
X003241Y030259D01*
X001999Y030259D01*
X001954Y030304D01*
X001822Y030359D01*
X001678Y030359D01*
X001546Y030304D01*
X001445Y030203D01*
X001390Y030071D01*
X001390Y029927D01*
X001445Y029795D01*
X001546Y029694D01*
X001678Y029639D01*
X001822Y029639D01*
X001954Y029694D01*
X001999Y029739D01*
X003241Y029739D01*
X003352Y029628D01*
X003513Y029562D01*
X003687Y029562D01*
X003848Y029628D01*
X003971Y029751D01*
X004037Y029912D01*
X004037Y030086D01*
X003971Y030247D01*
X003848Y030370D01*
X003687Y030437D01*
X003806Y030387D02*
X004394Y030387D01*
X004352Y030370D02*
X004229Y030247D01*
X004163Y030086D01*
X004163Y029912D01*
X004229Y029751D01*
X004352Y029628D01*
X004513Y029562D01*
X004687Y029562D01*
X004848Y029628D01*
X004971Y029751D01*
X005037Y029912D01*
X005037Y030086D01*
X004971Y030247D01*
X004848Y030370D01*
X004687Y030437D01*
X004513Y030437D01*
X004352Y030370D01*
X004251Y030269D02*
X003949Y030269D01*
X004011Y030150D02*
X004189Y030150D01*
X004163Y030032D02*
X004037Y030032D01*
X004037Y029913D02*
X004163Y029913D01*
X004211Y029795D02*
X003989Y029795D01*
X003896Y029676D02*
X004304Y029676D01*
X004352Y029370D02*
X004229Y029247D01*
X004163Y029086D01*
X004163Y028912D01*
X004229Y028751D01*
X004352Y028628D01*
X004513Y028562D01*
X004687Y028562D01*
X004848Y028628D01*
X004971Y028751D01*
X005037Y028912D01*
X005037Y029086D01*
X004971Y029247D01*
X004848Y029370D01*
X004687Y029437D01*
X004513Y029437D01*
X004352Y029370D01*
X004303Y029321D02*
X003868Y029321D01*
X003872Y029317D02*
X003819Y029356D01*
X003760Y029386D01*
X003698Y029406D01*
X003633Y029417D01*
X003619Y029417D01*
X003619Y029018D01*
X004017Y029018D01*
X004017Y029032D01*
X004007Y029097D01*
X003987Y029159D01*
X003957Y029218D01*
X003918Y029271D01*
X003872Y029317D01*
X003965Y029202D02*
X004211Y029202D01*
X004163Y029084D02*
X004009Y029084D01*
X004017Y028980D02*
X003619Y028980D01*
X003619Y029018D01*
X003581Y029018D01*
X003581Y028980D01*
X003619Y028980D01*
X003619Y028582D01*
X003633Y028582D01*
X003698Y028592D01*
X003760Y028612D01*
X003819Y028642D01*
X003872Y028681D01*
X003918Y028727D01*
X003957Y028780D01*
X003987Y028839D01*
X004007Y028901D01*
X004017Y028966D01*
X004017Y028980D01*
X004017Y028965D02*
X004163Y028965D01*
X004190Y028847D02*
X003989Y028847D01*
X003919Y028728D02*
X004252Y028728D01*
X004397Y028610D02*
X003752Y028610D01*
X003619Y028610D02*
X003581Y028610D01*
X003581Y028582D02*
X003581Y028980D01*
X003183Y028980D01*
X003183Y028966D01*
X003193Y028901D01*
X003213Y028839D01*
X003243Y028780D01*
X003282Y028727D01*
X003328Y028681D01*
X003381Y028642D01*
X003440Y028612D01*
X003502Y028592D01*
X003567Y028582D01*
X003581Y028582D01*
X003448Y028610D02*
X000560Y028610D01*
X000560Y028728D02*
X003281Y028728D01*
X003211Y028847D02*
X000560Y028847D01*
X000560Y028965D02*
X003183Y028965D01*
X003183Y029018D02*
X003581Y029018D01*
X003581Y029417D01*
X003567Y029417D01*
X003502Y029406D01*
X003440Y029386D01*
X003381Y029356D01*
X003328Y029317D01*
X003282Y029271D01*
X003243Y029218D01*
X003213Y029159D01*
X003193Y029097D01*
X003183Y029032D01*
X003183Y029018D01*
X003191Y029084D02*
X000560Y029084D01*
X000560Y029202D02*
X003235Y029202D01*
X003332Y029321D02*
X000560Y029321D01*
X000560Y029439D02*
X026262Y029439D01*
X026264Y029558D02*
X000560Y029558D01*
X000560Y029676D02*
X001589Y029676D01*
X001445Y029795D02*
X000560Y029795D01*
X000560Y029913D02*
X001396Y029913D01*
X001390Y030032D02*
X000560Y030032D01*
X000560Y030150D02*
X001423Y030150D01*
X001510Y030269D02*
X000560Y030269D01*
X000560Y030387D02*
X003394Y030387D01*
X003251Y030269D02*
X001990Y030269D01*
X001911Y029676D02*
X003304Y029676D01*
X003581Y029321D02*
X003619Y029321D01*
X003619Y029202D02*
X003581Y029202D01*
X003581Y029084D02*
X003619Y029084D01*
X003619Y028965D02*
X003581Y028965D01*
X003581Y028847D02*
X003619Y028847D01*
X003619Y028728D02*
X003581Y028728D01*
X003841Y028373D02*
X004359Y028373D01*
X004352Y028370D02*
X004229Y028247D01*
X004163Y028086D01*
X004163Y027912D01*
X004229Y027751D01*
X004352Y027628D01*
X004513Y027562D01*
X004687Y027562D01*
X004848Y027628D01*
X004971Y027751D01*
X005037Y027912D01*
X005037Y028086D01*
X004971Y028247D01*
X004848Y028370D01*
X004687Y028437D01*
X004513Y028437D01*
X004352Y028370D01*
X004236Y028254D02*
X003964Y028254D01*
X004017Y028136D02*
X004183Y028136D01*
X004163Y028017D02*
X004037Y028017D01*
X004032Y027899D02*
X004168Y027899D01*
X004217Y027780D02*
X003983Y027780D01*
X003881Y027662D02*
X004319Y027662D01*
X004484Y027425D02*
X003716Y027425D01*
X003912Y027306D02*
X004288Y027306D01*
X004229Y027247D02*
X004163Y027086D01*
X004163Y026912D01*
X004229Y026751D01*
X004352Y026628D01*
X004513Y026562D01*
X004687Y026562D01*
X004848Y026628D01*
X004971Y026751D01*
X005037Y026912D01*
X005037Y027086D01*
X004971Y027247D01*
X004848Y027370D01*
X004687Y027437D01*
X004513Y027437D01*
X004352Y027370D01*
X004229Y027247D01*
X004205Y027188D02*
X003995Y027188D01*
X004037Y027069D02*
X004163Y027069D01*
X004163Y026951D02*
X004037Y026951D01*
X004004Y026832D02*
X004196Y026832D01*
X004267Y026714D02*
X003933Y026714D01*
X003768Y026595D02*
X004432Y026595D01*
X004513Y026437D02*
X004352Y026370D01*
X004229Y026247D01*
X004163Y026086D01*
X004163Y025912D01*
X004229Y025751D01*
X004352Y025628D01*
X004513Y025562D01*
X004687Y025562D01*
X004848Y025628D01*
X004971Y025751D01*
X005037Y025912D01*
X005037Y026086D01*
X004971Y026247D01*
X004848Y026370D01*
X004687Y026437D01*
X004513Y026437D01*
X004340Y026358D02*
X003860Y026358D01*
X003974Y026240D02*
X004226Y026240D01*
X004177Y026121D02*
X004023Y026121D01*
X004037Y026003D02*
X004163Y026003D01*
X004174Y025884D02*
X004026Y025884D01*
X003977Y025766D02*
X004223Y025766D01*
X004333Y025647D02*
X003867Y025647D01*
X003751Y025410D02*
X004449Y025410D01*
X004513Y025437D02*
X004352Y025370D01*
X004229Y025247D01*
X004163Y025086D01*
X004163Y024912D01*
X004229Y024751D01*
X004352Y024628D01*
X004513Y024562D01*
X004687Y024562D01*
X004848Y024628D01*
X004971Y024751D01*
X005037Y024912D01*
X005037Y025086D01*
X004971Y025247D01*
X004848Y025370D01*
X004687Y025437D01*
X004513Y025437D01*
X004751Y025410D02*
X023449Y025410D01*
X023513Y025562D02*
X023352Y025628D01*
X023229Y025751D01*
X023163Y025912D01*
X023163Y026086D01*
X023229Y026247D01*
X023352Y026370D01*
X023513Y026437D01*
X023687Y026437D01*
X023848Y026370D01*
X023971Y026247D01*
X024037Y026086D01*
X024037Y025912D01*
X023971Y025751D01*
X023848Y025628D01*
X023687Y025562D01*
X023513Y025562D01*
X023333Y025647D02*
X004867Y025647D01*
X004977Y025766D02*
X023223Y025766D01*
X023174Y025884D02*
X005026Y025884D01*
X005037Y026003D02*
X023163Y026003D01*
X023177Y026121D02*
X005023Y026121D01*
X004974Y026240D02*
X023226Y026240D01*
X023340Y026358D02*
X004860Y026358D01*
X004768Y026595D02*
X023432Y026595D01*
X023352Y026628D02*
X023513Y026562D01*
X023687Y026562D01*
X023848Y026628D01*
X023971Y026751D01*
X024037Y026912D01*
X024037Y027086D01*
X023971Y027247D01*
X023848Y027370D01*
X023687Y027437D01*
X023513Y027437D01*
X023352Y027370D01*
X023229Y027247D01*
X023163Y027086D01*
X023163Y026912D01*
X023229Y026751D01*
X023352Y026628D01*
X023267Y026714D02*
X004933Y026714D01*
X005004Y026832D02*
X023196Y026832D01*
X023163Y026951D02*
X005037Y026951D01*
X005037Y027069D02*
X023163Y027069D01*
X023205Y027188D02*
X004995Y027188D01*
X004912Y027306D02*
X023288Y027306D01*
X023484Y027425D02*
X004716Y027425D01*
X004881Y027662D02*
X023319Y027662D01*
X023352Y027628D02*
X023513Y027562D01*
X023687Y027562D01*
X023848Y027628D01*
X023971Y027751D01*
X024037Y027912D01*
X024037Y028086D01*
X023971Y028247D01*
X023848Y028370D01*
X023687Y028437D01*
X023513Y028437D01*
X023352Y028370D01*
X023229Y028247D01*
X023163Y028086D01*
X023163Y027912D01*
X023229Y027751D01*
X023352Y027628D01*
X023217Y027780D02*
X004983Y027780D01*
X005032Y027899D02*
X023168Y027899D01*
X023163Y028017D02*
X005037Y028017D01*
X005017Y028136D02*
X023183Y028136D01*
X023236Y028254D02*
X004964Y028254D01*
X004841Y028373D02*
X023359Y028373D01*
X023397Y028610D02*
X004803Y028610D01*
X004948Y028728D02*
X023252Y028728D01*
X023229Y028751D02*
X023352Y028628D01*
X023513Y028562D01*
X023687Y028562D01*
X023848Y028628D01*
X023971Y028751D01*
X024037Y028912D01*
X024037Y029086D01*
X023971Y029247D01*
X023848Y029370D01*
X023687Y029437D01*
X023513Y029437D01*
X023352Y029370D01*
X023229Y029247D01*
X023163Y029086D01*
X023163Y028912D01*
X023229Y028751D01*
X023190Y028847D02*
X005010Y028847D01*
X005037Y028965D02*
X023163Y028965D01*
X023163Y029084D02*
X005037Y029084D01*
X004989Y029202D02*
X023211Y029202D01*
X023303Y029321D02*
X004897Y029321D01*
X004896Y029676D02*
X023304Y029676D01*
X023352Y029628D02*
X023513Y029562D01*
X023687Y029562D01*
X023848Y029628D01*
X023971Y029751D01*
X024037Y029912D01*
X024037Y030086D01*
X023971Y030247D01*
X023848Y030370D01*
X023687Y030437D01*
X023513Y030437D01*
X023352Y030370D01*
X023229Y030247D01*
X023163Y030086D01*
X023163Y029912D01*
X023229Y029751D01*
X023352Y029628D01*
X023211Y029795D02*
X004989Y029795D01*
X005037Y029913D02*
X023163Y029913D01*
X023163Y030032D02*
X005037Y030032D01*
X005011Y030150D02*
X023189Y030150D01*
X023251Y030269D02*
X004949Y030269D01*
X004806Y030387D02*
X023394Y030387D01*
X023321Y030582D02*
X023581Y030582D01*
X023581Y030980D01*
X023619Y030980D01*
X023619Y031018D01*
X024017Y031018D01*
X024017Y031278D01*
X024007Y031318D01*
X023986Y031355D01*
X023956Y031385D01*
X023919Y031406D01*
X023879Y031417D01*
X023619Y031417D01*
X023619Y031018D01*
X023581Y031018D01*
X023581Y030980D01*
X023183Y030980D01*
X023183Y030721D01*
X023193Y030680D01*
X023214Y030643D01*
X023244Y030614D01*
X023281Y030592D01*
X023321Y030582D01*
X023234Y030624D02*
X004784Y030624D01*
X004760Y030612D02*
X004819Y030642D01*
X004872Y030681D01*
X004918Y030727D01*
X004957Y030780D01*
X004987Y030839D01*
X005007Y030901D01*
X005017Y030966D01*
X005017Y030980D01*
X004619Y030980D01*
X004619Y031018D01*
X005017Y031018D01*
X005017Y031032D01*
X005007Y031097D01*
X004987Y031159D01*
X004957Y031218D01*
X004918Y031271D01*
X004872Y031317D01*
X004819Y031356D01*
X004760Y031386D01*
X004698Y031406D01*
X004633Y031417D01*
X004619Y031417D01*
X004619Y031018D01*
X004581Y031018D01*
X004581Y030980D01*
X004619Y030980D01*
X004619Y030582D01*
X004633Y030582D01*
X004698Y030592D01*
X004760Y030612D01*
X004619Y030624D02*
X004581Y030624D01*
X004581Y030582D02*
X004581Y030980D01*
X004183Y030980D01*
X004183Y030966D01*
X004193Y030901D01*
X004213Y030839D01*
X004243Y030780D01*
X004282Y030727D01*
X004328Y030681D01*
X004381Y030642D01*
X004440Y030612D01*
X004502Y030592D01*
X004567Y030582D01*
X004581Y030582D01*
X004581Y030743D02*
X004619Y030743D01*
X004619Y030861D02*
X004581Y030861D01*
X004581Y030980D02*
X004619Y030980D01*
X004581Y031018D02*
X004183Y031018D01*
X004183Y031032D01*
X004193Y031097D01*
X004213Y031159D01*
X004243Y031218D01*
X004282Y031271D01*
X004328Y031317D01*
X004381Y031356D01*
X004440Y031386D01*
X004502Y031406D01*
X004567Y031417D01*
X004581Y031417D01*
X004581Y031018D01*
X004581Y031098D02*
X004619Y031098D01*
X004619Y031217D02*
X004581Y031217D01*
X004581Y031335D02*
X004619Y031335D01*
X004848Y031335D02*
X018140Y031335D01*
X018144Y031217D02*
X004958Y031217D01*
X005007Y031098D02*
X018194Y031098D01*
X018330Y030980D02*
X005017Y030980D01*
X004994Y030861D02*
X023183Y030861D01*
X023183Y030743D02*
X004930Y030743D01*
X004416Y030624D02*
X003966Y030624D01*
X004017Y030743D02*
X004270Y030743D01*
X004206Y030861D02*
X004017Y030861D01*
X004017Y030980D02*
X004183Y030980D01*
X004193Y031098D02*
X004017Y031098D01*
X004017Y031217D02*
X004242Y031217D01*
X004352Y031335D02*
X003997Y031335D01*
X003288Y027306D02*
X000560Y027306D01*
X000560Y027188D02*
X003205Y027188D01*
X003163Y027069D02*
X000560Y027069D01*
X000560Y026951D02*
X003163Y026951D01*
X003196Y026832D02*
X000560Y026832D01*
X000560Y026714D02*
X003267Y026714D01*
X003513Y025437D02*
X003352Y025370D01*
X003229Y025247D01*
X003163Y025086D01*
X003163Y024912D01*
X003229Y024751D01*
X003352Y024628D01*
X003513Y024562D01*
X003687Y024562D01*
X003848Y024628D01*
X003971Y024751D01*
X004037Y024912D01*
X004037Y025086D01*
X003971Y025247D01*
X003848Y025370D01*
X003687Y025437D01*
X003513Y025437D01*
X003449Y025410D02*
X000560Y025410D01*
X000560Y025292D02*
X003274Y025292D01*
X003199Y025173D02*
X000560Y025173D01*
X000560Y025055D02*
X003163Y025055D01*
X003163Y024936D02*
X000560Y024936D01*
X000560Y024818D02*
X003202Y024818D01*
X003281Y024699D02*
X000560Y024699D01*
X000560Y024581D02*
X003467Y024581D01*
X003733Y024581D02*
X004467Y024581D01*
X004281Y024699D02*
X003919Y024699D01*
X003998Y024818D02*
X004202Y024818D01*
X004163Y024936D02*
X004037Y024936D01*
X004037Y025055D02*
X004163Y025055D01*
X004199Y025173D02*
X004001Y025173D01*
X003926Y025292D02*
X004274Y025292D01*
X004919Y024699D02*
X023281Y024699D01*
X023202Y024818D02*
X004998Y024818D01*
X005037Y024936D02*
X023163Y024936D01*
X023163Y025055D02*
X005037Y025055D01*
X005001Y025173D02*
X023199Y025173D01*
X023274Y025292D02*
X004926Y025292D01*
X004326Y024344D02*
X003874Y024344D01*
X003980Y024225D02*
X004220Y024225D01*
X004171Y024107D02*
X004029Y024107D01*
X004037Y023988D02*
X004163Y023988D01*
X004180Y023870D02*
X004020Y023870D01*
X003971Y023751D02*
X004229Y023751D01*
X004348Y023633D02*
X003852Y023633D01*
X003786Y023396D02*
X004414Y023396D01*
X004259Y023277D02*
X003941Y023277D01*
X004007Y023159D02*
X004193Y023159D01*
X004163Y023040D02*
X004037Y023040D01*
X004037Y022922D02*
X004163Y022922D01*
X004208Y022803D02*
X003992Y022803D01*
X003296Y022685D02*
X000560Y022685D01*
X000560Y022803D02*
X003208Y022803D01*
X003163Y022922D02*
X000560Y022922D01*
X000560Y023040D02*
X003163Y023040D01*
X003193Y023159D02*
X000560Y023159D01*
X000560Y023277D02*
X003259Y023277D01*
X003311Y022329D02*
X000560Y022329D01*
X000560Y022211D02*
X003214Y022211D01*
X003165Y022092D02*
X000560Y022092D01*
X000560Y021974D02*
X003163Y021974D01*
X003186Y021855D02*
X000560Y021855D01*
X000560Y021737D02*
X003244Y021737D01*
X003282Y018300D02*
X000560Y018300D01*
X000560Y018182D02*
X003202Y018182D01*
X003163Y018063D02*
X000560Y018063D01*
X000560Y017945D02*
X003163Y017945D01*
X003198Y017826D02*
X000560Y017826D01*
X000560Y017708D02*
X003273Y017708D01*
X003866Y017352D02*
X004334Y017352D01*
X004224Y017234D02*
X003976Y017234D01*
X004025Y017115D02*
X004175Y017115D01*
X004163Y016997D02*
X004037Y016997D01*
X004023Y016878D02*
X004177Y016878D01*
X004226Y016760D02*
X003974Y016760D01*
X003861Y016641D02*
X004339Y016641D01*
X004435Y016404D02*
X003765Y016404D01*
X003932Y016286D02*
X004268Y016286D01*
X004196Y016167D02*
X004004Y016167D01*
X004037Y016049D02*
X004163Y016049D01*
X004163Y015930D02*
X004037Y015930D01*
X003996Y015812D02*
X004204Y015812D01*
X004287Y015693D02*
X003913Y015693D01*
X003287Y015693D02*
X000560Y015693D01*
X000560Y015812D02*
X003204Y015812D01*
X003163Y015930D02*
X000560Y015930D01*
X000560Y016049D02*
X003163Y016049D01*
X003196Y016167D02*
X000560Y016167D01*
X000560Y016286D02*
X003268Y016286D01*
X003435Y016404D02*
X000560Y016404D01*
X000560Y031454D02*
X018174Y031454D01*
X018200Y031572D02*
X000560Y031572D01*
X000560Y031691D02*
X018200Y031691D01*
X018200Y031809D02*
X000560Y031809D01*
X000560Y031928D02*
X018200Y031928D01*
X018200Y032046D02*
X000560Y032046D01*
X000560Y032165D02*
X018166Y032165D01*
X018140Y032283D02*
X000560Y032283D01*
X000560Y032402D02*
X018153Y032402D01*
X018212Y032520D02*
X000560Y032520D01*
X001537Y037744D02*
X001813Y037744D01*
X002081Y037815D01*
X002320Y037954D01*
X002516Y038149D01*
X002654Y038389D01*
X002726Y038656D01*
X002726Y038933D01*
X002654Y039200D01*
X002516Y039439D01*
X002320Y039635D01*
X002081Y039773D01*
X001813Y039845D01*
X001537Y039845D01*
X001270Y039773D01*
X001030Y039635D01*
X000834Y039439D01*
X000696Y039200D01*
X000625Y038933D01*
X000625Y038656D01*
X000696Y038389D01*
X000834Y038149D01*
X001030Y037954D01*
X001270Y037815D01*
X001537Y037744D01*
X001205Y037853D02*
X000560Y037853D01*
X000560Y037971D02*
X001013Y037971D01*
X000894Y038090D02*
X000560Y038090D01*
X000560Y038208D02*
X000800Y038208D01*
X000732Y038327D02*
X000560Y038327D01*
X000560Y038445D02*
X000681Y038445D01*
X000649Y038564D02*
X000560Y038564D01*
X000560Y038682D02*
X000625Y038682D01*
X000625Y038801D02*
X000560Y038801D01*
X000560Y038919D02*
X000625Y038919D01*
X000653Y039038D02*
X000560Y039038D01*
X000560Y039156D02*
X000685Y039156D01*
X000739Y039275D02*
X000560Y039275D01*
X000560Y039393D02*
X000808Y039393D01*
X000907Y039512D02*
X000560Y039512D01*
X000560Y039630D02*
X001025Y039630D01*
X001227Y039749D02*
X000560Y039749D01*
X002123Y039749D02*
X028570Y039749D01*
X028368Y039630D02*
X002325Y039630D01*
X002443Y039512D02*
X028250Y039512D01*
X028151Y039393D02*
X002542Y039393D01*
X002611Y039275D02*
X028082Y039275D01*
X028028Y039156D02*
X002666Y039156D01*
X002698Y039038D02*
X027996Y039038D01*
X027968Y038919D02*
X002726Y038919D01*
X002726Y038801D02*
X027968Y038801D01*
X027968Y038682D02*
X002726Y038682D01*
X002701Y038564D02*
X027992Y038564D01*
X028024Y038445D02*
X002669Y038445D01*
X002618Y038327D02*
X028075Y038327D01*
X028144Y038208D02*
X002550Y038208D01*
X002456Y038090D02*
X028237Y038090D01*
X028356Y037971D02*
X002338Y037971D01*
X002145Y037853D02*
X028548Y037853D01*
X026640Y031454D02*
X026560Y031454D01*
X026560Y031335D02*
X026640Y031335D01*
X026640Y031217D02*
X026560Y031217D01*
X026560Y031098D02*
X026640Y031098D01*
X026225Y030624D02*
X024784Y030624D01*
X024619Y030624D02*
X024581Y030624D01*
X024581Y030582D02*
X024581Y030980D01*
X024183Y030980D01*
X024183Y030966D01*
X024193Y030901D01*
X024213Y030839D01*
X024243Y030780D01*
X024282Y030727D01*
X024328Y030681D01*
X024381Y030642D01*
X024440Y030612D01*
X024502Y030592D01*
X024567Y030582D01*
X024581Y030582D01*
X024581Y030743D02*
X024619Y030743D01*
X024619Y030861D02*
X024581Y030861D01*
X024581Y030980D02*
X024619Y030980D01*
X024581Y031018D02*
X024183Y031018D01*
X024183Y031032D01*
X024193Y031097D01*
X024213Y031159D01*
X024243Y031218D01*
X024282Y031271D01*
X024328Y031317D01*
X024381Y031356D01*
X024440Y031386D01*
X024502Y031406D01*
X024567Y031417D01*
X024581Y031417D01*
X024581Y031018D01*
X024581Y031098D02*
X024619Y031098D01*
X024619Y031217D02*
X024581Y031217D01*
X024581Y031335D02*
X024619Y031335D01*
X024352Y031335D02*
X023997Y031335D01*
X024017Y031217D02*
X024242Y031217D01*
X024193Y031098D02*
X024017Y031098D01*
X024017Y030980D02*
X023619Y030980D01*
X023619Y030582D01*
X023879Y030582D01*
X023919Y030592D01*
X023956Y030614D01*
X023986Y030643D01*
X024007Y030680D01*
X024017Y030721D01*
X024017Y030980D01*
X024183Y030980D01*
X024206Y030861D02*
X024017Y030861D01*
X024017Y030743D02*
X024270Y030743D01*
X024416Y030624D02*
X023966Y030624D01*
X023806Y030387D02*
X024394Y030387D01*
X024251Y030269D02*
X023949Y030269D01*
X024011Y030150D02*
X024189Y030150D01*
X024163Y030032D02*
X024037Y030032D01*
X024037Y029913D02*
X024163Y029913D01*
X024211Y029795D02*
X023989Y029795D01*
X023896Y029676D02*
X024304Y029676D01*
X024303Y029321D02*
X023897Y029321D01*
X023989Y029202D02*
X024211Y029202D01*
X024163Y029084D02*
X024037Y029084D01*
X024037Y028965D02*
X024163Y028965D01*
X024190Y028847D02*
X024010Y028847D01*
X023948Y028728D02*
X024252Y028728D01*
X024397Y028610D02*
X023803Y028610D01*
X023841Y028373D02*
X024359Y028373D01*
X024352Y028370D02*
X024229Y028247D01*
X024163Y028086D01*
X024163Y027912D01*
X024229Y027751D01*
X024352Y027628D01*
X024513Y027562D01*
X024687Y027562D01*
X024848Y027628D01*
X024971Y027751D01*
X025037Y027912D01*
X025037Y028086D01*
X024971Y028247D01*
X024848Y028370D01*
X024687Y028437D01*
X024513Y028437D01*
X024352Y028370D01*
X024236Y028254D02*
X023964Y028254D01*
X024017Y028136D02*
X024183Y028136D01*
X024163Y028017D02*
X024037Y028017D01*
X024032Y027899D02*
X024168Y027899D01*
X024217Y027780D02*
X023983Y027780D01*
X023881Y027662D02*
X024319Y027662D01*
X024484Y027425D02*
X023716Y027425D01*
X023912Y027306D02*
X024288Y027306D01*
X024205Y027188D02*
X023995Y027188D01*
X024037Y027069D02*
X024163Y027069D01*
X024163Y026951D02*
X024037Y026951D01*
X024004Y026832D02*
X024196Y026832D01*
X024267Y026714D02*
X023933Y026714D01*
X023768Y026595D02*
X024432Y026595D01*
X024513Y026437D02*
X024352Y026370D01*
X024229Y026247D01*
X024163Y026086D01*
X024163Y025912D01*
X024229Y025751D01*
X024352Y025628D01*
X024513Y025562D01*
X024687Y025562D01*
X024848Y025628D01*
X024971Y025751D01*
X025037Y025912D01*
X025037Y026086D01*
X024971Y026247D01*
X024848Y026370D01*
X024687Y026437D01*
X024513Y026437D01*
X024340Y026358D02*
X023860Y026358D01*
X023974Y026240D02*
X024226Y026240D01*
X024177Y026121D02*
X024023Y026121D01*
X024037Y026003D02*
X024163Y026003D01*
X024174Y025884D02*
X024026Y025884D01*
X023977Y025766D02*
X024223Y025766D01*
X024333Y025647D02*
X023867Y025647D01*
X023751Y025410D02*
X024449Y025410D01*
X024274Y025292D02*
X023926Y025292D01*
X024001Y025173D02*
X024199Y025173D01*
X024163Y025055D02*
X024037Y025055D01*
X024037Y024936D02*
X024163Y024936D01*
X024202Y024818D02*
X023998Y024818D01*
X023919Y024699D02*
X024281Y024699D01*
X024867Y025647D02*
X026174Y025647D01*
X026101Y025766D02*
X024977Y025766D01*
X025026Y025884D02*
X026052Y025884D01*
X026050Y026003D02*
X025037Y026003D01*
X025023Y026121D02*
X026055Y026121D01*
X026104Y026240D02*
X024974Y026240D01*
X024860Y026358D02*
X026181Y026358D01*
X026160Y027662D02*
X024881Y027662D01*
X024983Y027780D02*
X026095Y027780D01*
X026050Y027899D02*
X025032Y027899D01*
X025037Y028017D02*
X026050Y028017D01*
X026061Y028136D02*
X025017Y028136D01*
X024964Y028254D02*
X026110Y028254D01*
X026196Y028373D02*
X024841Y028373D01*
X024930Y030743D02*
X026136Y030743D01*
X026088Y030861D02*
X024994Y030861D01*
X023619Y030861D02*
X023581Y030861D01*
X023581Y030743D02*
X023619Y030743D01*
X023619Y030624D02*
X023581Y030624D01*
X023581Y030980D02*
X023619Y030980D01*
X023581Y031018D02*
X023183Y031018D01*
X023183Y031278D01*
X023193Y031318D01*
X023214Y031355D01*
X023244Y031385D01*
X023281Y031406D01*
X023321Y031417D01*
X023581Y031417D01*
X023581Y031018D01*
X023581Y031098D02*
X023619Y031098D01*
X023619Y031217D02*
X023581Y031217D01*
X023581Y031335D02*
X023619Y031335D01*
X023203Y031335D02*
X018860Y031335D01*
X018856Y031217D02*
X023183Y031217D01*
X023183Y031098D02*
X018806Y031098D01*
X018670Y030980D02*
X023183Y030980D01*
X021068Y034298D02*
X020732Y034298D01*
X020836Y034416D02*
X020964Y034416D01*
X020915Y034535D02*
X020885Y034535D01*
X020068Y034298D02*
X015799Y034298D01*
X015814Y034309D02*
X015868Y034362D01*
X015913Y034424D01*
X015947Y034491D01*
X015971Y034564D01*
X015982Y034639D01*
X015982Y034952D01*
X015548Y034952D01*
X015548Y034196D01*
X015613Y034206D01*
X015685Y034229D01*
X015753Y034264D01*
X015814Y034309D01*
X015907Y034416D02*
X019964Y034416D01*
X019915Y034535D02*
X015961Y034535D01*
X015982Y034653D02*
X019898Y034653D01*
X019898Y034772D02*
X015982Y034772D01*
X015982Y034890D02*
X019898Y034890D01*
X015548Y034890D02*
X015452Y034890D01*
X015452Y034772D02*
X015548Y034772D01*
X015548Y034653D02*
X015452Y034653D01*
X015452Y034535D02*
X015548Y034535D01*
X015548Y034416D02*
X015452Y034416D01*
X015452Y034298D02*
X015548Y034298D01*
X015201Y034298D02*
X014832Y034298D01*
X014936Y034416D02*
X015093Y034416D01*
X015039Y034535D02*
X014985Y034535D01*
X015002Y034653D02*
X015017Y034653D01*
X015002Y034772D02*
X015017Y034772D01*
X015002Y034890D02*
X015017Y034890D01*
X015452Y035127D02*
X015548Y035127D01*
X015548Y035246D02*
X015452Y035246D01*
X015452Y035364D02*
X015548Y035364D01*
X015548Y035483D02*
X015452Y035483D01*
X015452Y035601D02*
X015548Y035601D01*
X015548Y035720D02*
X015452Y035720D01*
X009187Y035720D02*
X008813Y035720D01*
X008928Y035601D02*
X009072Y035601D01*
X009023Y035483D02*
X008977Y035483D01*
D20*
X009700Y033799D03*
X010500Y033499D03*
X006700Y033499D03*
X005900Y033899D03*
X002800Y033999D03*
X002100Y033599D03*
X001750Y029999D03*
X018500Y031299D03*
X018500Y032299D03*
X021600Y033799D03*
X022400Y033499D03*
X025500Y033799D03*
X026300Y033499D03*
X029100Y033399D03*
X015000Y006299D03*
X007300Y006299D03*
X007100Y005549D03*
X005900Y005549D03*
D21*
X018500Y031299D02*
X018500Y032299D01*
X004700Y034999D02*
X003800Y034999D01*
X002800Y033999D01*
D22*
X003600Y029999D02*
X001750Y029999D01*
X005900Y005549D02*
X007100Y005549D01*
M02*
