G75*
G70*
%OFA0B0*%
%FSLAX24Y24*%
%IPPOS*%
%LPD*%
%AMOC8*
5,1,8,0,0,1.08239X$1,22.5*
%
%ADD10C,0.0100*%
%ADD11C,0.0150*%
%ADD12C,0.0180*%
%ADD13R,0.0197X0.0268*%
%ADD14C,0.0000*%
%ADD15C,0.0001*%
%ADD16R,0.0515X0.0515*%
%ADD17C,0.0515*%
%ADD18C,0.0860*%
%ADD19R,0.0283X0.0701*%
%ADD20R,0.0394X0.0433*%
%ADD21C,0.0600*%
%ADD22R,0.0591X0.0512*%
%ADD23R,0.0433X0.0394*%
%ADD24R,0.0594X0.0594*%
%ADD25C,0.0700*%
%ADD26C,0.0645*%
%ADD27R,0.0740X0.0740*%
%ADD28C,0.0740*%
%ADD29C,0.0360*%
%ADD30C,0.0160*%
%ADD31C,0.0120*%
%ADD32C,0.0240*%
%ADD33C,0.0760*%
%ADD34C,0.0320*%
%ADD35C,0.0400*%
%ADD36C,0.0500*%
%ADD37C,0.0700*%
%ADD38C,0.0200*%
D10*
X000550Y006349D02*
X000780Y006349D01*
X000857Y006426D01*
X000857Y006503D01*
X000780Y006579D01*
X000550Y006579D01*
X000550Y006349D02*
X000550Y006809D01*
X000780Y006809D01*
X000857Y006733D01*
X000857Y006656D01*
X000780Y006579D01*
X001066Y006349D02*
X001373Y006349D01*
X001581Y006349D02*
X001581Y006809D01*
X001658Y006579D02*
X001888Y006349D01*
X001581Y006503D02*
X001888Y006809D01*
X001066Y006809D02*
X001066Y006349D01*
X001066Y013949D02*
X001066Y014409D01*
X001296Y014409D01*
X001373Y014333D01*
X001373Y014179D01*
X001296Y014103D01*
X001066Y014103D01*
X001219Y014103D02*
X001373Y013949D01*
X001581Y013949D02*
X001581Y014409D01*
X001888Y013949D01*
X001888Y014409D01*
X000857Y014333D02*
X000780Y014409D01*
X000627Y014409D01*
X000550Y014333D01*
X000550Y014026D01*
X000627Y013949D01*
X000780Y013949D01*
X000857Y014026D01*
X000857Y014179D01*
X000703Y014179D01*
X008503Y033826D02*
X008503Y034133D01*
X008350Y033979D02*
X008657Y033979D01*
X011043Y037249D02*
X010890Y037403D01*
X011350Y037403D01*
X011350Y037556D02*
X011350Y037249D01*
X011273Y038280D02*
X010966Y038280D01*
X010890Y038357D01*
X010890Y038511D01*
X010966Y038587D01*
X011120Y038587D02*
X011120Y038434D01*
X011120Y038587D02*
X011273Y038587D01*
X011350Y038511D01*
X011350Y038357D01*
X011273Y038280D01*
X011197Y038796D02*
X011043Y038949D01*
X011043Y039026D01*
X011043Y039226D02*
X011043Y039456D01*
X011120Y039533D01*
X011350Y039533D01*
X011350Y039226D02*
X011043Y039226D01*
X011043Y038796D02*
X011350Y038796D01*
X013466Y035387D02*
X013390Y035311D01*
X013390Y035157D01*
X013466Y035080D01*
X013466Y035387D02*
X013543Y035387D01*
X013850Y035080D01*
X013850Y035387D01*
X013850Y034872D02*
X013850Y034565D01*
X013850Y034718D02*
X013390Y034718D01*
X013543Y034565D01*
X013620Y034356D02*
X013620Y034049D01*
X013466Y034203D02*
X013773Y034203D01*
X016090Y034279D02*
X016090Y034126D01*
X016166Y034049D01*
X016473Y034049D01*
X016550Y034126D01*
X016550Y034279D01*
X016473Y034356D01*
X016320Y034356D01*
X016320Y034203D01*
X016166Y034356D02*
X016090Y034279D01*
X016090Y034565D02*
X016550Y034872D01*
X016090Y034872D01*
X016090Y035080D02*
X016090Y035311D01*
X016166Y035387D01*
X016473Y035387D01*
X016550Y035311D01*
X016550Y035080D01*
X016090Y035080D01*
X016090Y034565D02*
X016550Y034565D01*
X018566Y037249D02*
X018490Y037326D01*
X018490Y037479D01*
X018566Y037556D01*
X018643Y037556D01*
X018950Y037249D01*
X018950Y037556D01*
X018950Y038280D02*
X018490Y038280D01*
X018490Y038511D01*
X018566Y038587D01*
X018643Y038587D01*
X018720Y038511D01*
X018720Y038280D01*
X018950Y038280D02*
X018950Y038511D01*
X018873Y038587D01*
X018797Y038587D01*
X018720Y038511D01*
X018950Y038796D02*
X018950Y038949D01*
X018950Y038873D02*
X018490Y038873D01*
X018490Y038796D01*
X018643Y039140D02*
X018873Y039140D01*
X018950Y039216D01*
X018950Y039447D01*
X018643Y039447D01*
X018720Y039655D02*
X018643Y039732D01*
X018643Y039886D01*
X018720Y039962D01*
X018797Y039962D01*
X018797Y039655D01*
X018873Y039655D02*
X018720Y039655D01*
X018873Y039655D02*
X018950Y039732D01*
X018950Y039886D01*
X017200Y038984D02*
X016740Y038984D01*
X016740Y039137D02*
X016740Y038830D01*
X016893Y038622D02*
X017200Y038622D01*
X016970Y038622D02*
X016970Y038315D01*
X016893Y038315D02*
X017200Y038315D01*
X017123Y038106D02*
X017200Y038029D01*
X017200Y037799D01*
X016740Y037799D01*
X016740Y038029D01*
X016816Y038106D01*
X016893Y038106D01*
X016970Y038029D01*
X016970Y037799D01*
X016970Y038029D02*
X017047Y038106D01*
X017123Y038106D01*
X016893Y038315D02*
X016740Y038468D01*
X016893Y038622D01*
X020403Y034133D02*
X020403Y033826D01*
X020250Y033979D02*
X020557Y033979D01*
X022267Y034900D02*
X022267Y034966D01*
X022300Y034999D01*
X022280Y034999D01*
X022272Y034991D01*
X024150Y033979D02*
X024457Y033979D01*
X024303Y034133D02*
X024303Y033826D01*
X025900Y034699D02*
X025916Y034715D01*
X025916Y034991D01*
X026172Y034991D02*
X026172Y034727D01*
X026200Y034699D01*
X026400Y034699D02*
X026428Y034727D01*
X026428Y034991D01*
X026666Y036949D02*
X026590Y037026D01*
X026590Y037179D01*
X026666Y037256D01*
X026743Y037256D01*
X026820Y037179D01*
X026897Y037256D01*
X026973Y037256D01*
X027050Y037179D01*
X027050Y037026D01*
X026973Y036949D01*
X026820Y037103D02*
X026820Y037179D01*
X026590Y037980D02*
X027050Y037980D01*
X026897Y038134D01*
X027050Y038287D01*
X026590Y038287D01*
X026590Y038496D02*
X027050Y038496D01*
X026820Y038496D02*
X026743Y038573D01*
X026743Y038726D01*
X026820Y038803D01*
X027050Y038803D01*
X027050Y039012D02*
X027050Y039165D01*
X027050Y039088D02*
X026743Y039088D01*
X026743Y039012D01*
X026590Y039088D02*
X026513Y039088D01*
X026743Y039355D02*
X026743Y039509D01*
X026666Y039432D02*
X026973Y039432D01*
X027050Y039509D01*
X026973Y039699D02*
X026820Y039699D01*
X026743Y039776D01*
X026743Y039929D01*
X026820Y040006D01*
X026897Y040006D01*
X026897Y039699D01*
X026973Y039699D02*
X027050Y039776D01*
X027050Y039929D01*
X004157Y035379D02*
X003850Y035379D01*
X004003Y035226D02*
X004003Y035533D01*
X003450Y036126D02*
X003373Y036049D01*
X003066Y036356D01*
X003373Y036356D01*
X003450Y036279D01*
X003450Y036126D01*
X003373Y036049D02*
X003066Y036049D01*
X002990Y036126D01*
X002990Y036279D01*
X003066Y036356D01*
X002990Y037080D02*
X002990Y037311D01*
X003066Y037387D01*
X003220Y037387D01*
X003297Y037311D01*
X003297Y037080D01*
X003450Y037080D02*
X002990Y037080D01*
X003297Y037234D02*
X003450Y037387D01*
X003373Y037596D02*
X003450Y037673D01*
X003450Y037826D01*
X003297Y037903D02*
X003297Y037596D01*
X003373Y037596D02*
X003220Y037596D01*
X003143Y037673D01*
X003143Y037826D01*
X003220Y037903D01*
X003297Y037903D01*
X003373Y038112D02*
X003220Y038112D01*
X003143Y038188D01*
X003143Y038419D01*
X002990Y038419D02*
X003450Y038419D01*
X003450Y038188D01*
X003373Y038112D01*
D11*
X028146Y013917D02*
X028264Y013917D01*
X028501Y013917D02*
X028975Y013917D01*
X028975Y013799D02*
X028975Y014036D01*
X028857Y014327D02*
X028975Y014445D01*
X028975Y014682D01*
X028857Y014800D01*
X028620Y014800D01*
X028501Y014682D01*
X028501Y014445D01*
X028620Y014327D01*
X028857Y014327D01*
X028501Y013917D02*
X028501Y013799D01*
X028501Y013508D02*
X028501Y013271D01*
X028383Y013389D02*
X028857Y013389D01*
X028975Y013508D01*
X028975Y012953D02*
X028975Y012597D01*
X028857Y012479D01*
X028620Y012479D01*
X028501Y012597D01*
X028501Y012953D01*
X028501Y012161D02*
X028975Y012161D01*
X028975Y011805D01*
X028857Y011687D01*
X028501Y011687D01*
X028501Y011369D02*
X028501Y011014D01*
X028620Y010895D01*
X028857Y010895D01*
X028975Y011014D01*
X028975Y011369D01*
X028264Y011369D01*
X028620Y010577D02*
X028501Y010459D01*
X028501Y010222D01*
X028620Y010103D01*
X028857Y010103D01*
X028975Y010222D01*
X028975Y010459D01*
X028857Y010577D01*
X028620Y010577D01*
X028501Y009799D02*
X028501Y009680D01*
X028738Y009443D01*
X028975Y009443D02*
X028501Y009443D01*
X028383Y009125D02*
X028264Y009007D01*
X028264Y008651D01*
X028975Y008651D01*
X028738Y008651D02*
X028738Y009007D01*
X028620Y009125D01*
X028383Y009125D01*
X028501Y007555D02*
X028738Y007200D01*
X028975Y007555D01*
X028975Y007200D02*
X028264Y007200D01*
X028620Y006882D02*
X028501Y006763D01*
X028501Y006408D01*
X028975Y006408D01*
X028975Y006090D02*
X028975Y005734D01*
X028857Y005616D01*
X028738Y005734D01*
X028738Y006090D01*
X028620Y006090D02*
X028975Y006090D01*
X028620Y006090D02*
X028501Y005971D01*
X028501Y005734D01*
X028620Y005298D02*
X028620Y004824D01*
X028975Y004824D02*
X028264Y004824D01*
X028264Y005298D02*
X028975Y005298D01*
X028975Y006882D02*
X028620Y006882D01*
X028501Y015118D02*
X028501Y015474D01*
X028620Y015592D01*
X028975Y015592D01*
X028975Y015910D02*
X028975Y016266D01*
X028857Y016384D01*
X028738Y016266D01*
X028738Y016029D01*
X028620Y015910D01*
X028501Y016029D01*
X028501Y016384D01*
X028501Y015118D02*
X028975Y015118D01*
D12*
X029160Y018139D02*
X028339Y018139D01*
X028339Y018686D01*
X028339Y019060D02*
X028339Y019197D01*
X029160Y019197D01*
X029160Y019333D02*
X029160Y019060D01*
X028750Y018413D02*
X028750Y018139D01*
X029023Y019674D02*
X028886Y019810D01*
X028886Y020221D01*
X028750Y020221D02*
X029160Y020221D01*
X029160Y019810D01*
X029023Y019674D01*
X028613Y019810D02*
X028613Y020084D01*
X028750Y020221D01*
X028750Y020594D02*
X028613Y020731D01*
X028613Y021142D01*
X028886Y021005D02*
X028886Y020731D01*
X028750Y020594D01*
X029160Y020594D02*
X029160Y021005D01*
X029023Y021142D01*
X028886Y021005D01*
X028750Y021515D02*
X028613Y021652D01*
X028613Y021926D01*
X028750Y022062D01*
X029160Y022062D01*
X029160Y021515D02*
X028339Y021515D01*
X028750Y022436D02*
X028750Y022983D01*
X028750Y023357D02*
X029023Y023357D01*
X029160Y023494D01*
X029160Y023767D01*
X029023Y023904D01*
X028750Y023904D01*
X028613Y023767D01*
X028613Y023494D01*
X028750Y023357D01*
X028750Y024278D02*
X028750Y024825D01*
X029160Y025198D02*
X028339Y025198D01*
X028613Y025472D01*
X028339Y025746D01*
X029160Y025746D01*
X029023Y026119D02*
X028886Y026256D01*
X028886Y026666D01*
X028750Y026666D02*
X029160Y026666D01*
X029160Y026256D01*
X029023Y026119D01*
X028613Y026256D02*
X028613Y026530D01*
X028750Y026666D01*
X028613Y027040D02*
X028613Y027314D01*
X028476Y027177D02*
X029023Y027177D01*
X029160Y027314D01*
X029160Y027654D02*
X029160Y027927D01*
X029160Y027791D02*
X028613Y027791D01*
X028613Y027654D01*
X028339Y027791D02*
X028203Y027791D01*
X028750Y028268D02*
X028613Y028404D01*
X028613Y028815D01*
X029160Y028815D02*
X029160Y028404D01*
X029023Y028268D01*
X028750Y028268D01*
D13*
X026684Y033861D03*
X026428Y033861D03*
X026172Y033861D03*
X025916Y033861D03*
X025916Y034991D03*
X026172Y034991D03*
X026428Y034991D03*
X026684Y034991D03*
X022784Y034991D03*
X022528Y034991D03*
X022272Y034991D03*
X022016Y034991D03*
X022016Y033861D03*
X022272Y033861D03*
X022528Y033861D03*
X022784Y033861D03*
X010884Y033861D03*
X010628Y033861D03*
X010372Y033861D03*
X010116Y033861D03*
X010116Y034991D03*
X010372Y034991D03*
X010628Y034991D03*
X010884Y034991D03*
X007084Y034991D03*
X006828Y034991D03*
X006572Y034991D03*
X006316Y034991D03*
X006316Y033861D03*
X006572Y033861D03*
X006828Y033861D03*
X007084Y033861D03*
D14*
X007222Y034196D02*
X007222Y034987D01*
X007094Y034987D01*
X007094Y034964D01*
X006306Y034964D01*
X006306Y034987D01*
X006178Y034987D01*
X006178Y034196D01*
X007222Y034196D01*
X009978Y034196D02*
X011022Y034196D01*
X011022Y034987D01*
X010894Y034987D01*
X010894Y034964D01*
X010106Y034964D01*
X010106Y034987D01*
X009978Y034987D01*
X009978Y034196D01*
X021878Y034196D02*
X022922Y034196D01*
X022922Y034987D01*
X022794Y034987D01*
X022794Y034964D01*
X022006Y034964D01*
X022006Y034987D01*
X021878Y034987D01*
X021878Y034196D01*
X025778Y034196D02*
X026822Y034196D01*
X026822Y034987D01*
X026694Y034987D01*
X026694Y034964D01*
X025906Y034964D01*
X025906Y034987D01*
X025778Y034987D01*
X025778Y034196D01*
D15*
X026822Y034196D01*
X026822Y034197D02*
X025778Y034197D01*
X025778Y034198D02*
X026822Y034198D01*
X026822Y034199D02*
X025778Y034199D01*
X025778Y034200D02*
X026822Y034200D01*
X026822Y034201D02*
X025778Y034201D01*
X025778Y034202D02*
X026822Y034202D01*
X026822Y034203D02*
X025778Y034203D01*
X025778Y034204D02*
X026822Y034204D01*
X026822Y034205D02*
X025778Y034205D01*
X025778Y034206D02*
X026822Y034206D01*
X026822Y034207D02*
X025778Y034207D01*
X025778Y034208D02*
X026822Y034208D01*
X026822Y034209D02*
X025778Y034209D01*
X025778Y034210D02*
X026822Y034210D01*
X026822Y034211D02*
X025778Y034211D01*
X025778Y034212D02*
X026822Y034212D01*
X026822Y034213D02*
X025778Y034213D01*
X025778Y034214D02*
X026822Y034214D01*
X026822Y034215D02*
X025778Y034215D01*
X025778Y034216D02*
X026822Y034216D01*
X026822Y034217D02*
X025778Y034217D01*
X025778Y034218D02*
X026822Y034218D01*
X026822Y034219D02*
X025778Y034219D01*
X025778Y034220D02*
X026822Y034220D01*
X026822Y034221D02*
X025778Y034221D01*
X025778Y034222D02*
X026822Y034222D01*
X026822Y034223D02*
X025778Y034223D01*
X025778Y034224D02*
X026822Y034224D01*
X026822Y034225D02*
X025778Y034225D01*
X025778Y034226D02*
X026822Y034226D01*
X026822Y034227D02*
X025778Y034227D01*
X025778Y034228D02*
X026822Y034228D01*
X026822Y034229D02*
X025778Y034229D01*
X025778Y034230D02*
X026822Y034230D01*
X026822Y034231D02*
X025778Y034231D01*
X025778Y034232D02*
X026822Y034232D01*
X026822Y034233D02*
X025778Y034233D01*
X025778Y034234D02*
X026822Y034234D01*
X026822Y034235D02*
X025778Y034235D01*
X025778Y034236D02*
X026822Y034236D01*
X026822Y034237D02*
X025778Y034237D01*
X025778Y034238D02*
X026822Y034238D01*
X026822Y034239D02*
X025778Y034239D01*
X025778Y034240D02*
X026822Y034240D01*
X026822Y034241D02*
X025778Y034241D01*
X025778Y034242D02*
X026822Y034242D01*
X026822Y034243D02*
X025778Y034243D01*
X025778Y034244D02*
X026822Y034244D01*
X026822Y034245D02*
X025778Y034245D01*
X025778Y034246D02*
X026822Y034246D01*
X026822Y034247D02*
X025778Y034247D01*
X025778Y034248D02*
X026822Y034248D01*
X026822Y034249D02*
X025778Y034249D01*
X025778Y034250D02*
X026822Y034250D01*
X026822Y034251D02*
X025778Y034251D01*
X025778Y034252D02*
X026822Y034252D01*
X026822Y034253D02*
X025778Y034253D01*
X025778Y034254D02*
X026822Y034254D01*
X026822Y034255D02*
X025778Y034255D01*
X025778Y034256D02*
X026822Y034256D01*
X026822Y034257D02*
X025778Y034257D01*
X025778Y034258D02*
X026822Y034258D01*
X026822Y034259D02*
X025778Y034259D01*
X025778Y034260D02*
X026822Y034260D01*
X026822Y034261D02*
X025778Y034261D01*
X025778Y034262D02*
X026822Y034262D01*
X026822Y034263D02*
X025778Y034263D01*
X025778Y034264D02*
X026822Y034264D01*
X026822Y034265D02*
X025778Y034265D01*
X025778Y034266D02*
X026822Y034266D01*
X026822Y034267D02*
X025778Y034267D01*
X025778Y034268D02*
X026822Y034268D01*
X026822Y034269D02*
X025778Y034269D01*
X025778Y034270D02*
X026822Y034270D01*
X026822Y034271D02*
X025778Y034271D01*
X025778Y034272D02*
X026822Y034272D01*
X026822Y034273D02*
X025778Y034273D01*
X025778Y034274D02*
X026822Y034274D01*
X026822Y034275D02*
X025778Y034275D01*
X025778Y034276D02*
X026822Y034276D01*
X026822Y034277D02*
X025778Y034277D01*
X025778Y034278D02*
X026822Y034278D01*
X026822Y034279D02*
X025778Y034279D01*
X025778Y034280D02*
X026822Y034280D01*
X026822Y034281D02*
X025778Y034281D01*
X025778Y034282D02*
X026822Y034282D01*
X026822Y034283D02*
X025778Y034283D01*
X025778Y034284D02*
X026822Y034284D01*
X026822Y034285D02*
X025778Y034285D01*
X025778Y034286D02*
X026822Y034286D01*
X026822Y034287D02*
X025778Y034287D01*
X025778Y034288D02*
X026822Y034288D01*
X026822Y034289D02*
X025778Y034289D01*
X025778Y034290D02*
X026822Y034290D01*
X026822Y034291D02*
X025778Y034291D01*
X025778Y034292D02*
X026822Y034292D01*
X026822Y034293D02*
X025778Y034293D01*
X025778Y034294D02*
X026822Y034294D01*
X026822Y034295D02*
X025778Y034295D01*
X025778Y034296D02*
X026822Y034296D01*
X026822Y034297D02*
X025778Y034297D01*
X025778Y034298D02*
X026822Y034298D01*
X026822Y034299D02*
X025778Y034299D01*
X025778Y034300D02*
X026822Y034300D01*
X026822Y034301D02*
X025778Y034301D01*
X025778Y034302D02*
X026822Y034302D01*
X026822Y034303D02*
X025778Y034303D01*
X025778Y034304D02*
X026822Y034304D01*
X026822Y034305D02*
X025778Y034305D01*
X025778Y034306D02*
X026822Y034306D01*
X026822Y034307D02*
X025778Y034307D01*
X025778Y034308D02*
X026822Y034308D01*
X026822Y034309D02*
X025778Y034309D01*
X025778Y034310D02*
X026822Y034310D01*
X026822Y034311D02*
X025778Y034311D01*
X025778Y034312D02*
X026822Y034312D01*
X026822Y034313D02*
X025778Y034313D01*
X025778Y034314D02*
X026822Y034314D01*
X026822Y034315D02*
X025778Y034315D01*
X025778Y034316D02*
X026822Y034316D01*
X026822Y034317D02*
X025778Y034317D01*
X025778Y034318D02*
X026822Y034318D01*
X026822Y034319D02*
X025778Y034319D01*
X025778Y034320D02*
X026822Y034320D01*
X026822Y034321D02*
X025778Y034321D01*
X025778Y034322D02*
X026822Y034322D01*
X026822Y034323D02*
X025778Y034323D01*
X025778Y034324D02*
X026822Y034324D01*
X026822Y034325D02*
X025778Y034325D01*
X025778Y034326D02*
X026822Y034326D01*
X026822Y034327D02*
X025778Y034327D01*
X025778Y034328D02*
X026822Y034328D01*
X026822Y034329D02*
X025778Y034329D01*
X025778Y034330D02*
X026822Y034330D01*
X026822Y034331D02*
X025778Y034331D01*
X025778Y034332D02*
X026822Y034332D01*
X026822Y034333D02*
X025778Y034333D01*
X025778Y034334D02*
X026822Y034334D01*
X026822Y034335D02*
X025778Y034335D01*
X025778Y034336D02*
X026822Y034336D01*
X026822Y034337D02*
X025778Y034337D01*
X025778Y034338D02*
X026822Y034338D01*
X026822Y034339D02*
X025778Y034339D01*
X025778Y034340D02*
X026822Y034340D01*
X026822Y034341D02*
X025778Y034341D01*
X025778Y034342D02*
X026822Y034342D01*
X026822Y034343D02*
X025778Y034343D01*
X025778Y034344D02*
X026822Y034344D01*
X026822Y034345D02*
X025778Y034345D01*
X025778Y034346D02*
X026822Y034346D01*
X026822Y034347D02*
X025778Y034347D01*
X025778Y034348D02*
X026822Y034348D01*
X026822Y034349D02*
X025778Y034349D01*
X025778Y034350D02*
X026822Y034350D01*
X026822Y034351D02*
X025778Y034351D01*
X025778Y034352D02*
X026822Y034352D01*
X026822Y034353D02*
X025778Y034353D01*
X025778Y034354D02*
X026822Y034354D01*
X026822Y034355D02*
X025778Y034355D01*
X025778Y034356D02*
X026822Y034356D01*
X026822Y034357D02*
X025778Y034357D01*
X025778Y034358D02*
X026822Y034358D01*
X026822Y034359D02*
X025778Y034359D01*
X025778Y034360D02*
X026822Y034360D01*
X026822Y034361D02*
X025778Y034361D01*
X025778Y034362D02*
X026822Y034362D01*
X026822Y034363D02*
X025778Y034363D01*
X025778Y034364D02*
X026822Y034364D01*
X026822Y034365D02*
X025778Y034365D01*
X025778Y034366D02*
X026822Y034366D01*
X026822Y034367D02*
X025778Y034367D01*
X025778Y034368D02*
X026822Y034368D01*
X026822Y034369D02*
X025778Y034369D01*
X025778Y034370D02*
X026822Y034370D01*
X026822Y034371D02*
X025778Y034371D01*
X025778Y034372D02*
X026822Y034372D01*
X026822Y034373D02*
X025778Y034373D01*
X025778Y034374D02*
X026822Y034374D01*
X026822Y034375D02*
X025778Y034375D01*
X025778Y034376D02*
X026822Y034376D01*
X026822Y034377D02*
X025778Y034377D01*
X025778Y034378D02*
X026822Y034378D01*
X026822Y034379D02*
X025778Y034379D01*
X025778Y034380D02*
X026822Y034380D01*
X026822Y034381D02*
X025778Y034381D01*
X025778Y034382D02*
X026822Y034382D01*
X026822Y034383D02*
X025778Y034383D01*
X025778Y034384D02*
X026822Y034384D01*
X026822Y034385D02*
X025778Y034385D01*
X025778Y034386D02*
X026822Y034386D01*
X026822Y034387D02*
X025778Y034387D01*
X025778Y034388D02*
X026822Y034388D01*
X026822Y034389D02*
X025778Y034389D01*
X025778Y034390D02*
X026822Y034390D01*
X026822Y034391D02*
X025778Y034391D01*
X025778Y034392D02*
X026822Y034392D01*
X026822Y034393D02*
X025778Y034393D01*
X025778Y034394D02*
X026822Y034394D01*
X026822Y034395D02*
X025778Y034395D01*
X025778Y034396D02*
X026822Y034396D01*
X026822Y034397D02*
X025778Y034397D01*
X025778Y034398D02*
X026822Y034398D01*
X026822Y034399D02*
X025778Y034399D01*
X025778Y034400D02*
X026822Y034400D01*
X026822Y034401D02*
X025778Y034401D01*
X025778Y034402D02*
X026822Y034402D01*
X026822Y034403D02*
X025778Y034403D01*
X025778Y034404D02*
X026822Y034404D01*
X026822Y034405D02*
X025778Y034405D01*
X025778Y034406D02*
X026822Y034406D01*
X026822Y034407D02*
X025778Y034407D01*
X025778Y034408D02*
X026822Y034408D01*
X026822Y034409D02*
X025778Y034409D01*
X025778Y034410D02*
X026822Y034410D01*
X026822Y034411D02*
X025778Y034411D01*
X025778Y034412D02*
X026822Y034412D01*
X026822Y034413D02*
X025778Y034413D01*
X025778Y034414D02*
X026822Y034414D01*
X026822Y034415D02*
X025778Y034415D01*
X025778Y034416D02*
X026822Y034416D01*
X026822Y034417D02*
X025778Y034417D01*
X025778Y034418D02*
X026822Y034418D01*
X026822Y034419D02*
X025778Y034419D01*
X025778Y034420D02*
X026822Y034420D01*
X026822Y034421D02*
X025778Y034421D01*
X025778Y034422D02*
X026822Y034422D01*
X026822Y034423D02*
X025778Y034423D01*
X025778Y034424D02*
X026822Y034424D01*
X026822Y034425D02*
X025778Y034425D01*
X025778Y034426D02*
X026822Y034426D01*
X026822Y034427D02*
X025778Y034427D01*
X025778Y034428D02*
X026822Y034428D01*
X026822Y034429D02*
X025778Y034429D01*
X025778Y034430D02*
X026822Y034430D01*
X026822Y034431D02*
X025778Y034431D01*
X025778Y034432D02*
X026822Y034432D01*
X026822Y034433D02*
X025778Y034433D01*
X025778Y034434D02*
X026822Y034434D01*
X026822Y034435D02*
X025778Y034435D01*
X025778Y034436D02*
X026822Y034436D01*
X026822Y034437D02*
X025778Y034437D01*
X025778Y034438D02*
X026822Y034438D01*
X026822Y034439D02*
X025778Y034439D01*
X025778Y034440D02*
X026822Y034440D01*
X026822Y034441D02*
X025778Y034441D01*
X025778Y034442D02*
X026822Y034442D01*
X026822Y034443D02*
X025778Y034443D01*
X025778Y034444D02*
X026822Y034444D01*
X026822Y034445D02*
X025778Y034445D01*
X025778Y034446D02*
X026822Y034446D01*
X026822Y034447D02*
X025778Y034447D01*
X025778Y034448D02*
X026822Y034448D01*
X026822Y034449D02*
X025778Y034449D01*
X025778Y034450D02*
X026822Y034450D01*
X026822Y034451D02*
X025778Y034451D01*
X025778Y034452D02*
X026822Y034452D01*
X026822Y034453D02*
X025778Y034453D01*
X025778Y034454D02*
X026822Y034454D01*
X026822Y034455D02*
X025778Y034455D01*
X025778Y034456D02*
X026822Y034456D01*
X026822Y034457D02*
X025778Y034457D01*
X025778Y034458D02*
X026822Y034458D01*
X026822Y034459D02*
X025778Y034459D01*
X025778Y034460D02*
X026822Y034460D01*
X026822Y034461D02*
X025778Y034461D01*
X025778Y034462D02*
X026822Y034462D01*
X026822Y034463D02*
X025778Y034463D01*
X025778Y034464D02*
X026822Y034464D01*
X026822Y034465D02*
X025778Y034465D01*
X025778Y034466D02*
X026822Y034466D01*
X026822Y034467D02*
X025778Y034467D01*
X025778Y034468D02*
X026822Y034468D01*
X026822Y034469D02*
X025778Y034469D01*
X025778Y034470D02*
X026822Y034470D01*
X026822Y034471D02*
X025778Y034471D01*
X025778Y034472D02*
X026822Y034472D01*
X026822Y034473D02*
X025778Y034473D01*
X025778Y034474D02*
X026822Y034474D01*
X026822Y034475D02*
X025778Y034475D01*
X025778Y034476D02*
X026822Y034476D01*
X026822Y034477D02*
X025778Y034477D01*
X025778Y034478D02*
X026822Y034478D01*
X026822Y034479D02*
X025778Y034479D01*
X025778Y034480D02*
X026822Y034480D01*
X026822Y034481D02*
X025778Y034481D01*
X025778Y034482D02*
X026822Y034482D01*
X026822Y034483D02*
X025778Y034483D01*
X025778Y034484D02*
X026822Y034484D01*
X026822Y034485D02*
X025778Y034485D01*
X025778Y034486D02*
X026822Y034486D01*
X026822Y034487D02*
X025778Y034487D01*
X025778Y034488D02*
X026822Y034488D01*
X026822Y034489D02*
X025778Y034489D01*
X025778Y034490D02*
X026822Y034490D01*
X026822Y034491D02*
X025778Y034491D01*
X025778Y034492D02*
X026822Y034492D01*
X026822Y034493D02*
X025778Y034493D01*
X025778Y034494D02*
X026822Y034494D01*
X026822Y034495D02*
X025778Y034495D01*
X025778Y034496D02*
X026822Y034496D01*
X026822Y034497D02*
X025778Y034497D01*
X025778Y034498D02*
X026822Y034498D01*
X026822Y034499D02*
X025778Y034499D01*
X025778Y034500D02*
X026822Y034500D01*
X026822Y034501D02*
X025778Y034501D01*
X025778Y034502D02*
X026822Y034502D01*
X026822Y034503D02*
X025778Y034503D01*
X025778Y034504D02*
X026822Y034504D01*
X026822Y034505D02*
X025778Y034505D01*
X025778Y034506D02*
X026822Y034506D01*
X026822Y034507D02*
X025778Y034507D01*
X025778Y034508D02*
X026822Y034508D01*
X026822Y034509D02*
X025778Y034509D01*
X025778Y034510D02*
X026822Y034510D01*
X026822Y034511D02*
X025778Y034511D01*
X025778Y034512D02*
X026822Y034512D01*
X026822Y034513D02*
X025778Y034513D01*
X025778Y034514D02*
X026822Y034514D01*
X026822Y034515D02*
X025778Y034515D01*
X025778Y034516D02*
X026822Y034516D01*
X026822Y034517D02*
X025778Y034517D01*
X025778Y034518D02*
X026822Y034518D01*
X026822Y034519D02*
X025778Y034519D01*
X025778Y034520D02*
X026822Y034520D01*
X026822Y034521D02*
X025778Y034521D01*
X025778Y034522D02*
X026822Y034522D01*
X026822Y034523D02*
X025778Y034523D01*
X025778Y034524D02*
X026822Y034524D01*
X026822Y034525D02*
X025778Y034525D01*
X025778Y034526D02*
X026822Y034526D01*
X026822Y034527D02*
X025778Y034527D01*
X025778Y034528D02*
X026822Y034528D01*
X026822Y034529D02*
X025778Y034529D01*
X025778Y034530D02*
X026822Y034530D01*
X026822Y034531D02*
X025778Y034531D01*
X025778Y034532D02*
X026822Y034532D01*
X026822Y034533D02*
X025778Y034533D01*
X025778Y034534D02*
X026822Y034534D01*
X026822Y034535D02*
X025778Y034535D01*
X025778Y034536D02*
X026822Y034536D01*
X026822Y034537D02*
X025778Y034537D01*
X025778Y034538D02*
X026822Y034538D01*
X026822Y034539D02*
X025778Y034539D01*
X025778Y034540D02*
X026822Y034540D01*
X026822Y034541D02*
X025778Y034541D01*
X025778Y034542D02*
X026822Y034542D01*
X026822Y034543D02*
X025778Y034543D01*
X025778Y034544D02*
X026822Y034544D01*
X026822Y034545D02*
X025778Y034545D01*
X025778Y034546D02*
X026822Y034546D01*
X026822Y034547D02*
X025778Y034547D01*
X025778Y034548D02*
X026822Y034548D01*
X026822Y034549D02*
X025778Y034549D01*
X025778Y034550D02*
X026822Y034550D01*
X026822Y034551D02*
X025778Y034551D01*
X025778Y034552D02*
X026822Y034552D01*
X026822Y034553D02*
X025778Y034553D01*
X025778Y034554D02*
X026822Y034554D01*
X026822Y034555D02*
X025778Y034555D01*
X025778Y034556D02*
X026822Y034556D01*
X026822Y034557D02*
X025778Y034557D01*
X025778Y034558D02*
X026822Y034558D01*
X026822Y034559D02*
X025778Y034559D01*
X025778Y034560D02*
X026822Y034560D01*
X026822Y034561D02*
X025778Y034561D01*
X025778Y034562D02*
X026822Y034562D01*
X026822Y034563D02*
X025778Y034563D01*
X025778Y034564D02*
X026822Y034564D01*
X026822Y034565D02*
X025778Y034565D01*
X025778Y034566D02*
X026822Y034566D01*
X026822Y034567D02*
X025778Y034567D01*
X025778Y034568D02*
X026822Y034568D01*
X026822Y034569D02*
X025778Y034569D01*
X025778Y034570D02*
X026822Y034570D01*
X026822Y034571D02*
X025778Y034571D01*
X025778Y034572D02*
X026822Y034572D01*
X026822Y034573D02*
X025778Y034573D01*
X025778Y034574D02*
X026822Y034574D01*
X026822Y034575D02*
X025778Y034575D01*
X025778Y034576D02*
X026822Y034576D01*
X026822Y034577D02*
X025778Y034577D01*
X025778Y034578D02*
X026822Y034578D01*
X026822Y034579D02*
X025778Y034579D01*
X025778Y034580D02*
X026822Y034580D01*
X026822Y034581D02*
X025778Y034581D01*
X025778Y034582D02*
X026822Y034582D01*
X026822Y034583D02*
X025778Y034583D01*
X025778Y034584D02*
X026822Y034584D01*
X026822Y034585D02*
X025778Y034585D01*
X025778Y034586D02*
X026822Y034586D01*
X026822Y034587D02*
X025778Y034587D01*
X025778Y034588D02*
X026822Y034588D01*
X026822Y034589D02*
X025778Y034589D01*
X025778Y034590D02*
X026822Y034590D01*
X026822Y034591D02*
X025778Y034591D01*
X025778Y034592D02*
X026822Y034592D01*
X026822Y034593D02*
X025778Y034593D01*
X025778Y034594D02*
X026822Y034594D01*
X026822Y034595D02*
X025778Y034595D01*
X025778Y034596D02*
X026822Y034596D01*
X026822Y034597D02*
X025778Y034597D01*
X025778Y034598D02*
X026822Y034598D01*
X026822Y034599D02*
X025778Y034599D01*
X025778Y034600D02*
X026822Y034600D01*
X026822Y034601D02*
X025778Y034601D01*
X025778Y034602D02*
X026822Y034602D01*
X026822Y034603D02*
X025778Y034603D01*
X025778Y034604D02*
X026822Y034604D01*
X026822Y034605D02*
X025778Y034605D01*
X025778Y034606D02*
X026822Y034606D01*
X026822Y034607D02*
X025778Y034607D01*
X025778Y034608D02*
X026822Y034608D01*
X026822Y034609D02*
X025778Y034609D01*
X025778Y034610D02*
X026822Y034610D01*
X026822Y034611D02*
X025778Y034611D01*
X025778Y034612D02*
X026822Y034612D01*
X026822Y034613D02*
X025778Y034613D01*
X025778Y034614D02*
X026822Y034614D01*
X026822Y034615D02*
X025778Y034615D01*
X025778Y034616D02*
X026822Y034616D01*
X026822Y034617D02*
X025778Y034617D01*
X025778Y034618D02*
X026822Y034618D01*
X026822Y034619D02*
X025778Y034619D01*
X025778Y034620D02*
X026822Y034620D01*
X026822Y034621D02*
X025778Y034621D01*
X025778Y034622D02*
X026822Y034622D01*
X026822Y034623D02*
X025778Y034623D01*
X025778Y034624D02*
X026822Y034624D01*
X026822Y034625D02*
X025778Y034625D01*
X025778Y034626D02*
X026822Y034626D01*
X026822Y034627D02*
X025778Y034627D01*
X025778Y034628D02*
X026822Y034628D01*
X026822Y034629D02*
X025778Y034629D01*
X025778Y034630D02*
X026822Y034630D01*
X026822Y034631D02*
X025778Y034631D01*
X025778Y034632D02*
X026822Y034632D01*
X026822Y034633D02*
X025778Y034633D01*
X025778Y034634D02*
X026822Y034634D01*
X026822Y034635D02*
X025778Y034635D01*
X025778Y034636D02*
X026822Y034636D01*
X026822Y034637D02*
X025778Y034637D01*
X025778Y034638D02*
X026822Y034638D01*
X026822Y034639D02*
X025778Y034639D01*
X025778Y034640D02*
X026822Y034640D01*
X026822Y034641D02*
X025778Y034641D01*
X025778Y034642D02*
X026822Y034642D01*
X026822Y034643D02*
X025778Y034643D01*
X025778Y034644D02*
X026822Y034644D01*
X026822Y034645D02*
X025778Y034645D01*
X025778Y034646D02*
X026822Y034646D01*
X026822Y034647D02*
X025778Y034647D01*
X025778Y034648D02*
X026822Y034648D01*
X026822Y034649D02*
X025778Y034649D01*
X025778Y034650D02*
X026822Y034650D01*
X026822Y034651D02*
X025778Y034651D01*
X025778Y034652D02*
X026822Y034652D01*
X026822Y034653D02*
X025778Y034653D01*
X025778Y034654D02*
X026822Y034654D01*
X026822Y034655D02*
X025778Y034655D01*
X025778Y034656D02*
X026822Y034656D01*
X026822Y034657D02*
X025778Y034657D01*
X025778Y034658D02*
X026822Y034658D01*
X026822Y034659D02*
X025778Y034659D01*
X025778Y034660D02*
X026822Y034660D01*
X026822Y034661D02*
X025778Y034661D01*
X025778Y034662D02*
X026822Y034662D01*
X026822Y034663D02*
X025778Y034663D01*
X025778Y034664D02*
X026822Y034664D01*
X026822Y034665D02*
X025778Y034665D01*
X025778Y034666D02*
X026822Y034666D01*
X026822Y034667D02*
X025778Y034667D01*
X025778Y034668D02*
X026822Y034668D01*
X026822Y034669D02*
X025778Y034669D01*
X025778Y034670D02*
X026822Y034670D01*
X026822Y034671D02*
X025778Y034671D01*
X025778Y034672D02*
X026822Y034672D01*
X026822Y034673D02*
X025778Y034673D01*
X025778Y034674D02*
X026822Y034674D01*
X026822Y034675D02*
X025778Y034675D01*
X025778Y034676D02*
X026822Y034676D01*
X026822Y034677D02*
X025778Y034677D01*
X025778Y034678D02*
X026822Y034678D01*
X026822Y034679D02*
X025778Y034679D01*
X025778Y034680D02*
X026822Y034680D01*
X026822Y034681D02*
X025778Y034681D01*
X025778Y034682D02*
X026822Y034682D01*
X026822Y034683D02*
X025778Y034683D01*
X025778Y034684D02*
X026822Y034684D01*
X026822Y034685D02*
X025778Y034685D01*
X025778Y034686D02*
X026822Y034686D01*
X026822Y034687D02*
X025778Y034687D01*
X025778Y034688D02*
X026822Y034688D01*
X026822Y034689D02*
X025778Y034689D01*
X025778Y034690D02*
X026822Y034690D01*
X026822Y034691D02*
X025778Y034691D01*
X025778Y034692D02*
X026822Y034692D01*
X026822Y034693D02*
X025778Y034693D01*
X025778Y034694D02*
X026822Y034694D01*
X026822Y034695D02*
X025778Y034695D01*
X025778Y034696D02*
X026822Y034696D01*
X026822Y034697D02*
X025778Y034697D01*
X025778Y034698D02*
X026822Y034698D01*
X026822Y034699D02*
X025778Y034699D01*
X025778Y034700D02*
X026822Y034700D01*
X026822Y034701D02*
X025778Y034701D01*
X025778Y034702D02*
X026822Y034702D01*
X026822Y034703D02*
X025778Y034703D01*
X025778Y034704D02*
X026822Y034704D01*
X026822Y034705D02*
X025778Y034705D01*
X025778Y034706D02*
X026822Y034706D01*
X026822Y034707D02*
X025778Y034707D01*
X025778Y034708D02*
X026822Y034708D01*
X026822Y034709D02*
X025778Y034709D01*
X025778Y034710D02*
X026822Y034710D01*
X026822Y034711D02*
X025778Y034711D01*
X025778Y034712D02*
X026822Y034712D01*
X026822Y034713D02*
X025778Y034713D01*
X025778Y034714D02*
X026822Y034714D01*
X026822Y034715D02*
X025778Y034715D01*
X025778Y034716D02*
X026822Y034716D01*
X026822Y034717D02*
X025778Y034717D01*
X025778Y034718D02*
X026822Y034718D01*
X026822Y034719D02*
X025778Y034719D01*
X025778Y034720D02*
X026822Y034720D01*
X026822Y034721D02*
X025778Y034721D01*
X025778Y034722D02*
X026822Y034722D01*
X026822Y034723D02*
X025778Y034723D01*
X025778Y034724D02*
X026822Y034724D01*
X026822Y034725D02*
X025778Y034725D01*
X025778Y034726D02*
X026822Y034726D01*
X026822Y034727D02*
X025778Y034727D01*
X025778Y034728D02*
X026822Y034728D01*
X026822Y034729D02*
X025778Y034729D01*
X025778Y034730D02*
X026822Y034730D01*
X026822Y034731D02*
X025778Y034731D01*
X025778Y034732D02*
X026822Y034732D01*
X026822Y034733D02*
X025778Y034733D01*
X025778Y034734D02*
X026822Y034734D01*
X026822Y034735D02*
X025778Y034735D01*
X025778Y034736D02*
X026822Y034736D01*
X026822Y034737D02*
X025778Y034737D01*
X025778Y034738D02*
X026822Y034738D01*
X026822Y034739D02*
X025778Y034739D01*
X025778Y034740D02*
X026822Y034740D01*
X026822Y034741D02*
X025778Y034741D01*
X025778Y034742D02*
X026822Y034742D01*
X026822Y034743D02*
X025778Y034743D01*
X025778Y034744D02*
X026822Y034744D01*
X026822Y034745D02*
X025778Y034745D01*
X025778Y034746D02*
X026822Y034746D01*
X026822Y034747D02*
X025778Y034747D01*
X025778Y034748D02*
X026822Y034748D01*
X026822Y034749D02*
X025778Y034749D01*
X025778Y034750D02*
X026822Y034750D01*
X026822Y034751D02*
X025778Y034751D01*
X025778Y034752D02*
X026822Y034752D01*
X026822Y034753D02*
X025778Y034753D01*
X025778Y034754D02*
X026822Y034754D01*
X026822Y034755D02*
X025778Y034755D01*
X025778Y034756D02*
X026822Y034756D01*
X026822Y034757D02*
X025778Y034757D01*
X025778Y034758D02*
X026822Y034758D01*
X026822Y034759D02*
X025778Y034759D01*
X025778Y034760D02*
X026822Y034760D01*
X026822Y034761D02*
X025778Y034761D01*
X025778Y034762D02*
X026822Y034762D01*
X026822Y034763D02*
X025778Y034763D01*
X025778Y034764D02*
X026822Y034764D01*
X026822Y034765D02*
X025778Y034765D01*
X025778Y034766D02*
X026822Y034766D01*
X026822Y034767D02*
X025778Y034767D01*
X025778Y034768D02*
X026822Y034768D01*
X026822Y034769D02*
X025778Y034769D01*
X025778Y034770D02*
X026822Y034770D01*
X026822Y034771D02*
X025778Y034771D01*
X025778Y034772D02*
X026822Y034772D01*
X026822Y034773D02*
X025778Y034773D01*
X025778Y034774D02*
X026822Y034774D01*
X026822Y034775D02*
X025778Y034775D01*
X025778Y034776D02*
X026822Y034776D01*
X026822Y034777D02*
X025778Y034777D01*
X025778Y034778D02*
X026822Y034778D01*
X026822Y034779D02*
X025778Y034779D01*
X025778Y034780D02*
X026822Y034780D01*
X026822Y034781D02*
X025778Y034781D01*
X025778Y034782D02*
X026822Y034782D01*
X026822Y034783D02*
X025778Y034783D01*
X025778Y034784D02*
X026822Y034784D01*
X026822Y034785D02*
X025778Y034785D01*
X025778Y034786D02*
X026822Y034786D01*
X026822Y034787D02*
X025778Y034787D01*
X025778Y034788D02*
X026822Y034788D01*
X026822Y034789D02*
X025778Y034789D01*
X025778Y034790D02*
X026822Y034790D01*
X026822Y034791D02*
X025778Y034791D01*
X025778Y034792D02*
X026822Y034792D01*
X026822Y034793D02*
X025778Y034793D01*
X025778Y034794D02*
X026822Y034794D01*
X026822Y034795D02*
X025778Y034795D01*
X025778Y034796D02*
X026822Y034796D01*
X026822Y034797D02*
X025778Y034797D01*
X025778Y034798D02*
X026822Y034798D01*
X026822Y034799D02*
X025778Y034799D01*
X025778Y034800D02*
X026822Y034800D01*
X026822Y034801D02*
X025778Y034801D01*
X025778Y034802D02*
X026822Y034802D01*
X026822Y034803D02*
X025778Y034803D01*
X025778Y034804D02*
X026822Y034804D01*
X026822Y034805D02*
X025778Y034805D01*
X025778Y034806D02*
X026822Y034806D01*
X026822Y034807D02*
X025778Y034807D01*
X025778Y034808D02*
X026822Y034808D01*
X026822Y034809D02*
X025778Y034809D01*
X025778Y034810D02*
X026822Y034810D01*
X026822Y034811D02*
X025778Y034811D01*
X025778Y034812D02*
X026822Y034812D01*
X026822Y034813D02*
X025778Y034813D01*
X025778Y034814D02*
X026822Y034814D01*
X026822Y034815D02*
X025778Y034815D01*
X025778Y034816D02*
X026822Y034816D01*
X026822Y034817D02*
X025778Y034817D01*
X025778Y034818D02*
X026822Y034818D01*
X026822Y034819D02*
X025778Y034819D01*
X025778Y034820D02*
X026822Y034820D01*
X026822Y034821D02*
X025778Y034821D01*
X025778Y034822D02*
X026822Y034822D01*
X026822Y034823D02*
X025778Y034823D01*
X025778Y034824D02*
X026822Y034824D01*
X026822Y034825D02*
X025778Y034825D01*
X025778Y034826D02*
X026822Y034826D01*
X026822Y034827D02*
X025778Y034827D01*
X025778Y034828D02*
X026822Y034828D01*
X026822Y034829D02*
X025778Y034829D01*
X025778Y034830D02*
X026822Y034830D01*
X026822Y034831D02*
X025778Y034831D01*
X025778Y034832D02*
X026822Y034832D01*
X026822Y034833D02*
X025778Y034833D01*
X025778Y034834D02*
X026822Y034834D01*
X026822Y034835D02*
X025778Y034835D01*
X025778Y034836D02*
X026822Y034836D01*
X026822Y034837D02*
X025778Y034837D01*
X025778Y034838D02*
X026822Y034838D01*
X026822Y034839D02*
X025778Y034839D01*
X025778Y034840D02*
X026822Y034840D01*
X026822Y034841D02*
X025778Y034841D01*
X025778Y034842D02*
X026822Y034842D01*
X026822Y034843D02*
X025778Y034843D01*
X025778Y034844D02*
X026822Y034844D01*
X026822Y034845D02*
X025778Y034845D01*
X025778Y034846D02*
X026822Y034846D01*
X026822Y034847D02*
X025778Y034847D01*
X025778Y034848D02*
X026822Y034848D01*
X026822Y034849D02*
X025778Y034849D01*
X025778Y034850D02*
X026822Y034850D01*
X026822Y034851D02*
X025778Y034851D01*
X025778Y034852D02*
X026822Y034852D01*
X026822Y034853D02*
X025778Y034853D01*
X025778Y034854D02*
X026822Y034854D01*
X026822Y034855D02*
X025778Y034855D01*
X025778Y034856D02*
X026822Y034856D01*
X026822Y034857D02*
X025778Y034857D01*
X025778Y034858D02*
X026822Y034858D01*
X026822Y034859D02*
X025778Y034859D01*
X025778Y034860D02*
X026822Y034860D01*
X026822Y034861D02*
X025778Y034861D01*
X025778Y034862D02*
X026822Y034862D01*
X026822Y034863D02*
X025778Y034863D01*
X025778Y034864D02*
X026822Y034864D01*
X026822Y034865D02*
X025778Y034865D01*
X025778Y034866D02*
X026822Y034866D01*
X026822Y034867D02*
X025778Y034867D01*
X025778Y034868D02*
X026822Y034868D01*
X026822Y034869D02*
X025778Y034869D01*
X025778Y034870D02*
X026822Y034870D01*
X026822Y034871D02*
X025778Y034871D01*
X025778Y034872D02*
X026822Y034872D01*
X026822Y034873D02*
X025778Y034873D01*
X025778Y034874D02*
X026822Y034874D01*
X026822Y034875D02*
X025778Y034875D01*
X025778Y034876D02*
X026822Y034876D01*
X026822Y034877D02*
X025778Y034877D01*
X025778Y034878D02*
X026822Y034878D01*
X026822Y034879D02*
X025778Y034879D01*
X025778Y034880D02*
X026822Y034880D01*
X026822Y034881D02*
X025778Y034881D01*
X025778Y034882D02*
X026822Y034882D01*
X026822Y034883D02*
X025778Y034883D01*
X025778Y034884D02*
X026822Y034884D01*
X026822Y034885D02*
X025778Y034885D01*
X025778Y034886D02*
X026822Y034886D01*
X026822Y034887D02*
X025778Y034887D01*
X025778Y034888D02*
X026822Y034888D01*
X026822Y034889D02*
X025778Y034889D01*
X025778Y034890D02*
X026822Y034890D01*
X026822Y034891D02*
X025778Y034891D01*
X025778Y034892D02*
X026822Y034892D01*
X026822Y034893D02*
X025778Y034893D01*
X025778Y034894D02*
X026822Y034894D01*
X026822Y034895D02*
X025778Y034895D01*
X025778Y034896D02*
X026822Y034896D01*
X026822Y034897D02*
X025778Y034897D01*
X025778Y034898D02*
X026822Y034898D01*
X026822Y034899D02*
X025778Y034899D01*
X025778Y034900D02*
X026822Y034900D01*
X026822Y034901D02*
X025778Y034901D01*
X025778Y034902D02*
X026822Y034902D01*
X026822Y034903D02*
X025778Y034903D01*
X025778Y034904D02*
X026822Y034904D01*
X026822Y034905D02*
X025778Y034905D01*
X025778Y034906D02*
X026822Y034906D01*
X026822Y034907D02*
X025778Y034907D01*
X025778Y034908D02*
X026822Y034908D01*
X026822Y034909D02*
X025778Y034909D01*
X025778Y034910D02*
X026822Y034910D01*
X026822Y034911D02*
X025778Y034911D01*
X025778Y034912D02*
X026822Y034912D01*
X026822Y034913D02*
X025778Y034913D01*
X025778Y034914D02*
X026822Y034914D01*
X026822Y034915D02*
X025778Y034915D01*
X025778Y034916D02*
X026822Y034916D01*
X026822Y034917D02*
X025778Y034917D01*
X025778Y034918D02*
X026822Y034918D01*
X026822Y034919D02*
X025778Y034919D01*
X025778Y034920D02*
X026822Y034920D01*
X026822Y034921D02*
X025778Y034921D01*
X025778Y034922D02*
X026822Y034922D01*
X026822Y034923D02*
X025778Y034923D01*
X025778Y034924D02*
X026822Y034924D01*
X026822Y034925D02*
X025778Y034925D01*
X025778Y034926D02*
X026822Y034926D01*
X026822Y034927D02*
X025778Y034927D01*
X025778Y034928D02*
X026822Y034928D01*
X026822Y034929D02*
X025778Y034929D01*
X025778Y034930D02*
X026822Y034930D01*
X026822Y034931D02*
X025778Y034931D01*
X025778Y034932D02*
X026822Y034932D01*
X026822Y034933D02*
X025778Y034933D01*
X025778Y034934D02*
X026822Y034934D01*
X026822Y034935D02*
X025778Y034935D01*
X025778Y034936D02*
X026822Y034936D01*
X026822Y034937D02*
X025778Y034937D01*
X025778Y034938D02*
X026822Y034938D01*
X026822Y034939D02*
X025778Y034939D01*
X025778Y034940D02*
X026822Y034940D01*
X026822Y034941D02*
X025778Y034941D01*
X025778Y034942D02*
X026822Y034942D01*
X026822Y034943D02*
X025778Y034943D01*
X025778Y034944D02*
X026822Y034944D01*
X026822Y034945D02*
X025778Y034945D01*
X025778Y034946D02*
X026822Y034946D01*
X026822Y034947D02*
X025778Y034947D01*
X025778Y034948D02*
X026822Y034948D01*
X026822Y034949D02*
X025778Y034949D01*
X025778Y034950D02*
X026822Y034950D01*
X026822Y034951D02*
X025778Y034951D01*
X025778Y034952D02*
X026822Y034952D01*
X026822Y034953D02*
X025778Y034953D01*
X025778Y034954D02*
X026822Y034954D01*
X026822Y034955D02*
X025778Y034955D01*
X025778Y034956D02*
X026822Y034956D01*
X026822Y034957D02*
X025778Y034957D01*
X025778Y034958D02*
X026822Y034958D01*
X026822Y034959D02*
X025778Y034959D01*
X025778Y034960D02*
X026822Y034960D01*
X026822Y034961D02*
X025778Y034961D01*
X025778Y034962D02*
X026822Y034962D01*
X026822Y034963D02*
X025778Y034963D01*
X025778Y034964D02*
X026822Y034964D01*
X026822Y034965D02*
X026694Y034965D01*
X026694Y034966D02*
X026822Y034966D01*
X026822Y034967D02*
X026694Y034967D01*
X026694Y034968D02*
X026822Y034968D01*
X026822Y034969D02*
X026694Y034969D01*
X026694Y034970D02*
X026822Y034970D01*
X026822Y034971D02*
X026694Y034971D01*
X026694Y034972D02*
X026822Y034972D01*
X026822Y034973D02*
X026694Y034973D01*
X026694Y034974D02*
X026822Y034974D01*
X026822Y034975D02*
X026694Y034975D01*
X026694Y034976D02*
X026822Y034976D01*
X026822Y034977D02*
X026694Y034977D01*
X026694Y034978D02*
X026822Y034978D01*
X026822Y034979D02*
X026694Y034979D01*
X026694Y034980D02*
X026822Y034980D01*
X026822Y034981D02*
X026694Y034981D01*
X026694Y034982D02*
X026822Y034982D01*
X026822Y034983D02*
X026694Y034983D01*
X026694Y034984D02*
X026822Y034984D01*
X026822Y034985D02*
X026694Y034985D01*
X026694Y034986D02*
X026822Y034986D01*
X026822Y034987D02*
X026694Y034987D01*
X025906Y034987D02*
X025778Y034987D01*
X025778Y034986D02*
X025906Y034986D01*
X025906Y034985D02*
X025778Y034985D01*
X025778Y034984D02*
X025906Y034984D01*
X025906Y034983D02*
X025778Y034983D01*
X025778Y034982D02*
X025906Y034982D01*
X025906Y034981D02*
X025778Y034981D01*
X025778Y034980D02*
X025906Y034980D01*
X025906Y034979D02*
X025778Y034979D01*
X025778Y034978D02*
X025906Y034978D01*
X025906Y034977D02*
X025778Y034977D01*
X025778Y034976D02*
X025906Y034976D01*
X025906Y034975D02*
X025778Y034975D01*
X025778Y034974D02*
X025906Y034974D01*
X025906Y034973D02*
X025778Y034973D01*
X025778Y034972D02*
X025906Y034972D01*
X025906Y034971D02*
X025778Y034971D01*
X025778Y034970D02*
X025906Y034970D01*
X025906Y034969D02*
X025778Y034969D01*
X025778Y034968D02*
X025906Y034968D01*
X025906Y034967D02*
X025778Y034967D01*
X025778Y034966D02*
X025906Y034966D01*
X025906Y034965D02*
X025778Y034965D01*
X022922Y034968D02*
X022794Y034968D01*
X022794Y034969D02*
X022922Y034969D01*
X022922Y034970D02*
X022794Y034970D01*
X022794Y034971D02*
X022922Y034971D01*
X022922Y034972D02*
X022794Y034972D01*
X022794Y034973D02*
X022922Y034973D01*
X022922Y034974D02*
X022794Y034974D01*
X022794Y034975D02*
X022922Y034975D01*
X022922Y034976D02*
X022794Y034976D01*
X022794Y034977D02*
X022922Y034977D01*
X022922Y034978D02*
X022794Y034978D01*
X022794Y034979D02*
X022922Y034979D01*
X022922Y034980D02*
X022794Y034980D01*
X022794Y034981D02*
X022922Y034981D01*
X022922Y034982D02*
X022794Y034982D01*
X022794Y034983D02*
X022922Y034983D01*
X022922Y034984D02*
X022794Y034984D01*
X022794Y034985D02*
X022922Y034985D01*
X022922Y034986D02*
X022794Y034986D01*
X022794Y034987D02*
X022922Y034987D01*
X022922Y034967D02*
X022794Y034967D01*
X022794Y034966D02*
X022922Y034966D01*
X022922Y034965D02*
X022794Y034965D01*
X022922Y034964D02*
X021878Y034964D01*
X021878Y034965D02*
X022006Y034965D01*
X022006Y034966D02*
X021878Y034966D01*
X021878Y034967D02*
X022006Y034967D01*
X022006Y034968D02*
X021878Y034968D01*
X021878Y034969D02*
X022006Y034969D01*
X022006Y034970D02*
X021878Y034970D01*
X021878Y034971D02*
X022006Y034971D01*
X022006Y034972D02*
X021878Y034972D01*
X021878Y034973D02*
X022006Y034973D01*
X022006Y034974D02*
X021878Y034974D01*
X021878Y034975D02*
X022006Y034975D01*
X022006Y034976D02*
X021878Y034976D01*
X021878Y034977D02*
X022006Y034977D01*
X022006Y034978D02*
X021878Y034978D01*
X021878Y034979D02*
X022006Y034979D01*
X022006Y034980D02*
X021878Y034980D01*
X021878Y034981D02*
X022006Y034981D01*
X022006Y034982D02*
X021878Y034982D01*
X021878Y034983D02*
X022006Y034983D01*
X022006Y034984D02*
X021878Y034984D01*
X021878Y034985D02*
X022006Y034985D01*
X022006Y034986D02*
X021878Y034986D01*
X021878Y034987D02*
X022006Y034987D01*
X021878Y034963D02*
X022922Y034963D01*
X022922Y034962D02*
X021878Y034962D01*
X021878Y034961D02*
X022922Y034961D01*
X022922Y034960D02*
X021878Y034960D01*
X021878Y034959D02*
X022922Y034959D01*
X022922Y034958D02*
X021878Y034958D01*
X021878Y034957D02*
X022922Y034957D01*
X022922Y034956D02*
X021878Y034956D01*
X021878Y034955D02*
X022922Y034955D01*
X022922Y034954D02*
X021878Y034954D01*
X021878Y034953D02*
X022922Y034953D01*
X022922Y034952D02*
X021878Y034952D01*
X021878Y034951D02*
X022922Y034951D01*
X022922Y034950D02*
X021878Y034950D01*
X021878Y034949D02*
X022922Y034949D01*
X022922Y034948D02*
X021878Y034948D01*
X021878Y034947D02*
X022922Y034947D01*
X022922Y034946D02*
X021878Y034946D01*
X021878Y034945D02*
X022922Y034945D01*
X022922Y034944D02*
X021878Y034944D01*
X021878Y034943D02*
X022922Y034943D01*
X022922Y034942D02*
X021878Y034942D01*
X021878Y034941D02*
X022922Y034941D01*
X022922Y034940D02*
X021878Y034940D01*
X021878Y034939D02*
X022922Y034939D01*
X022922Y034938D02*
X021878Y034938D01*
X021878Y034937D02*
X022922Y034937D01*
X022922Y034936D02*
X021878Y034936D01*
X021878Y034935D02*
X022922Y034935D01*
X022922Y034934D02*
X021878Y034934D01*
X021878Y034933D02*
X022922Y034933D01*
X022922Y034932D02*
X021878Y034932D01*
X021878Y034931D02*
X022922Y034931D01*
X022922Y034930D02*
X021878Y034930D01*
X021878Y034929D02*
X022922Y034929D01*
X022922Y034928D02*
X021878Y034928D01*
X021878Y034927D02*
X022922Y034927D01*
X022922Y034926D02*
X021878Y034926D01*
X021878Y034925D02*
X022922Y034925D01*
X022922Y034924D02*
X021878Y034924D01*
X021878Y034923D02*
X022922Y034923D01*
X022922Y034922D02*
X021878Y034922D01*
X021878Y034921D02*
X022922Y034921D01*
X022922Y034920D02*
X021878Y034920D01*
X021878Y034919D02*
X022922Y034919D01*
X022922Y034918D02*
X021878Y034918D01*
X021878Y034917D02*
X022922Y034917D01*
X022922Y034916D02*
X021878Y034916D01*
X021878Y034915D02*
X022922Y034915D01*
X022922Y034914D02*
X021878Y034914D01*
X021878Y034913D02*
X022922Y034913D01*
X022922Y034912D02*
X021878Y034912D01*
X021878Y034911D02*
X022922Y034911D01*
X022922Y034910D02*
X021878Y034910D01*
X021878Y034909D02*
X022922Y034909D01*
X022922Y034908D02*
X021878Y034908D01*
X021878Y034907D02*
X022922Y034907D01*
X022922Y034906D02*
X021878Y034906D01*
X021878Y034905D02*
X022922Y034905D01*
X022922Y034904D02*
X021878Y034904D01*
X021878Y034903D02*
X022922Y034903D01*
X022922Y034902D02*
X021878Y034902D01*
X021878Y034901D02*
X022922Y034901D01*
X022922Y034900D02*
X021878Y034900D01*
X021878Y034899D02*
X022922Y034899D01*
X022922Y034898D02*
X021878Y034898D01*
X021878Y034897D02*
X022922Y034897D01*
X022922Y034896D02*
X021878Y034896D01*
X021878Y034895D02*
X022922Y034895D01*
X022922Y034894D02*
X021878Y034894D01*
X021878Y034893D02*
X022922Y034893D01*
X022922Y034892D02*
X021878Y034892D01*
X021878Y034891D02*
X022922Y034891D01*
X022922Y034890D02*
X021878Y034890D01*
X021878Y034889D02*
X022922Y034889D01*
X022922Y034888D02*
X021878Y034888D01*
X021878Y034887D02*
X022922Y034887D01*
X022922Y034886D02*
X021878Y034886D01*
X021878Y034885D02*
X022922Y034885D01*
X022922Y034884D02*
X021878Y034884D01*
X021878Y034883D02*
X022922Y034883D01*
X022922Y034882D02*
X021878Y034882D01*
X021878Y034881D02*
X022922Y034881D01*
X022922Y034880D02*
X021878Y034880D01*
X021878Y034879D02*
X022922Y034879D01*
X022922Y034878D02*
X021878Y034878D01*
X021878Y034877D02*
X022922Y034877D01*
X022922Y034876D02*
X021878Y034876D01*
X021878Y034875D02*
X022922Y034875D01*
X022922Y034874D02*
X021878Y034874D01*
X021878Y034873D02*
X022922Y034873D01*
X022922Y034872D02*
X021878Y034872D01*
X021878Y034871D02*
X022922Y034871D01*
X022922Y034870D02*
X021878Y034870D01*
X021878Y034869D02*
X022922Y034869D01*
X022922Y034868D02*
X021878Y034868D01*
X021878Y034867D02*
X022922Y034867D01*
X022922Y034866D02*
X021878Y034866D01*
X021878Y034865D02*
X022922Y034865D01*
X022922Y034864D02*
X021878Y034864D01*
X021878Y034863D02*
X022922Y034863D01*
X022922Y034862D02*
X021878Y034862D01*
X021878Y034861D02*
X022922Y034861D01*
X022922Y034860D02*
X021878Y034860D01*
X021878Y034859D02*
X022922Y034859D01*
X022922Y034858D02*
X021878Y034858D01*
X021878Y034857D02*
X022922Y034857D01*
X022922Y034856D02*
X021878Y034856D01*
X021878Y034855D02*
X022922Y034855D01*
X022922Y034854D02*
X021878Y034854D01*
X021878Y034853D02*
X022922Y034853D01*
X022922Y034852D02*
X021878Y034852D01*
X021878Y034851D02*
X022922Y034851D01*
X022922Y034850D02*
X021878Y034850D01*
X021878Y034849D02*
X022922Y034849D01*
X022922Y034848D02*
X021878Y034848D01*
X021878Y034847D02*
X022922Y034847D01*
X022922Y034846D02*
X021878Y034846D01*
X021878Y034845D02*
X022922Y034845D01*
X022922Y034844D02*
X021878Y034844D01*
X021878Y034843D02*
X022922Y034843D01*
X022922Y034842D02*
X021878Y034842D01*
X021878Y034841D02*
X022922Y034841D01*
X022922Y034840D02*
X021878Y034840D01*
X021878Y034839D02*
X022922Y034839D01*
X022922Y034838D02*
X021878Y034838D01*
X021878Y034837D02*
X022922Y034837D01*
X022922Y034836D02*
X021878Y034836D01*
X021878Y034835D02*
X022922Y034835D01*
X022922Y034834D02*
X021878Y034834D01*
X021878Y034833D02*
X022922Y034833D01*
X022922Y034832D02*
X021878Y034832D01*
X021878Y034831D02*
X022922Y034831D01*
X022922Y034830D02*
X021878Y034830D01*
X021878Y034829D02*
X022922Y034829D01*
X022922Y034828D02*
X021878Y034828D01*
X021878Y034827D02*
X022922Y034827D01*
X022922Y034826D02*
X021878Y034826D01*
X021878Y034825D02*
X022922Y034825D01*
X022922Y034824D02*
X021878Y034824D01*
X021878Y034823D02*
X022922Y034823D01*
X022922Y034822D02*
X021878Y034822D01*
X021878Y034821D02*
X022922Y034821D01*
X022922Y034820D02*
X021878Y034820D01*
X021878Y034819D02*
X022922Y034819D01*
X022922Y034818D02*
X021878Y034818D01*
X021878Y034817D02*
X022922Y034817D01*
X022922Y034816D02*
X021878Y034816D01*
X021878Y034815D02*
X022922Y034815D01*
X022922Y034814D02*
X021878Y034814D01*
X021878Y034813D02*
X022922Y034813D01*
X022922Y034812D02*
X021878Y034812D01*
X021878Y034811D02*
X022922Y034811D01*
X022922Y034810D02*
X021878Y034810D01*
X021878Y034809D02*
X022922Y034809D01*
X022922Y034808D02*
X021878Y034808D01*
X021878Y034807D02*
X022922Y034807D01*
X022922Y034806D02*
X021878Y034806D01*
X021878Y034805D02*
X022922Y034805D01*
X022922Y034804D02*
X021878Y034804D01*
X021878Y034803D02*
X022922Y034803D01*
X022922Y034802D02*
X021878Y034802D01*
X021878Y034801D02*
X022922Y034801D01*
X022922Y034800D02*
X021878Y034800D01*
X021878Y034799D02*
X022922Y034799D01*
X022922Y034798D02*
X021878Y034798D01*
X021878Y034797D02*
X022922Y034797D01*
X022922Y034796D02*
X021878Y034796D01*
X021878Y034795D02*
X022922Y034795D01*
X022922Y034794D02*
X021878Y034794D01*
X021878Y034793D02*
X022922Y034793D01*
X022922Y034792D02*
X021878Y034792D01*
X021878Y034791D02*
X022922Y034791D01*
X022922Y034790D02*
X021878Y034790D01*
X021878Y034789D02*
X022922Y034789D01*
X022922Y034788D02*
X021878Y034788D01*
X021878Y034787D02*
X022922Y034787D01*
X022922Y034786D02*
X021878Y034786D01*
X021878Y034785D02*
X022922Y034785D01*
X022922Y034784D02*
X021878Y034784D01*
X021878Y034783D02*
X022922Y034783D01*
X022922Y034782D02*
X021878Y034782D01*
X021878Y034781D02*
X022922Y034781D01*
X022922Y034780D02*
X021878Y034780D01*
X021878Y034779D02*
X022922Y034779D01*
X022922Y034778D02*
X021878Y034778D01*
X021878Y034777D02*
X022922Y034777D01*
X022922Y034776D02*
X021878Y034776D01*
X021878Y034775D02*
X022922Y034775D01*
X022922Y034774D02*
X021878Y034774D01*
X021878Y034773D02*
X022922Y034773D01*
X022922Y034772D02*
X021878Y034772D01*
X021878Y034771D02*
X022922Y034771D01*
X022922Y034770D02*
X021878Y034770D01*
X021878Y034769D02*
X022922Y034769D01*
X022922Y034768D02*
X021878Y034768D01*
X021878Y034767D02*
X022922Y034767D01*
X022922Y034766D02*
X021878Y034766D01*
X021878Y034765D02*
X022922Y034765D01*
X022922Y034764D02*
X021878Y034764D01*
X021878Y034763D02*
X022922Y034763D01*
X022922Y034762D02*
X021878Y034762D01*
X021878Y034761D02*
X022922Y034761D01*
X022922Y034760D02*
X021878Y034760D01*
X021878Y034759D02*
X022922Y034759D01*
X022922Y034758D02*
X021878Y034758D01*
X021878Y034757D02*
X022922Y034757D01*
X022922Y034756D02*
X021878Y034756D01*
X021878Y034755D02*
X022922Y034755D01*
X022922Y034754D02*
X021878Y034754D01*
X021878Y034753D02*
X022922Y034753D01*
X022922Y034752D02*
X021878Y034752D01*
X021878Y034751D02*
X022922Y034751D01*
X022922Y034750D02*
X021878Y034750D01*
X021878Y034749D02*
X022922Y034749D01*
X022922Y034748D02*
X021878Y034748D01*
X021878Y034747D02*
X022922Y034747D01*
X022922Y034746D02*
X021878Y034746D01*
X021878Y034745D02*
X022922Y034745D01*
X022922Y034744D02*
X021878Y034744D01*
X021878Y034743D02*
X022922Y034743D01*
X022922Y034742D02*
X021878Y034742D01*
X021878Y034741D02*
X022922Y034741D01*
X022922Y034740D02*
X021878Y034740D01*
X021878Y034739D02*
X022922Y034739D01*
X022922Y034738D02*
X021878Y034738D01*
X021878Y034737D02*
X022922Y034737D01*
X022922Y034736D02*
X021878Y034736D01*
X021878Y034735D02*
X022922Y034735D01*
X022922Y034734D02*
X021878Y034734D01*
X021878Y034733D02*
X022922Y034733D01*
X022922Y034732D02*
X021878Y034732D01*
X021878Y034731D02*
X022922Y034731D01*
X022922Y034730D02*
X021878Y034730D01*
X021878Y034729D02*
X022922Y034729D01*
X022922Y034728D02*
X021878Y034728D01*
X021878Y034727D02*
X022922Y034727D01*
X022922Y034726D02*
X021878Y034726D01*
X021878Y034725D02*
X022922Y034725D01*
X022922Y034724D02*
X021878Y034724D01*
X021878Y034723D02*
X022922Y034723D01*
X022922Y034722D02*
X021878Y034722D01*
X021878Y034721D02*
X022922Y034721D01*
X022922Y034720D02*
X021878Y034720D01*
X021878Y034719D02*
X022922Y034719D01*
X022922Y034718D02*
X021878Y034718D01*
X021878Y034717D02*
X022922Y034717D01*
X022922Y034716D02*
X021878Y034716D01*
X021878Y034715D02*
X022922Y034715D01*
X022922Y034714D02*
X021878Y034714D01*
X021878Y034713D02*
X022922Y034713D01*
X022922Y034712D02*
X021878Y034712D01*
X021878Y034711D02*
X022922Y034711D01*
X022922Y034710D02*
X021878Y034710D01*
X021878Y034709D02*
X022922Y034709D01*
X022922Y034708D02*
X021878Y034708D01*
X021878Y034707D02*
X022922Y034707D01*
X022922Y034706D02*
X021878Y034706D01*
X021878Y034705D02*
X022922Y034705D01*
X022922Y034704D02*
X021878Y034704D01*
X021878Y034703D02*
X022922Y034703D01*
X022922Y034702D02*
X021878Y034702D01*
X021878Y034701D02*
X022922Y034701D01*
X022922Y034700D02*
X021878Y034700D01*
X021878Y034699D02*
X022922Y034699D01*
X022922Y034698D02*
X021878Y034698D01*
X021878Y034697D02*
X022922Y034697D01*
X022922Y034696D02*
X021878Y034696D01*
X021878Y034695D02*
X022922Y034695D01*
X022922Y034694D02*
X021878Y034694D01*
X021878Y034693D02*
X022922Y034693D01*
X022922Y034692D02*
X021878Y034692D01*
X021878Y034691D02*
X022922Y034691D01*
X022922Y034690D02*
X021878Y034690D01*
X021878Y034689D02*
X022922Y034689D01*
X022922Y034688D02*
X021878Y034688D01*
X021878Y034687D02*
X022922Y034687D01*
X022922Y034686D02*
X021878Y034686D01*
X021878Y034685D02*
X022922Y034685D01*
X022922Y034684D02*
X021878Y034684D01*
X021878Y034683D02*
X022922Y034683D01*
X022922Y034682D02*
X021878Y034682D01*
X021878Y034681D02*
X022922Y034681D01*
X022922Y034680D02*
X021878Y034680D01*
X021878Y034679D02*
X022922Y034679D01*
X022922Y034678D02*
X021878Y034678D01*
X021878Y034677D02*
X022922Y034677D01*
X022922Y034676D02*
X021878Y034676D01*
X021878Y034675D02*
X022922Y034675D01*
X022922Y034674D02*
X021878Y034674D01*
X021878Y034673D02*
X022922Y034673D01*
X022922Y034672D02*
X021878Y034672D01*
X021878Y034671D02*
X022922Y034671D01*
X022922Y034670D02*
X021878Y034670D01*
X021878Y034669D02*
X022922Y034669D01*
X022922Y034668D02*
X021878Y034668D01*
X021878Y034667D02*
X022922Y034667D01*
X022922Y034666D02*
X021878Y034666D01*
X021878Y034665D02*
X022922Y034665D01*
X022922Y034664D02*
X021878Y034664D01*
X021878Y034663D02*
X022922Y034663D01*
X022922Y034662D02*
X021878Y034662D01*
X021878Y034661D02*
X022922Y034661D01*
X022922Y034660D02*
X021878Y034660D01*
X021878Y034659D02*
X022922Y034659D01*
X022922Y034658D02*
X021878Y034658D01*
X021878Y034657D02*
X022922Y034657D01*
X022922Y034656D02*
X021878Y034656D01*
X021878Y034655D02*
X022922Y034655D01*
X022922Y034654D02*
X021878Y034654D01*
X021878Y034653D02*
X022922Y034653D01*
X022922Y034652D02*
X021878Y034652D01*
X021878Y034651D02*
X022922Y034651D01*
X022922Y034650D02*
X021878Y034650D01*
X021878Y034649D02*
X022922Y034649D01*
X022922Y034648D02*
X021878Y034648D01*
X021878Y034647D02*
X022922Y034647D01*
X022922Y034646D02*
X021878Y034646D01*
X021878Y034645D02*
X022922Y034645D01*
X022922Y034644D02*
X021878Y034644D01*
X021878Y034643D02*
X022922Y034643D01*
X022922Y034642D02*
X021878Y034642D01*
X021878Y034641D02*
X022922Y034641D01*
X022922Y034640D02*
X021878Y034640D01*
X021878Y034639D02*
X022922Y034639D01*
X022922Y034638D02*
X021878Y034638D01*
X021878Y034637D02*
X022922Y034637D01*
X022922Y034636D02*
X021878Y034636D01*
X021878Y034635D02*
X022922Y034635D01*
X022922Y034634D02*
X021878Y034634D01*
X021878Y034633D02*
X022922Y034633D01*
X022922Y034632D02*
X021878Y034632D01*
X021878Y034631D02*
X022922Y034631D01*
X022922Y034630D02*
X021878Y034630D01*
X021878Y034629D02*
X022922Y034629D01*
X022922Y034628D02*
X021878Y034628D01*
X021878Y034627D02*
X022922Y034627D01*
X022922Y034626D02*
X021878Y034626D01*
X021878Y034625D02*
X022922Y034625D01*
X022922Y034624D02*
X021878Y034624D01*
X021878Y034623D02*
X022922Y034623D01*
X022922Y034622D02*
X021878Y034622D01*
X021878Y034621D02*
X022922Y034621D01*
X022922Y034620D02*
X021878Y034620D01*
X021878Y034619D02*
X022922Y034619D01*
X022922Y034618D02*
X021878Y034618D01*
X021878Y034617D02*
X022922Y034617D01*
X022922Y034616D02*
X021878Y034616D01*
X021878Y034615D02*
X022922Y034615D01*
X022922Y034614D02*
X021878Y034614D01*
X021878Y034613D02*
X022922Y034613D01*
X022922Y034612D02*
X021878Y034612D01*
X021878Y034611D02*
X022922Y034611D01*
X022922Y034610D02*
X021878Y034610D01*
X021878Y034609D02*
X022922Y034609D01*
X022922Y034608D02*
X021878Y034608D01*
X021878Y034607D02*
X022922Y034607D01*
X022922Y034606D02*
X021878Y034606D01*
X021878Y034605D02*
X022922Y034605D01*
X022922Y034604D02*
X021878Y034604D01*
X021878Y034603D02*
X022922Y034603D01*
X022922Y034602D02*
X021878Y034602D01*
X021878Y034601D02*
X022922Y034601D01*
X022922Y034600D02*
X021878Y034600D01*
X021878Y034599D02*
X022922Y034599D01*
X022922Y034598D02*
X021878Y034598D01*
X021878Y034597D02*
X022922Y034597D01*
X022922Y034596D02*
X021878Y034596D01*
X021878Y034595D02*
X022922Y034595D01*
X022922Y034594D02*
X021878Y034594D01*
X021878Y034593D02*
X022922Y034593D01*
X022922Y034592D02*
X021878Y034592D01*
X021878Y034591D02*
X022922Y034591D01*
X022922Y034590D02*
X021878Y034590D01*
X021878Y034589D02*
X022922Y034589D01*
X022922Y034588D02*
X021878Y034588D01*
X021878Y034587D02*
X022922Y034587D01*
X022922Y034586D02*
X021878Y034586D01*
X021878Y034585D02*
X022922Y034585D01*
X022922Y034584D02*
X021878Y034584D01*
X021878Y034583D02*
X022922Y034583D01*
X022922Y034582D02*
X021878Y034582D01*
X021878Y034581D02*
X022922Y034581D01*
X022922Y034580D02*
X021878Y034580D01*
X021878Y034579D02*
X022922Y034579D01*
X022922Y034578D02*
X021878Y034578D01*
X021878Y034577D02*
X022922Y034577D01*
X022922Y034576D02*
X021878Y034576D01*
X021878Y034575D02*
X022922Y034575D01*
X022922Y034574D02*
X021878Y034574D01*
X021878Y034573D02*
X022922Y034573D01*
X022922Y034572D02*
X021878Y034572D01*
X021878Y034571D02*
X022922Y034571D01*
X022922Y034570D02*
X021878Y034570D01*
X021878Y034569D02*
X022922Y034569D01*
X022922Y034568D02*
X021878Y034568D01*
X021878Y034567D02*
X022922Y034567D01*
X022922Y034566D02*
X021878Y034566D01*
X021878Y034565D02*
X022922Y034565D01*
X022922Y034564D02*
X021878Y034564D01*
X021878Y034563D02*
X022922Y034563D01*
X022922Y034562D02*
X021878Y034562D01*
X021878Y034561D02*
X022922Y034561D01*
X022922Y034560D02*
X021878Y034560D01*
X021878Y034559D02*
X022922Y034559D01*
X022922Y034558D02*
X021878Y034558D01*
X021878Y034557D02*
X022922Y034557D01*
X022922Y034556D02*
X021878Y034556D01*
X021878Y034555D02*
X022922Y034555D01*
X022922Y034554D02*
X021878Y034554D01*
X021878Y034553D02*
X022922Y034553D01*
X022922Y034552D02*
X021878Y034552D01*
X021878Y034551D02*
X022922Y034551D01*
X022922Y034550D02*
X021878Y034550D01*
X021878Y034549D02*
X022922Y034549D01*
X022922Y034548D02*
X021878Y034548D01*
X021878Y034547D02*
X022922Y034547D01*
X022922Y034546D02*
X021878Y034546D01*
X021878Y034545D02*
X022922Y034545D01*
X022922Y034544D02*
X021878Y034544D01*
X021878Y034543D02*
X022922Y034543D01*
X022922Y034542D02*
X021878Y034542D01*
X021878Y034541D02*
X022922Y034541D01*
X022922Y034540D02*
X021878Y034540D01*
X021878Y034539D02*
X022922Y034539D01*
X022922Y034538D02*
X021878Y034538D01*
X021878Y034537D02*
X022922Y034537D01*
X022922Y034536D02*
X021878Y034536D01*
X021878Y034535D02*
X022922Y034535D01*
X022922Y034534D02*
X021878Y034534D01*
X021878Y034533D02*
X022922Y034533D01*
X022922Y034532D02*
X021878Y034532D01*
X021878Y034531D02*
X022922Y034531D01*
X022922Y034530D02*
X021878Y034530D01*
X021878Y034529D02*
X022922Y034529D01*
X022922Y034528D02*
X021878Y034528D01*
X021878Y034527D02*
X022922Y034527D01*
X022922Y034526D02*
X021878Y034526D01*
X021878Y034525D02*
X022922Y034525D01*
X022922Y034524D02*
X021878Y034524D01*
X021878Y034523D02*
X022922Y034523D01*
X022922Y034522D02*
X021878Y034522D01*
X021878Y034521D02*
X022922Y034521D01*
X022922Y034520D02*
X021878Y034520D01*
X021878Y034519D02*
X022922Y034519D01*
X022922Y034518D02*
X021878Y034518D01*
X021878Y034517D02*
X022922Y034517D01*
X022922Y034516D02*
X021878Y034516D01*
X021878Y034515D02*
X022922Y034515D01*
X022922Y034514D02*
X021878Y034514D01*
X021878Y034513D02*
X022922Y034513D01*
X022922Y034512D02*
X021878Y034512D01*
X021878Y034511D02*
X022922Y034511D01*
X022922Y034510D02*
X021878Y034510D01*
X021878Y034509D02*
X022922Y034509D01*
X022922Y034508D02*
X021878Y034508D01*
X021878Y034507D02*
X022922Y034507D01*
X022922Y034506D02*
X021878Y034506D01*
X021878Y034505D02*
X022922Y034505D01*
X022922Y034504D02*
X021878Y034504D01*
X021878Y034503D02*
X022922Y034503D01*
X022922Y034502D02*
X021878Y034502D01*
X021878Y034501D02*
X022922Y034501D01*
X022922Y034500D02*
X021878Y034500D01*
X021878Y034499D02*
X022922Y034499D01*
X022922Y034498D02*
X021878Y034498D01*
X021878Y034497D02*
X022922Y034497D01*
X022922Y034496D02*
X021878Y034496D01*
X021878Y034495D02*
X022922Y034495D01*
X022922Y034494D02*
X021878Y034494D01*
X021878Y034493D02*
X022922Y034493D01*
X022922Y034492D02*
X021878Y034492D01*
X021878Y034491D02*
X022922Y034491D01*
X022922Y034490D02*
X021878Y034490D01*
X021878Y034489D02*
X022922Y034489D01*
X022922Y034488D02*
X021878Y034488D01*
X021878Y034487D02*
X022922Y034487D01*
X022922Y034486D02*
X021878Y034486D01*
X021878Y034485D02*
X022922Y034485D01*
X022922Y034484D02*
X021878Y034484D01*
X021878Y034483D02*
X022922Y034483D01*
X022922Y034482D02*
X021878Y034482D01*
X021878Y034481D02*
X022922Y034481D01*
X022922Y034480D02*
X021878Y034480D01*
X021878Y034479D02*
X022922Y034479D01*
X022922Y034478D02*
X021878Y034478D01*
X021878Y034477D02*
X022922Y034477D01*
X022922Y034476D02*
X021878Y034476D01*
X021878Y034475D02*
X022922Y034475D01*
X022922Y034474D02*
X021878Y034474D01*
X021878Y034473D02*
X022922Y034473D01*
X022922Y034472D02*
X021878Y034472D01*
X021878Y034471D02*
X022922Y034471D01*
X022922Y034470D02*
X021878Y034470D01*
X021878Y034469D02*
X022922Y034469D01*
X022922Y034468D02*
X021878Y034468D01*
X021878Y034467D02*
X022922Y034467D01*
X022922Y034466D02*
X021878Y034466D01*
X021878Y034465D02*
X022922Y034465D01*
X022922Y034464D02*
X021878Y034464D01*
X021878Y034463D02*
X022922Y034463D01*
X022922Y034462D02*
X021878Y034462D01*
X021878Y034461D02*
X022922Y034461D01*
X022922Y034460D02*
X021878Y034460D01*
X021878Y034459D02*
X022922Y034459D01*
X022922Y034458D02*
X021878Y034458D01*
X021878Y034457D02*
X022922Y034457D01*
X022922Y034456D02*
X021878Y034456D01*
X021878Y034455D02*
X022922Y034455D01*
X022922Y034454D02*
X021878Y034454D01*
X021878Y034453D02*
X022922Y034453D01*
X022922Y034452D02*
X021878Y034452D01*
X021878Y034451D02*
X022922Y034451D01*
X022922Y034450D02*
X021878Y034450D01*
X021878Y034449D02*
X022922Y034449D01*
X022922Y034448D02*
X021878Y034448D01*
X021878Y034447D02*
X022922Y034447D01*
X022922Y034446D02*
X021878Y034446D01*
X021878Y034445D02*
X022922Y034445D01*
X022922Y034444D02*
X021878Y034444D01*
X021878Y034443D02*
X022922Y034443D01*
X022922Y034442D02*
X021878Y034442D01*
X021878Y034441D02*
X022922Y034441D01*
X022922Y034440D02*
X021878Y034440D01*
X021878Y034439D02*
X022922Y034439D01*
X022922Y034438D02*
X021878Y034438D01*
X021878Y034437D02*
X022922Y034437D01*
X022922Y034436D02*
X021878Y034436D01*
X021878Y034435D02*
X022922Y034435D01*
X022922Y034434D02*
X021878Y034434D01*
X021878Y034433D02*
X022922Y034433D01*
X022922Y034432D02*
X021878Y034432D01*
X021878Y034431D02*
X022922Y034431D01*
X022922Y034430D02*
X021878Y034430D01*
X021878Y034429D02*
X022922Y034429D01*
X022922Y034428D02*
X021878Y034428D01*
X021878Y034427D02*
X022922Y034427D01*
X022922Y034426D02*
X021878Y034426D01*
X021878Y034425D02*
X022922Y034425D01*
X022922Y034424D02*
X021878Y034424D01*
X021878Y034423D02*
X022922Y034423D01*
X022922Y034422D02*
X021878Y034422D01*
X021878Y034421D02*
X022922Y034421D01*
X022922Y034420D02*
X021878Y034420D01*
X021878Y034419D02*
X022922Y034419D01*
X022922Y034418D02*
X021878Y034418D01*
X021878Y034417D02*
X022922Y034417D01*
X022922Y034416D02*
X021878Y034416D01*
X021878Y034415D02*
X022922Y034415D01*
X022922Y034414D02*
X021878Y034414D01*
X021878Y034413D02*
X022922Y034413D01*
X022922Y034412D02*
X021878Y034412D01*
X021878Y034411D02*
X022922Y034411D01*
X022922Y034410D02*
X021878Y034410D01*
X021878Y034409D02*
X022922Y034409D01*
X022922Y034408D02*
X021878Y034408D01*
X021878Y034407D02*
X022922Y034407D01*
X022922Y034406D02*
X021878Y034406D01*
X021878Y034405D02*
X022922Y034405D01*
X022922Y034404D02*
X021878Y034404D01*
X021878Y034403D02*
X022922Y034403D01*
X022922Y034402D02*
X021878Y034402D01*
X021878Y034401D02*
X022922Y034401D01*
X022922Y034400D02*
X021878Y034400D01*
X021878Y034399D02*
X022922Y034399D01*
X022922Y034398D02*
X021878Y034398D01*
X021878Y034397D02*
X022922Y034397D01*
X022922Y034396D02*
X021878Y034396D01*
X021878Y034395D02*
X022922Y034395D01*
X022922Y034394D02*
X021878Y034394D01*
X021878Y034393D02*
X022922Y034393D01*
X022922Y034392D02*
X021878Y034392D01*
X021878Y034391D02*
X022922Y034391D01*
X022922Y034390D02*
X021878Y034390D01*
X021878Y034389D02*
X022922Y034389D01*
X022922Y034388D02*
X021878Y034388D01*
X021878Y034387D02*
X022922Y034387D01*
X022922Y034386D02*
X021878Y034386D01*
X021878Y034385D02*
X022922Y034385D01*
X022922Y034384D02*
X021878Y034384D01*
X021878Y034383D02*
X022922Y034383D01*
X022922Y034382D02*
X021878Y034382D01*
X021878Y034381D02*
X022922Y034381D01*
X022922Y034380D02*
X021878Y034380D01*
X021878Y034379D02*
X022922Y034379D01*
X022922Y034378D02*
X021878Y034378D01*
X021878Y034377D02*
X022922Y034377D01*
X022922Y034376D02*
X021878Y034376D01*
X021878Y034375D02*
X022922Y034375D01*
X022922Y034374D02*
X021878Y034374D01*
X021878Y034373D02*
X022922Y034373D01*
X022922Y034372D02*
X021878Y034372D01*
X021878Y034371D02*
X022922Y034371D01*
X022922Y034370D02*
X021878Y034370D01*
X021878Y034369D02*
X022922Y034369D01*
X022922Y034368D02*
X021878Y034368D01*
X021878Y034367D02*
X022922Y034367D01*
X022922Y034366D02*
X021878Y034366D01*
X021878Y034365D02*
X022922Y034365D01*
X022922Y034364D02*
X021878Y034364D01*
X021878Y034363D02*
X022922Y034363D01*
X022922Y034362D02*
X021878Y034362D01*
X021878Y034361D02*
X022922Y034361D01*
X022922Y034360D02*
X021878Y034360D01*
X021878Y034359D02*
X022922Y034359D01*
X022922Y034358D02*
X021878Y034358D01*
X021878Y034357D02*
X022922Y034357D01*
X022922Y034356D02*
X021878Y034356D01*
X021878Y034355D02*
X022922Y034355D01*
X022922Y034354D02*
X021878Y034354D01*
X021878Y034353D02*
X022922Y034353D01*
X022922Y034352D02*
X021878Y034352D01*
X021878Y034351D02*
X022922Y034351D01*
X022922Y034350D02*
X021878Y034350D01*
X021878Y034349D02*
X022922Y034349D01*
X022922Y034348D02*
X021878Y034348D01*
X021878Y034347D02*
X022922Y034347D01*
X022922Y034346D02*
X021878Y034346D01*
X021878Y034345D02*
X022922Y034345D01*
X022922Y034344D02*
X021878Y034344D01*
X021878Y034343D02*
X022922Y034343D01*
X022922Y034342D02*
X021878Y034342D01*
X021878Y034341D02*
X022922Y034341D01*
X022922Y034340D02*
X021878Y034340D01*
X021878Y034339D02*
X022922Y034339D01*
X022922Y034338D02*
X021878Y034338D01*
X021878Y034337D02*
X022922Y034337D01*
X022922Y034336D02*
X021878Y034336D01*
X021878Y034335D02*
X022922Y034335D01*
X022922Y034334D02*
X021878Y034334D01*
X021878Y034333D02*
X022922Y034333D01*
X022922Y034332D02*
X021878Y034332D01*
X021878Y034331D02*
X022922Y034331D01*
X022922Y034330D02*
X021878Y034330D01*
X021878Y034329D02*
X022922Y034329D01*
X022922Y034328D02*
X021878Y034328D01*
X021878Y034327D02*
X022922Y034327D01*
X022922Y034326D02*
X021878Y034326D01*
X021878Y034325D02*
X022922Y034325D01*
X022922Y034324D02*
X021878Y034324D01*
X021878Y034323D02*
X022922Y034323D01*
X022922Y034322D02*
X021878Y034322D01*
X021878Y034321D02*
X022922Y034321D01*
X022922Y034320D02*
X021878Y034320D01*
X021878Y034319D02*
X022922Y034319D01*
X022922Y034318D02*
X021878Y034318D01*
X021878Y034317D02*
X022922Y034317D01*
X022922Y034316D02*
X021878Y034316D01*
X021878Y034315D02*
X022922Y034315D01*
X022922Y034314D02*
X021878Y034314D01*
X021878Y034313D02*
X022922Y034313D01*
X022922Y034312D02*
X021878Y034312D01*
X021878Y034311D02*
X022922Y034311D01*
X022922Y034310D02*
X021878Y034310D01*
X021878Y034309D02*
X022922Y034309D01*
X022922Y034308D02*
X021878Y034308D01*
X021878Y034307D02*
X022922Y034307D01*
X022922Y034306D02*
X021878Y034306D01*
X021878Y034305D02*
X022922Y034305D01*
X022922Y034304D02*
X021878Y034304D01*
X021878Y034303D02*
X022922Y034303D01*
X022922Y034302D02*
X021878Y034302D01*
X021878Y034301D02*
X022922Y034301D01*
X022922Y034300D02*
X021878Y034300D01*
X021878Y034299D02*
X022922Y034299D01*
X022922Y034298D02*
X021878Y034298D01*
X021878Y034297D02*
X022922Y034297D01*
X022922Y034296D02*
X021878Y034296D01*
X021878Y034295D02*
X022922Y034295D01*
X022922Y034294D02*
X021878Y034294D01*
X021878Y034293D02*
X022922Y034293D01*
X022922Y034292D02*
X021878Y034292D01*
X021878Y034291D02*
X022922Y034291D01*
X022922Y034290D02*
X021878Y034290D01*
X021878Y034289D02*
X022922Y034289D01*
X022922Y034288D02*
X021878Y034288D01*
X021878Y034287D02*
X022922Y034287D01*
X022922Y034286D02*
X021878Y034286D01*
X021878Y034285D02*
X022922Y034285D01*
X022922Y034284D02*
X021878Y034284D01*
X021878Y034283D02*
X022922Y034283D01*
X022922Y034282D02*
X021878Y034282D01*
X021878Y034281D02*
X022922Y034281D01*
X022922Y034280D02*
X021878Y034280D01*
X021878Y034279D02*
X022922Y034279D01*
X022922Y034278D02*
X021878Y034278D01*
X021878Y034277D02*
X022922Y034277D01*
X022922Y034276D02*
X021878Y034276D01*
X021878Y034275D02*
X022922Y034275D01*
X022922Y034274D02*
X021878Y034274D01*
X021878Y034273D02*
X022922Y034273D01*
X022922Y034272D02*
X021878Y034272D01*
X021878Y034271D02*
X022922Y034271D01*
X022922Y034270D02*
X021878Y034270D01*
X021878Y034269D02*
X022922Y034269D01*
X022922Y034268D02*
X021878Y034268D01*
X021878Y034267D02*
X022922Y034267D01*
X022922Y034266D02*
X021878Y034266D01*
X021878Y034265D02*
X022922Y034265D01*
X022922Y034264D02*
X021878Y034264D01*
X021878Y034263D02*
X022922Y034263D01*
X022922Y034262D02*
X021878Y034262D01*
X021878Y034261D02*
X022922Y034261D01*
X022922Y034260D02*
X021878Y034260D01*
X021878Y034259D02*
X022922Y034259D01*
X022922Y034258D02*
X021878Y034258D01*
X021878Y034257D02*
X022922Y034257D01*
X022922Y034256D02*
X021878Y034256D01*
X021878Y034255D02*
X022922Y034255D01*
X022922Y034254D02*
X021878Y034254D01*
X021878Y034253D02*
X022922Y034253D01*
X022922Y034252D02*
X021878Y034252D01*
X021878Y034251D02*
X022922Y034251D01*
X022922Y034250D02*
X021878Y034250D01*
X021878Y034249D02*
X022922Y034249D01*
X022922Y034248D02*
X021878Y034248D01*
X021878Y034247D02*
X022922Y034247D01*
X022922Y034246D02*
X021878Y034246D01*
X021878Y034245D02*
X022922Y034245D01*
X022922Y034244D02*
X021878Y034244D01*
X021878Y034243D02*
X022922Y034243D01*
X022922Y034242D02*
X021878Y034242D01*
X021878Y034241D02*
X022922Y034241D01*
X022922Y034240D02*
X021878Y034240D01*
X021878Y034239D02*
X022922Y034239D01*
X022922Y034238D02*
X021878Y034238D01*
X021878Y034237D02*
X022922Y034237D01*
X022922Y034236D02*
X021878Y034236D01*
X021878Y034235D02*
X022922Y034235D01*
X022922Y034234D02*
X021878Y034234D01*
X021878Y034233D02*
X022922Y034233D01*
X022922Y034232D02*
X021878Y034232D01*
X021878Y034231D02*
X022922Y034231D01*
X022922Y034230D02*
X021878Y034230D01*
X021878Y034229D02*
X022922Y034229D01*
X022922Y034228D02*
X021878Y034228D01*
X021878Y034227D02*
X022922Y034227D01*
X022922Y034226D02*
X021878Y034226D01*
X021878Y034225D02*
X022922Y034225D01*
X022922Y034224D02*
X021878Y034224D01*
X021878Y034223D02*
X022922Y034223D01*
X022922Y034222D02*
X021878Y034222D01*
X021878Y034221D02*
X022922Y034221D01*
X022922Y034220D02*
X021878Y034220D01*
X021878Y034219D02*
X022922Y034219D01*
X022922Y034218D02*
X021878Y034218D01*
X021878Y034217D02*
X022922Y034217D01*
X022922Y034216D02*
X021878Y034216D01*
X021878Y034215D02*
X022922Y034215D01*
X022922Y034214D02*
X021878Y034214D01*
X021878Y034213D02*
X022922Y034213D01*
X022922Y034212D02*
X021878Y034212D01*
X021878Y034211D02*
X022922Y034211D01*
X022922Y034210D02*
X021878Y034210D01*
X021878Y034209D02*
X022922Y034209D01*
X022922Y034208D02*
X021878Y034208D01*
X021878Y034207D02*
X022922Y034207D01*
X022922Y034206D02*
X021878Y034206D01*
X021878Y034205D02*
X022922Y034205D01*
X022922Y034204D02*
X021878Y034204D01*
X021878Y034203D02*
X022922Y034203D01*
X022922Y034202D02*
X021878Y034202D01*
X021878Y034201D02*
X022922Y034201D01*
X022922Y034200D02*
X021878Y034200D01*
X021878Y034199D02*
X022922Y034199D01*
X022922Y034198D02*
X021878Y034198D01*
X021878Y034197D02*
X022922Y034197D01*
X022922Y034196D02*
X021878Y034196D01*
X011022Y034200D02*
X009978Y034200D01*
X009978Y034199D02*
X011022Y034199D01*
X011022Y034198D02*
X009978Y034198D01*
X009978Y034197D02*
X011022Y034197D01*
X011022Y034196D02*
X009978Y034196D01*
X009978Y034201D02*
X011022Y034201D01*
X011022Y034202D02*
X009978Y034202D01*
X009978Y034203D02*
X011022Y034203D01*
X011022Y034204D02*
X009978Y034204D01*
X009978Y034205D02*
X011022Y034205D01*
X011022Y034206D02*
X009978Y034206D01*
X009978Y034207D02*
X011022Y034207D01*
X011022Y034208D02*
X009978Y034208D01*
X009978Y034209D02*
X011022Y034209D01*
X011022Y034210D02*
X009978Y034210D01*
X009978Y034211D02*
X011022Y034211D01*
X011022Y034212D02*
X009978Y034212D01*
X009978Y034213D02*
X011022Y034213D01*
X011022Y034214D02*
X009978Y034214D01*
X009978Y034215D02*
X011022Y034215D01*
X011022Y034216D02*
X009978Y034216D01*
X009978Y034217D02*
X011022Y034217D01*
X011022Y034218D02*
X009978Y034218D01*
X009978Y034219D02*
X011022Y034219D01*
X011022Y034220D02*
X009978Y034220D01*
X009978Y034221D02*
X011022Y034221D01*
X011022Y034222D02*
X009978Y034222D01*
X009978Y034223D02*
X011022Y034223D01*
X011022Y034224D02*
X009978Y034224D01*
X009978Y034225D02*
X011022Y034225D01*
X011022Y034226D02*
X009978Y034226D01*
X009978Y034227D02*
X011022Y034227D01*
X011022Y034228D02*
X009978Y034228D01*
X009978Y034229D02*
X011022Y034229D01*
X011022Y034230D02*
X009978Y034230D01*
X009978Y034231D02*
X011022Y034231D01*
X011022Y034232D02*
X009978Y034232D01*
X009978Y034233D02*
X011022Y034233D01*
X011022Y034234D02*
X009978Y034234D01*
X009978Y034235D02*
X011022Y034235D01*
X011022Y034236D02*
X009978Y034236D01*
X009978Y034237D02*
X011022Y034237D01*
X011022Y034238D02*
X009978Y034238D01*
X009978Y034239D02*
X011022Y034239D01*
X011022Y034240D02*
X009978Y034240D01*
X009978Y034241D02*
X011022Y034241D01*
X011022Y034242D02*
X009978Y034242D01*
X009978Y034243D02*
X011022Y034243D01*
X011022Y034244D02*
X009978Y034244D01*
X009978Y034245D02*
X011022Y034245D01*
X011022Y034246D02*
X009978Y034246D01*
X009978Y034247D02*
X011022Y034247D01*
X011022Y034248D02*
X009978Y034248D01*
X009978Y034249D02*
X011022Y034249D01*
X011022Y034250D02*
X009978Y034250D01*
X009978Y034251D02*
X011022Y034251D01*
X011022Y034252D02*
X009978Y034252D01*
X009978Y034253D02*
X011022Y034253D01*
X011022Y034254D02*
X009978Y034254D01*
X009978Y034255D02*
X011022Y034255D01*
X011022Y034256D02*
X009978Y034256D01*
X009978Y034257D02*
X011022Y034257D01*
X011022Y034258D02*
X009978Y034258D01*
X009978Y034259D02*
X011022Y034259D01*
X011022Y034260D02*
X009978Y034260D01*
X009978Y034261D02*
X011022Y034261D01*
X011022Y034262D02*
X009978Y034262D01*
X009978Y034263D02*
X011022Y034263D01*
X011022Y034264D02*
X009978Y034264D01*
X009978Y034265D02*
X011022Y034265D01*
X011022Y034266D02*
X009978Y034266D01*
X009978Y034267D02*
X011022Y034267D01*
X011022Y034268D02*
X009978Y034268D01*
X009978Y034269D02*
X011022Y034269D01*
X011022Y034270D02*
X009978Y034270D01*
X009978Y034271D02*
X011022Y034271D01*
X011022Y034272D02*
X009978Y034272D01*
X009978Y034273D02*
X011022Y034273D01*
X011022Y034274D02*
X009978Y034274D01*
X009978Y034275D02*
X011022Y034275D01*
X011022Y034276D02*
X009978Y034276D01*
X009978Y034277D02*
X011022Y034277D01*
X011022Y034278D02*
X009978Y034278D01*
X009978Y034279D02*
X011022Y034279D01*
X011022Y034280D02*
X009978Y034280D01*
X009978Y034281D02*
X011022Y034281D01*
X011022Y034282D02*
X009978Y034282D01*
X009978Y034283D02*
X011022Y034283D01*
X011022Y034284D02*
X009978Y034284D01*
X009978Y034285D02*
X011022Y034285D01*
X011022Y034286D02*
X009978Y034286D01*
X009978Y034287D02*
X011022Y034287D01*
X011022Y034288D02*
X009978Y034288D01*
X009978Y034289D02*
X011022Y034289D01*
X011022Y034290D02*
X009978Y034290D01*
X009978Y034291D02*
X011022Y034291D01*
X011022Y034292D02*
X009978Y034292D01*
X009978Y034293D02*
X011022Y034293D01*
X011022Y034294D02*
X009978Y034294D01*
X009978Y034295D02*
X011022Y034295D01*
X011022Y034296D02*
X009978Y034296D01*
X009978Y034297D02*
X011022Y034297D01*
X011022Y034298D02*
X009978Y034298D01*
X009978Y034299D02*
X011022Y034299D01*
X011022Y034300D02*
X009978Y034300D01*
X009978Y034301D02*
X011022Y034301D01*
X011022Y034302D02*
X009978Y034302D01*
X009978Y034303D02*
X011022Y034303D01*
X011022Y034304D02*
X009978Y034304D01*
X009978Y034305D02*
X011022Y034305D01*
X011022Y034306D02*
X009978Y034306D01*
X009978Y034307D02*
X011022Y034307D01*
X011022Y034308D02*
X009978Y034308D01*
X009978Y034309D02*
X011022Y034309D01*
X011022Y034310D02*
X009978Y034310D01*
X009978Y034311D02*
X011022Y034311D01*
X011022Y034312D02*
X009978Y034312D01*
X009978Y034313D02*
X011022Y034313D01*
X011022Y034314D02*
X009978Y034314D01*
X009978Y034315D02*
X011022Y034315D01*
X011022Y034316D02*
X009978Y034316D01*
X009978Y034317D02*
X011022Y034317D01*
X011022Y034318D02*
X009978Y034318D01*
X009978Y034319D02*
X011022Y034319D01*
X011022Y034320D02*
X009978Y034320D01*
X009978Y034321D02*
X011022Y034321D01*
X011022Y034322D02*
X009978Y034322D01*
X009978Y034323D02*
X011022Y034323D01*
X011022Y034324D02*
X009978Y034324D01*
X009978Y034325D02*
X011022Y034325D01*
X011022Y034326D02*
X009978Y034326D01*
X009978Y034327D02*
X011022Y034327D01*
X011022Y034328D02*
X009978Y034328D01*
X009978Y034329D02*
X011022Y034329D01*
X011022Y034330D02*
X009978Y034330D01*
X009978Y034331D02*
X011022Y034331D01*
X011022Y034332D02*
X009978Y034332D01*
X009978Y034333D02*
X011022Y034333D01*
X011022Y034334D02*
X009978Y034334D01*
X009978Y034335D02*
X011022Y034335D01*
X011022Y034336D02*
X009978Y034336D01*
X009978Y034337D02*
X011022Y034337D01*
X011022Y034338D02*
X009978Y034338D01*
X009978Y034339D02*
X011022Y034339D01*
X011022Y034340D02*
X009978Y034340D01*
X009978Y034341D02*
X011022Y034341D01*
X011022Y034342D02*
X009978Y034342D01*
X009978Y034343D02*
X011022Y034343D01*
X011022Y034344D02*
X009978Y034344D01*
X009978Y034345D02*
X011022Y034345D01*
X011022Y034346D02*
X009978Y034346D01*
X009978Y034347D02*
X011022Y034347D01*
X011022Y034348D02*
X009978Y034348D01*
X009978Y034349D02*
X011022Y034349D01*
X011022Y034350D02*
X009978Y034350D01*
X009978Y034351D02*
X011022Y034351D01*
X011022Y034352D02*
X009978Y034352D01*
X009978Y034353D02*
X011022Y034353D01*
X011022Y034354D02*
X009978Y034354D01*
X009978Y034355D02*
X011022Y034355D01*
X011022Y034356D02*
X009978Y034356D01*
X009978Y034357D02*
X011022Y034357D01*
X011022Y034358D02*
X009978Y034358D01*
X009978Y034359D02*
X011022Y034359D01*
X011022Y034360D02*
X009978Y034360D01*
X009978Y034361D02*
X011022Y034361D01*
X011022Y034362D02*
X009978Y034362D01*
X009978Y034363D02*
X011022Y034363D01*
X011022Y034364D02*
X009978Y034364D01*
X009978Y034365D02*
X011022Y034365D01*
X011022Y034366D02*
X009978Y034366D01*
X009978Y034367D02*
X011022Y034367D01*
X011022Y034368D02*
X009978Y034368D01*
X009978Y034369D02*
X011022Y034369D01*
X011022Y034370D02*
X009978Y034370D01*
X009978Y034371D02*
X011022Y034371D01*
X011022Y034372D02*
X009978Y034372D01*
X009978Y034373D02*
X011022Y034373D01*
X011022Y034374D02*
X009978Y034374D01*
X009978Y034375D02*
X011022Y034375D01*
X011022Y034376D02*
X009978Y034376D01*
X009978Y034377D02*
X011022Y034377D01*
X011022Y034378D02*
X009978Y034378D01*
X009978Y034379D02*
X011022Y034379D01*
X011022Y034380D02*
X009978Y034380D01*
X009978Y034381D02*
X011022Y034381D01*
X011022Y034382D02*
X009978Y034382D01*
X009978Y034383D02*
X011022Y034383D01*
X011022Y034384D02*
X009978Y034384D01*
X009978Y034385D02*
X011022Y034385D01*
X011022Y034386D02*
X009978Y034386D01*
X009978Y034387D02*
X011022Y034387D01*
X011022Y034388D02*
X009978Y034388D01*
X009978Y034389D02*
X011022Y034389D01*
X011022Y034390D02*
X009978Y034390D01*
X009978Y034391D02*
X011022Y034391D01*
X011022Y034392D02*
X009978Y034392D01*
X009978Y034393D02*
X011022Y034393D01*
X011022Y034394D02*
X009978Y034394D01*
X009978Y034395D02*
X011022Y034395D01*
X011022Y034396D02*
X009978Y034396D01*
X009978Y034397D02*
X011022Y034397D01*
X011022Y034398D02*
X009978Y034398D01*
X009978Y034399D02*
X011022Y034399D01*
X011022Y034400D02*
X009978Y034400D01*
X009978Y034401D02*
X011022Y034401D01*
X011022Y034402D02*
X009978Y034402D01*
X009978Y034403D02*
X011022Y034403D01*
X011022Y034404D02*
X009978Y034404D01*
X009978Y034405D02*
X011022Y034405D01*
X011022Y034406D02*
X009978Y034406D01*
X009978Y034407D02*
X011022Y034407D01*
X011022Y034408D02*
X009978Y034408D01*
X009978Y034409D02*
X011022Y034409D01*
X011022Y034410D02*
X009978Y034410D01*
X009978Y034411D02*
X011022Y034411D01*
X011022Y034412D02*
X009978Y034412D01*
X009978Y034413D02*
X011022Y034413D01*
X011022Y034414D02*
X009978Y034414D01*
X009978Y034415D02*
X011022Y034415D01*
X011022Y034416D02*
X009978Y034416D01*
X009978Y034417D02*
X011022Y034417D01*
X011022Y034418D02*
X009978Y034418D01*
X009978Y034419D02*
X011022Y034419D01*
X011022Y034420D02*
X009978Y034420D01*
X009978Y034421D02*
X011022Y034421D01*
X011022Y034422D02*
X009978Y034422D01*
X009978Y034423D02*
X011022Y034423D01*
X011022Y034424D02*
X009978Y034424D01*
X009978Y034425D02*
X011022Y034425D01*
X011022Y034426D02*
X009978Y034426D01*
X009978Y034427D02*
X011022Y034427D01*
X011022Y034428D02*
X009978Y034428D01*
X009978Y034429D02*
X011022Y034429D01*
X011022Y034430D02*
X009978Y034430D01*
X009978Y034431D02*
X011022Y034431D01*
X011022Y034432D02*
X009978Y034432D01*
X009978Y034433D02*
X011022Y034433D01*
X011022Y034434D02*
X009978Y034434D01*
X009978Y034435D02*
X011022Y034435D01*
X011022Y034436D02*
X009978Y034436D01*
X009978Y034437D02*
X011022Y034437D01*
X011022Y034438D02*
X009978Y034438D01*
X009978Y034439D02*
X011022Y034439D01*
X011022Y034440D02*
X009978Y034440D01*
X009978Y034441D02*
X011022Y034441D01*
X011022Y034442D02*
X009978Y034442D01*
X009978Y034443D02*
X011022Y034443D01*
X011022Y034444D02*
X009978Y034444D01*
X009978Y034445D02*
X011022Y034445D01*
X011022Y034446D02*
X009978Y034446D01*
X009978Y034447D02*
X011022Y034447D01*
X011022Y034448D02*
X009978Y034448D01*
X009978Y034449D02*
X011022Y034449D01*
X011022Y034450D02*
X009978Y034450D01*
X009978Y034451D02*
X011022Y034451D01*
X011022Y034452D02*
X009978Y034452D01*
X009978Y034453D02*
X011022Y034453D01*
X011022Y034454D02*
X009978Y034454D01*
X009978Y034455D02*
X011022Y034455D01*
X011022Y034456D02*
X009978Y034456D01*
X009978Y034457D02*
X011022Y034457D01*
X011022Y034458D02*
X009978Y034458D01*
X009978Y034459D02*
X011022Y034459D01*
X011022Y034460D02*
X009978Y034460D01*
X009978Y034461D02*
X011022Y034461D01*
X011022Y034462D02*
X009978Y034462D01*
X009978Y034463D02*
X011022Y034463D01*
X011022Y034464D02*
X009978Y034464D01*
X009978Y034465D02*
X011022Y034465D01*
X011022Y034466D02*
X009978Y034466D01*
X009978Y034467D02*
X011022Y034467D01*
X011022Y034468D02*
X009978Y034468D01*
X009978Y034469D02*
X011022Y034469D01*
X011022Y034470D02*
X009978Y034470D01*
X009978Y034471D02*
X011022Y034471D01*
X011022Y034472D02*
X009978Y034472D01*
X009978Y034473D02*
X011022Y034473D01*
X011022Y034474D02*
X009978Y034474D01*
X009978Y034475D02*
X011022Y034475D01*
X011022Y034476D02*
X009978Y034476D01*
X009978Y034477D02*
X011022Y034477D01*
X011022Y034478D02*
X009978Y034478D01*
X009978Y034479D02*
X011022Y034479D01*
X011022Y034480D02*
X009978Y034480D01*
X009978Y034481D02*
X011022Y034481D01*
X011022Y034482D02*
X009978Y034482D01*
X009978Y034483D02*
X011022Y034483D01*
X011022Y034484D02*
X009978Y034484D01*
X009978Y034485D02*
X011022Y034485D01*
X011022Y034486D02*
X009978Y034486D01*
X009978Y034487D02*
X011022Y034487D01*
X011022Y034488D02*
X009978Y034488D01*
X009978Y034489D02*
X011022Y034489D01*
X011022Y034490D02*
X009978Y034490D01*
X009978Y034491D02*
X011022Y034491D01*
X011022Y034492D02*
X009978Y034492D01*
X009978Y034493D02*
X011022Y034493D01*
X011022Y034494D02*
X009978Y034494D01*
X009978Y034495D02*
X011022Y034495D01*
X011022Y034496D02*
X009978Y034496D01*
X009978Y034497D02*
X011022Y034497D01*
X011022Y034498D02*
X009978Y034498D01*
X009978Y034499D02*
X011022Y034499D01*
X011022Y034500D02*
X009978Y034500D01*
X009978Y034501D02*
X011022Y034501D01*
X011022Y034502D02*
X009978Y034502D01*
X009978Y034503D02*
X011022Y034503D01*
X011022Y034504D02*
X009978Y034504D01*
X009978Y034505D02*
X011022Y034505D01*
X011022Y034506D02*
X009978Y034506D01*
X009978Y034507D02*
X011022Y034507D01*
X011022Y034508D02*
X009978Y034508D01*
X009978Y034509D02*
X011022Y034509D01*
X011022Y034510D02*
X009978Y034510D01*
X009978Y034511D02*
X011022Y034511D01*
X011022Y034512D02*
X009978Y034512D01*
X009978Y034513D02*
X011022Y034513D01*
X011022Y034514D02*
X009978Y034514D01*
X009978Y034515D02*
X011022Y034515D01*
X011022Y034516D02*
X009978Y034516D01*
X009978Y034517D02*
X011022Y034517D01*
X011022Y034518D02*
X009978Y034518D01*
X009978Y034519D02*
X011022Y034519D01*
X011022Y034520D02*
X009978Y034520D01*
X009978Y034521D02*
X011022Y034521D01*
X011022Y034522D02*
X009978Y034522D01*
X009978Y034523D02*
X011022Y034523D01*
X011022Y034524D02*
X009978Y034524D01*
X009978Y034525D02*
X011022Y034525D01*
X011022Y034526D02*
X009978Y034526D01*
X009978Y034527D02*
X011022Y034527D01*
X011022Y034528D02*
X009978Y034528D01*
X009978Y034529D02*
X011022Y034529D01*
X011022Y034530D02*
X009978Y034530D01*
X009978Y034531D02*
X011022Y034531D01*
X011022Y034532D02*
X009978Y034532D01*
X009978Y034533D02*
X011022Y034533D01*
X011022Y034534D02*
X009978Y034534D01*
X009978Y034535D02*
X011022Y034535D01*
X011022Y034536D02*
X009978Y034536D01*
X009978Y034537D02*
X011022Y034537D01*
X011022Y034538D02*
X009978Y034538D01*
X009978Y034539D02*
X011022Y034539D01*
X011022Y034540D02*
X009978Y034540D01*
X009978Y034541D02*
X011022Y034541D01*
X011022Y034542D02*
X009978Y034542D01*
X009978Y034543D02*
X011022Y034543D01*
X011022Y034544D02*
X009978Y034544D01*
X009978Y034545D02*
X011022Y034545D01*
X011022Y034546D02*
X009978Y034546D01*
X009978Y034547D02*
X011022Y034547D01*
X011022Y034548D02*
X009978Y034548D01*
X009978Y034549D02*
X011022Y034549D01*
X011022Y034550D02*
X009978Y034550D01*
X009978Y034551D02*
X011022Y034551D01*
X011022Y034552D02*
X009978Y034552D01*
X009978Y034553D02*
X011022Y034553D01*
X011022Y034554D02*
X009978Y034554D01*
X009978Y034555D02*
X011022Y034555D01*
X011022Y034556D02*
X009978Y034556D01*
X009978Y034557D02*
X011022Y034557D01*
X011022Y034558D02*
X009978Y034558D01*
X009978Y034559D02*
X011022Y034559D01*
X011022Y034560D02*
X009978Y034560D01*
X009978Y034561D02*
X011022Y034561D01*
X011022Y034562D02*
X009978Y034562D01*
X009978Y034563D02*
X011022Y034563D01*
X011022Y034564D02*
X009978Y034564D01*
X009978Y034565D02*
X011022Y034565D01*
X011022Y034566D02*
X009978Y034566D01*
X009978Y034567D02*
X011022Y034567D01*
X011022Y034568D02*
X009978Y034568D01*
X009978Y034569D02*
X011022Y034569D01*
X011022Y034570D02*
X009978Y034570D01*
X009978Y034571D02*
X011022Y034571D01*
X011022Y034572D02*
X009978Y034572D01*
X009978Y034573D02*
X011022Y034573D01*
X011022Y034574D02*
X009978Y034574D01*
X009978Y034575D02*
X011022Y034575D01*
X011022Y034576D02*
X009978Y034576D01*
X009978Y034577D02*
X011022Y034577D01*
X011022Y034578D02*
X009978Y034578D01*
X009978Y034579D02*
X011022Y034579D01*
X011022Y034580D02*
X009978Y034580D01*
X009978Y034581D02*
X011022Y034581D01*
X011022Y034582D02*
X009978Y034582D01*
X009978Y034583D02*
X011022Y034583D01*
X011022Y034584D02*
X009978Y034584D01*
X009978Y034585D02*
X011022Y034585D01*
X011022Y034586D02*
X009978Y034586D01*
X009978Y034587D02*
X011022Y034587D01*
X011022Y034588D02*
X009978Y034588D01*
X009978Y034589D02*
X011022Y034589D01*
X011022Y034590D02*
X009978Y034590D01*
X009978Y034591D02*
X011022Y034591D01*
X011022Y034592D02*
X009978Y034592D01*
X009978Y034593D02*
X011022Y034593D01*
X011022Y034594D02*
X009978Y034594D01*
X009978Y034595D02*
X011022Y034595D01*
X011022Y034596D02*
X009978Y034596D01*
X009978Y034597D02*
X011022Y034597D01*
X011022Y034598D02*
X009978Y034598D01*
X009978Y034599D02*
X011022Y034599D01*
X011022Y034600D02*
X009978Y034600D01*
X009978Y034601D02*
X011022Y034601D01*
X011022Y034602D02*
X009978Y034602D01*
X009978Y034603D02*
X011022Y034603D01*
X011022Y034604D02*
X009978Y034604D01*
X009978Y034605D02*
X011022Y034605D01*
X011022Y034606D02*
X009978Y034606D01*
X009978Y034607D02*
X011022Y034607D01*
X011022Y034608D02*
X009978Y034608D01*
X009978Y034609D02*
X011022Y034609D01*
X011022Y034610D02*
X009978Y034610D01*
X009978Y034611D02*
X011022Y034611D01*
X011022Y034612D02*
X009978Y034612D01*
X009978Y034613D02*
X011022Y034613D01*
X011022Y034614D02*
X009978Y034614D01*
X009978Y034615D02*
X011022Y034615D01*
X011022Y034616D02*
X009978Y034616D01*
X009978Y034617D02*
X011022Y034617D01*
X011022Y034618D02*
X009978Y034618D01*
X009978Y034619D02*
X011022Y034619D01*
X011022Y034620D02*
X009978Y034620D01*
X009978Y034621D02*
X011022Y034621D01*
X011022Y034622D02*
X009978Y034622D01*
X009978Y034623D02*
X011022Y034623D01*
X011022Y034624D02*
X009978Y034624D01*
X009978Y034625D02*
X011022Y034625D01*
X011022Y034626D02*
X009978Y034626D01*
X009978Y034627D02*
X011022Y034627D01*
X011022Y034628D02*
X009978Y034628D01*
X009978Y034629D02*
X011022Y034629D01*
X011022Y034630D02*
X009978Y034630D01*
X009978Y034631D02*
X011022Y034631D01*
X011022Y034632D02*
X009978Y034632D01*
X009978Y034633D02*
X011022Y034633D01*
X011022Y034634D02*
X009978Y034634D01*
X009978Y034635D02*
X011022Y034635D01*
X011022Y034636D02*
X009978Y034636D01*
X009978Y034637D02*
X011022Y034637D01*
X011022Y034638D02*
X009978Y034638D01*
X009978Y034639D02*
X011022Y034639D01*
X011022Y034640D02*
X009978Y034640D01*
X009978Y034641D02*
X011022Y034641D01*
X011022Y034642D02*
X009978Y034642D01*
X009978Y034643D02*
X011022Y034643D01*
X011022Y034644D02*
X009978Y034644D01*
X009978Y034645D02*
X011022Y034645D01*
X011022Y034646D02*
X009978Y034646D01*
X009978Y034647D02*
X011022Y034647D01*
X011022Y034648D02*
X009978Y034648D01*
X009978Y034649D02*
X011022Y034649D01*
X011022Y034650D02*
X009978Y034650D01*
X009978Y034651D02*
X011022Y034651D01*
X011022Y034652D02*
X009978Y034652D01*
X009978Y034653D02*
X011022Y034653D01*
X011022Y034654D02*
X009978Y034654D01*
X009978Y034655D02*
X011022Y034655D01*
X011022Y034656D02*
X009978Y034656D01*
X009978Y034657D02*
X011022Y034657D01*
X011022Y034658D02*
X009978Y034658D01*
X009978Y034659D02*
X011022Y034659D01*
X011022Y034660D02*
X009978Y034660D01*
X009978Y034661D02*
X011022Y034661D01*
X011022Y034662D02*
X009978Y034662D01*
X009978Y034663D02*
X011022Y034663D01*
X011022Y034664D02*
X009978Y034664D01*
X009978Y034665D02*
X011022Y034665D01*
X011022Y034666D02*
X009978Y034666D01*
X009978Y034667D02*
X011022Y034667D01*
X011022Y034668D02*
X009978Y034668D01*
X009978Y034669D02*
X011022Y034669D01*
X011022Y034670D02*
X009978Y034670D01*
X009978Y034671D02*
X011022Y034671D01*
X011022Y034672D02*
X009978Y034672D01*
X009978Y034673D02*
X011022Y034673D01*
X011022Y034674D02*
X009978Y034674D01*
X009978Y034675D02*
X011022Y034675D01*
X011022Y034676D02*
X009978Y034676D01*
X009978Y034677D02*
X011022Y034677D01*
X011022Y034678D02*
X009978Y034678D01*
X009978Y034679D02*
X011022Y034679D01*
X011022Y034680D02*
X009978Y034680D01*
X009978Y034681D02*
X011022Y034681D01*
X011022Y034682D02*
X009978Y034682D01*
X009978Y034683D02*
X011022Y034683D01*
X011022Y034684D02*
X009978Y034684D01*
X009978Y034685D02*
X011022Y034685D01*
X011022Y034686D02*
X009978Y034686D01*
X009978Y034687D02*
X011022Y034687D01*
X011022Y034688D02*
X009978Y034688D01*
X009978Y034689D02*
X011022Y034689D01*
X011022Y034690D02*
X009978Y034690D01*
X009978Y034691D02*
X011022Y034691D01*
X011022Y034692D02*
X009978Y034692D01*
X009978Y034693D02*
X011022Y034693D01*
X011022Y034694D02*
X009978Y034694D01*
X009978Y034695D02*
X011022Y034695D01*
X011022Y034696D02*
X009978Y034696D01*
X009978Y034697D02*
X011022Y034697D01*
X011022Y034698D02*
X009978Y034698D01*
X009978Y034699D02*
X011022Y034699D01*
X011022Y034700D02*
X009978Y034700D01*
X009978Y034701D02*
X011022Y034701D01*
X011022Y034702D02*
X009978Y034702D01*
X009978Y034703D02*
X011022Y034703D01*
X011022Y034704D02*
X009978Y034704D01*
X009978Y034705D02*
X011022Y034705D01*
X011022Y034706D02*
X009978Y034706D01*
X009978Y034707D02*
X011022Y034707D01*
X011022Y034708D02*
X009978Y034708D01*
X009978Y034709D02*
X011022Y034709D01*
X011022Y034710D02*
X009978Y034710D01*
X009978Y034711D02*
X011022Y034711D01*
X011022Y034712D02*
X009978Y034712D01*
X009978Y034713D02*
X011022Y034713D01*
X011022Y034714D02*
X009978Y034714D01*
X009978Y034715D02*
X011022Y034715D01*
X011022Y034716D02*
X009978Y034716D01*
X009978Y034717D02*
X011022Y034717D01*
X011022Y034718D02*
X009978Y034718D01*
X009978Y034719D02*
X011022Y034719D01*
X011022Y034720D02*
X009978Y034720D01*
X009978Y034721D02*
X011022Y034721D01*
X011022Y034722D02*
X009978Y034722D01*
X009978Y034723D02*
X011022Y034723D01*
X011022Y034724D02*
X009978Y034724D01*
X009978Y034725D02*
X011022Y034725D01*
X011022Y034726D02*
X009978Y034726D01*
X009978Y034727D02*
X011022Y034727D01*
X011022Y034728D02*
X009978Y034728D01*
X009978Y034729D02*
X011022Y034729D01*
X011022Y034730D02*
X009978Y034730D01*
X009978Y034731D02*
X011022Y034731D01*
X011022Y034732D02*
X009978Y034732D01*
X009978Y034733D02*
X011022Y034733D01*
X011022Y034734D02*
X009978Y034734D01*
X009978Y034735D02*
X011022Y034735D01*
X011022Y034736D02*
X009978Y034736D01*
X009978Y034737D02*
X011022Y034737D01*
X011022Y034738D02*
X009978Y034738D01*
X009978Y034739D02*
X011022Y034739D01*
X011022Y034740D02*
X009978Y034740D01*
X009978Y034741D02*
X011022Y034741D01*
X011022Y034742D02*
X009978Y034742D01*
X009978Y034743D02*
X011022Y034743D01*
X011022Y034744D02*
X009978Y034744D01*
X009978Y034745D02*
X011022Y034745D01*
X011022Y034746D02*
X009978Y034746D01*
X009978Y034747D02*
X011022Y034747D01*
X011022Y034748D02*
X009978Y034748D01*
X009978Y034749D02*
X011022Y034749D01*
X011022Y034750D02*
X009978Y034750D01*
X009978Y034751D02*
X011022Y034751D01*
X011022Y034752D02*
X009978Y034752D01*
X009978Y034753D02*
X011022Y034753D01*
X011022Y034754D02*
X009978Y034754D01*
X009978Y034755D02*
X011022Y034755D01*
X011022Y034756D02*
X009978Y034756D01*
X009978Y034757D02*
X011022Y034757D01*
X011022Y034758D02*
X009978Y034758D01*
X009978Y034759D02*
X011022Y034759D01*
X011022Y034760D02*
X009978Y034760D01*
X009978Y034761D02*
X011022Y034761D01*
X011022Y034762D02*
X009978Y034762D01*
X009978Y034763D02*
X011022Y034763D01*
X011022Y034764D02*
X009978Y034764D01*
X009978Y034765D02*
X011022Y034765D01*
X011022Y034766D02*
X009978Y034766D01*
X009978Y034767D02*
X011022Y034767D01*
X011022Y034768D02*
X009978Y034768D01*
X009978Y034769D02*
X011022Y034769D01*
X011022Y034770D02*
X009978Y034770D01*
X009978Y034771D02*
X011022Y034771D01*
X011022Y034772D02*
X009978Y034772D01*
X009978Y034773D02*
X011022Y034773D01*
X011022Y034774D02*
X009978Y034774D01*
X009978Y034775D02*
X011022Y034775D01*
X011022Y034776D02*
X009978Y034776D01*
X009978Y034777D02*
X011022Y034777D01*
X011022Y034778D02*
X009978Y034778D01*
X009978Y034779D02*
X011022Y034779D01*
X011022Y034780D02*
X009978Y034780D01*
X009978Y034781D02*
X011022Y034781D01*
X011022Y034782D02*
X009978Y034782D01*
X009978Y034783D02*
X011022Y034783D01*
X011022Y034784D02*
X009978Y034784D01*
X009978Y034785D02*
X011022Y034785D01*
X011022Y034786D02*
X009978Y034786D01*
X009978Y034787D02*
X011022Y034787D01*
X011022Y034788D02*
X009978Y034788D01*
X009978Y034789D02*
X011022Y034789D01*
X011022Y034790D02*
X009978Y034790D01*
X009978Y034791D02*
X011022Y034791D01*
X011022Y034792D02*
X009978Y034792D01*
X009978Y034793D02*
X011022Y034793D01*
X011022Y034794D02*
X009978Y034794D01*
X009978Y034795D02*
X011022Y034795D01*
X011022Y034796D02*
X009978Y034796D01*
X009978Y034797D02*
X011022Y034797D01*
X011022Y034798D02*
X009978Y034798D01*
X009978Y034799D02*
X011022Y034799D01*
X011022Y034800D02*
X009978Y034800D01*
X009978Y034801D02*
X011022Y034801D01*
X011022Y034802D02*
X009978Y034802D01*
X009978Y034803D02*
X011022Y034803D01*
X011022Y034804D02*
X009978Y034804D01*
X009978Y034805D02*
X011022Y034805D01*
X011022Y034806D02*
X009978Y034806D01*
X009978Y034807D02*
X011022Y034807D01*
X011022Y034808D02*
X009978Y034808D01*
X009978Y034809D02*
X011022Y034809D01*
X011022Y034810D02*
X009978Y034810D01*
X009978Y034811D02*
X011022Y034811D01*
X011022Y034812D02*
X009978Y034812D01*
X009978Y034813D02*
X011022Y034813D01*
X011022Y034814D02*
X009978Y034814D01*
X009978Y034815D02*
X011022Y034815D01*
X011022Y034816D02*
X009978Y034816D01*
X009978Y034817D02*
X011022Y034817D01*
X011022Y034818D02*
X009978Y034818D01*
X009978Y034819D02*
X011022Y034819D01*
X011022Y034820D02*
X009978Y034820D01*
X009978Y034821D02*
X011022Y034821D01*
X011022Y034822D02*
X009978Y034822D01*
X009978Y034823D02*
X011022Y034823D01*
X011022Y034824D02*
X009978Y034824D01*
X009978Y034825D02*
X011022Y034825D01*
X011022Y034826D02*
X009978Y034826D01*
X009978Y034827D02*
X011022Y034827D01*
X011022Y034828D02*
X009978Y034828D01*
X009978Y034829D02*
X011022Y034829D01*
X011022Y034830D02*
X009978Y034830D01*
X009978Y034831D02*
X011022Y034831D01*
X011022Y034832D02*
X009978Y034832D01*
X009978Y034833D02*
X011022Y034833D01*
X011022Y034834D02*
X009978Y034834D01*
X009978Y034835D02*
X011022Y034835D01*
X011022Y034836D02*
X009978Y034836D01*
X009978Y034837D02*
X011022Y034837D01*
X011022Y034838D02*
X009978Y034838D01*
X009978Y034839D02*
X011022Y034839D01*
X011022Y034840D02*
X009978Y034840D01*
X009978Y034841D02*
X011022Y034841D01*
X011022Y034842D02*
X009978Y034842D01*
X009978Y034843D02*
X011022Y034843D01*
X011022Y034844D02*
X009978Y034844D01*
X009978Y034845D02*
X011022Y034845D01*
X011022Y034846D02*
X009978Y034846D01*
X009978Y034847D02*
X011022Y034847D01*
X011022Y034848D02*
X009978Y034848D01*
X009978Y034849D02*
X011022Y034849D01*
X011022Y034850D02*
X009978Y034850D01*
X009978Y034851D02*
X011022Y034851D01*
X011022Y034852D02*
X009978Y034852D01*
X009978Y034853D02*
X011022Y034853D01*
X011022Y034854D02*
X009978Y034854D01*
X009978Y034855D02*
X011022Y034855D01*
X011022Y034856D02*
X009978Y034856D01*
X009978Y034857D02*
X011022Y034857D01*
X011022Y034858D02*
X009978Y034858D01*
X009978Y034859D02*
X011022Y034859D01*
X011022Y034860D02*
X009978Y034860D01*
X009978Y034861D02*
X011022Y034861D01*
X011022Y034862D02*
X009978Y034862D01*
X009978Y034863D02*
X011022Y034863D01*
X011022Y034864D02*
X009978Y034864D01*
X009978Y034865D02*
X011022Y034865D01*
X011022Y034866D02*
X009978Y034866D01*
X009978Y034867D02*
X011022Y034867D01*
X011022Y034868D02*
X009978Y034868D01*
X009978Y034869D02*
X011022Y034869D01*
X011022Y034870D02*
X009978Y034870D01*
X009978Y034871D02*
X011022Y034871D01*
X011022Y034872D02*
X009978Y034872D01*
X009978Y034873D02*
X011022Y034873D01*
X011022Y034874D02*
X009978Y034874D01*
X009978Y034875D02*
X011022Y034875D01*
X011022Y034876D02*
X009978Y034876D01*
X009978Y034877D02*
X011022Y034877D01*
X011022Y034878D02*
X009978Y034878D01*
X009978Y034879D02*
X011022Y034879D01*
X011022Y034880D02*
X009978Y034880D01*
X009978Y034881D02*
X011022Y034881D01*
X011022Y034882D02*
X009978Y034882D01*
X009978Y034883D02*
X011022Y034883D01*
X011022Y034884D02*
X009978Y034884D01*
X009978Y034885D02*
X011022Y034885D01*
X011022Y034886D02*
X009978Y034886D01*
X009978Y034887D02*
X011022Y034887D01*
X011022Y034888D02*
X009978Y034888D01*
X009978Y034889D02*
X011022Y034889D01*
X011022Y034890D02*
X009978Y034890D01*
X009978Y034891D02*
X011022Y034891D01*
X011022Y034892D02*
X009978Y034892D01*
X009978Y034893D02*
X011022Y034893D01*
X011022Y034894D02*
X009978Y034894D01*
X009978Y034895D02*
X011022Y034895D01*
X011022Y034896D02*
X009978Y034896D01*
X009978Y034897D02*
X011022Y034897D01*
X011022Y034898D02*
X009978Y034898D01*
X009978Y034899D02*
X011022Y034899D01*
X011022Y034900D02*
X009978Y034900D01*
X009978Y034901D02*
X011022Y034901D01*
X011022Y034902D02*
X009978Y034902D01*
X009978Y034903D02*
X011022Y034903D01*
X011022Y034904D02*
X009978Y034904D01*
X009978Y034905D02*
X011022Y034905D01*
X011022Y034906D02*
X009978Y034906D01*
X009978Y034907D02*
X011022Y034907D01*
X011022Y034908D02*
X009978Y034908D01*
X009978Y034909D02*
X011022Y034909D01*
X011022Y034910D02*
X009978Y034910D01*
X009978Y034911D02*
X011022Y034911D01*
X011022Y034912D02*
X009978Y034912D01*
X009978Y034913D02*
X011022Y034913D01*
X011022Y034914D02*
X009978Y034914D01*
X009978Y034915D02*
X011022Y034915D01*
X011022Y034916D02*
X009978Y034916D01*
X009978Y034917D02*
X011022Y034917D01*
X011022Y034918D02*
X009978Y034918D01*
X009978Y034919D02*
X011022Y034919D01*
X011022Y034920D02*
X009978Y034920D01*
X009978Y034921D02*
X011022Y034921D01*
X011022Y034922D02*
X009978Y034922D01*
X009978Y034923D02*
X011022Y034923D01*
X011022Y034924D02*
X009978Y034924D01*
X009978Y034925D02*
X011022Y034925D01*
X011022Y034926D02*
X009978Y034926D01*
X009978Y034927D02*
X011022Y034927D01*
X011022Y034928D02*
X009978Y034928D01*
X009978Y034929D02*
X011022Y034929D01*
X011022Y034930D02*
X009978Y034930D01*
X009978Y034931D02*
X011022Y034931D01*
X011022Y034932D02*
X009978Y034932D01*
X009978Y034933D02*
X011022Y034933D01*
X011022Y034934D02*
X009978Y034934D01*
X009978Y034935D02*
X011022Y034935D01*
X011022Y034936D02*
X009978Y034936D01*
X009978Y034937D02*
X011022Y034937D01*
X011022Y034938D02*
X009978Y034938D01*
X009978Y034939D02*
X011022Y034939D01*
X011022Y034940D02*
X009978Y034940D01*
X009978Y034941D02*
X011022Y034941D01*
X011022Y034942D02*
X009978Y034942D01*
X009978Y034943D02*
X011022Y034943D01*
X011022Y034944D02*
X009978Y034944D01*
X009978Y034945D02*
X011022Y034945D01*
X011022Y034946D02*
X009978Y034946D01*
X009978Y034947D02*
X011022Y034947D01*
X011022Y034948D02*
X009978Y034948D01*
X009978Y034949D02*
X011022Y034949D01*
X011022Y034950D02*
X009978Y034950D01*
X009978Y034951D02*
X011022Y034951D01*
X011022Y034952D02*
X009978Y034952D01*
X009978Y034953D02*
X011022Y034953D01*
X011022Y034954D02*
X009978Y034954D01*
X009978Y034955D02*
X011022Y034955D01*
X011022Y034956D02*
X009978Y034956D01*
X009978Y034957D02*
X011022Y034957D01*
X011022Y034958D02*
X009978Y034958D01*
X009978Y034959D02*
X011022Y034959D01*
X011022Y034960D02*
X009978Y034960D01*
X009978Y034961D02*
X011022Y034961D01*
X011022Y034962D02*
X009978Y034962D01*
X009978Y034963D02*
X011022Y034963D01*
X011022Y034964D02*
X009978Y034964D01*
X009978Y034965D02*
X010106Y034965D01*
X010106Y034966D02*
X009978Y034966D01*
X009978Y034967D02*
X010106Y034967D01*
X010106Y034968D02*
X009978Y034968D01*
X009978Y034969D02*
X010106Y034969D01*
X010106Y034970D02*
X009978Y034970D01*
X009978Y034971D02*
X010106Y034971D01*
X010106Y034972D02*
X009978Y034972D01*
X009978Y034973D02*
X010106Y034973D01*
X010106Y034974D02*
X009978Y034974D01*
X009978Y034975D02*
X010106Y034975D01*
X010106Y034976D02*
X009978Y034976D01*
X009978Y034977D02*
X010106Y034977D01*
X010106Y034978D02*
X009978Y034978D01*
X009978Y034979D02*
X010106Y034979D01*
X010106Y034980D02*
X009978Y034980D01*
X009978Y034981D02*
X010106Y034981D01*
X010106Y034982D02*
X009978Y034982D01*
X009978Y034983D02*
X010106Y034983D01*
X010106Y034984D02*
X009978Y034984D01*
X009978Y034985D02*
X010106Y034985D01*
X010106Y034986D02*
X009978Y034986D01*
X009978Y034987D02*
X010106Y034987D01*
X010894Y034987D02*
X011022Y034987D01*
X011022Y034986D02*
X010894Y034986D01*
X010894Y034985D02*
X011022Y034985D01*
X011022Y034984D02*
X010894Y034984D01*
X010894Y034983D02*
X011022Y034983D01*
X011022Y034982D02*
X010894Y034982D01*
X010894Y034981D02*
X011022Y034981D01*
X011022Y034980D02*
X010894Y034980D01*
X010894Y034979D02*
X011022Y034979D01*
X011022Y034978D02*
X010894Y034978D01*
X010894Y034977D02*
X011022Y034977D01*
X011022Y034976D02*
X010894Y034976D01*
X010894Y034975D02*
X011022Y034975D01*
X011022Y034974D02*
X010894Y034974D01*
X010894Y034973D02*
X011022Y034973D01*
X011022Y034972D02*
X010894Y034972D01*
X010894Y034971D02*
X011022Y034971D01*
X011022Y034970D02*
X010894Y034970D01*
X010894Y034969D02*
X011022Y034969D01*
X011022Y034968D02*
X010894Y034968D01*
X010894Y034967D02*
X011022Y034967D01*
X011022Y034966D02*
X010894Y034966D01*
X010894Y034965D02*
X011022Y034965D01*
X007222Y034968D02*
X007094Y034968D01*
X007094Y034969D02*
X007222Y034969D01*
X007222Y034970D02*
X007094Y034970D01*
X007094Y034971D02*
X007222Y034971D01*
X007222Y034972D02*
X007094Y034972D01*
X007094Y034973D02*
X007222Y034973D01*
X007222Y034974D02*
X007094Y034974D01*
X007094Y034975D02*
X007222Y034975D01*
X007222Y034976D02*
X007094Y034976D01*
X007094Y034977D02*
X007222Y034977D01*
X007222Y034978D02*
X007094Y034978D01*
X007094Y034979D02*
X007222Y034979D01*
X007222Y034980D02*
X007094Y034980D01*
X007094Y034981D02*
X007222Y034981D01*
X007222Y034982D02*
X007094Y034982D01*
X007094Y034983D02*
X007222Y034983D01*
X007222Y034984D02*
X007094Y034984D01*
X007094Y034985D02*
X007222Y034985D01*
X007222Y034986D02*
X007094Y034986D01*
X007094Y034987D02*
X007222Y034987D01*
X007222Y034967D02*
X007094Y034967D01*
X007094Y034966D02*
X007222Y034966D01*
X007222Y034965D02*
X007094Y034965D01*
X007222Y034964D02*
X006178Y034964D01*
X006178Y034965D02*
X006306Y034965D01*
X006306Y034966D02*
X006178Y034966D01*
X006178Y034967D02*
X006306Y034967D01*
X006306Y034968D02*
X006178Y034968D01*
X006178Y034969D02*
X006306Y034969D01*
X006306Y034970D02*
X006178Y034970D01*
X006178Y034971D02*
X006306Y034971D01*
X006306Y034972D02*
X006178Y034972D01*
X006178Y034973D02*
X006306Y034973D01*
X006306Y034974D02*
X006178Y034974D01*
X006178Y034975D02*
X006306Y034975D01*
X006306Y034976D02*
X006178Y034976D01*
X006178Y034977D02*
X006306Y034977D01*
X006306Y034978D02*
X006178Y034978D01*
X006178Y034979D02*
X006306Y034979D01*
X006306Y034980D02*
X006178Y034980D01*
X006178Y034981D02*
X006306Y034981D01*
X006306Y034982D02*
X006178Y034982D01*
X006178Y034983D02*
X006306Y034983D01*
X006306Y034984D02*
X006178Y034984D01*
X006178Y034985D02*
X006306Y034985D01*
X006306Y034986D02*
X006178Y034986D01*
X006178Y034987D02*
X006306Y034987D01*
X006178Y034963D02*
X007222Y034963D01*
X007222Y034962D02*
X006178Y034962D01*
X006178Y034961D02*
X007222Y034961D01*
X007222Y034960D02*
X006178Y034960D01*
X006178Y034959D02*
X007222Y034959D01*
X007222Y034958D02*
X006178Y034958D01*
X006178Y034957D02*
X007222Y034957D01*
X007222Y034956D02*
X006178Y034956D01*
X006178Y034955D02*
X007222Y034955D01*
X007222Y034954D02*
X006178Y034954D01*
X006178Y034953D02*
X007222Y034953D01*
X007222Y034952D02*
X006178Y034952D01*
X006178Y034951D02*
X007222Y034951D01*
X007222Y034950D02*
X006178Y034950D01*
X006178Y034949D02*
X007222Y034949D01*
X007222Y034948D02*
X006178Y034948D01*
X006178Y034947D02*
X007222Y034947D01*
X007222Y034946D02*
X006178Y034946D01*
X006178Y034945D02*
X007222Y034945D01*
X007222Y034944D02*
X006178Y034944D01*
X006178Y034943D02*
X007222Y034943D01*
X007222Y034942D02*
X006178Y034942D01*
X006178Y034941D02*
X007222Y034941D01*
X007222Y034940D02*
X006178Y034940D01*
X006178Y034939D02*
X007222Y034939D01*
X007222Y034938D02*
X006178Y034938D01*
X006178Y034937D02*
X007222Y034937D01*
X007222Y034936D02*
X006178Y034936D01*
X006178Y034935D02*
X007222Y034935D01*
X007222Y034934D02*
X006178Y034934D01*
X006178Y034933D02*
X007222Y034933D01*
X007222Y034932D02*
X006178Y034932D01*
X006178Y034931D02*
X007222Y034931D01*
X007222Y034930D02*
X006178Y034930D01*
X006178Y034929D02*
X007222Y034929D01*
X007222Y034928D02*
X006178Y034928D01*
X006178Y034927D02*
X007222Y034927D01*
X007222Y034926D02*
X006178Y034926D01*
X006178Y034925D02*
X007222Y034925D01*
X007222Y034924D02*
X006178Y034924D01*
X006178Y034923D02*
X007222Y034923D01*
X007222Y034922D02*
X006178Y034922D01*
X006178Y034921D02*
X007222Y034921D01*
X007222Y034920D02*
X006178Y034920D01*
X006178Y034919D02*
X007222Y034919D01*
X007222Y034918D02*
X006178Y034918D01*
X006178Y034917D02*
X007222Y034917D01*
X007222Y034916D02*
X006178Y034916D01*
X006178Y034915D02*
X007222Y034915D01*
X007222Y034914D02*
X006178Y034914D01*
X006178Y034913D02*
X007222Y034913D01*
X007222Y034912D02*
X006178Y034912D01*
X006178Y034911D02*
X007222Y034911D01*
X007222Y034910D02*
X006178Y034910D01*
X006178Y034909D02*
X007222Y034909D01*
X007222Y034908D02*
X006178Y034908D01*
X006178Y034907D02*
X007222Y034907D01*
X007222Y034906D02*
X006178Y034906D01*
X006178Y034905D02*
X007222Y034905D01*
X007222Y034904D02*
X006178Y034904D01*
X006178Y034903D02*
X007222Y034903D01*
X007222Y034902D02*
X006178Y034902D01*
X006178Y034901D02*
X007222Y034901D01*
X007222Y034900D02*
X006178Y034900D01*
X006178Y034899D02*
X007222Y034899D01*
X007222Y034898D02*
X006178Y034898D01*
X006178Y034897D02*
X007222Y034897D01*
X007222Y034896D02*
X006178Y034896D01*
X006178Y034895D02*
X007222Y034895D01*
X007222Y034894D02*
X006178Y034894D01*
X006178Y034893D02*
X007222Y034893D01*
X007222Y034892D02*
X006178Y034892D01*
X006178Y034891D02*
X007222Y034891D01*
X007222Y034890D02*
X006178Y034890D01*
X006178Y034889D02*
X007222Y034889D01*
X007222Y034888D02*
X006178Y034888D01*
X006178Y034887D02*
X007222Y034887D01*
X007222Y034886D02*
X006178Y034886D01*
X006178Y034885D02*
X007222Y034885D01*
X007222Y034884D02*
X006178Y034884D01*
X006178Y034883D02*
X007222Y034883D01*
X007222Y034882D02*
X006178Y034882D01*
X006178Y034881D02*
X007222Y034881D01*
X007222Y034880D02*
X006178Y034880D01*
X006178Y034879D02*
X007222Y034879D01*
X007222Y034878D02*
X006178Y034878D01*
X006178Y034877D02*
X007222Y034877D01*
X007222Y034876D02*
X006178Y034876D01*
X006178Y034875D02*
X007222Y034875D01*
X007222Y034874D02*
X006178Y034874D01*
X006178Y034873D02*
X007222Y034873D01*
X007222Y034872D02*
X006178Y034872D01*
X006178Y034871D02*
X007222Y034871D01*
X007222Y034870D02*
X006178Y034870D01*
X006178Y034869D02*
X007222Y034869D01*
X007222Y034868D02*
X006178Y034868D01*
X006178Y034867D02*
X007222Y034867D01*
X007222Y034866D02*
X006178Y034866D01*
X006178Y034865D02*
X007222Y034865D01*
X007222Y034864D02*
X006178Y034864D01*
X006178Y034863D02*
X007222Y034863D01*
X007222Y034862D02*
X006178Y034862D01*
X006178Y034861D02*
X007222Y034861D01*
X007222Y034860D02*
X006178Y034860D01*
X006178Y034859D02*
X007222Y034859D01*
X007222Y034858D02*
X006178Y034858D01*
X006178Y034857D02*
X007222Y034857D01*
X007222Y034856D02*
X006178Y034856D01*
X006178Y034855D02*
X007222Y034855D01*
X007222Y034854D02*
X006178Y034854D01*
X006178Y034853D02*
X007222Y034853D01*
X007222Y034852D02*
X006178Y034852D01*
X006178Y034851D02*
X007222Y034851D01*
X007222Y034850D02*
X006178Y034850D01*
X006178Y034849D02*
X007222Y034849D01*
X007222Y034848D02*
X006178Y034848D01*
X006178Y034847D02*
X007222Y034847D01*
X007222Y034846D02*
X006178Y034846D01*
X006178Y034845D02*
X007222Y034845D01*
X007222Y034844D02*
X006178Y034844D01*
X006178Y034843D02*
X007222Y034843D01*
X007222Y034842D02*
X006178Y034842D01*
X006178Y034841D02*
X007222Y034841D01*
X007222Y034840D02*
X006178Y034840D01*
X006178Y034839D02*
X007222Y034839D01*
X007222Y034838D02*
X006178Y034838D01*
X006178Y034837D02*
X007222Y034837D01*
X007222Y034836D02*
X006178Y034836D01*
X006178Y034835D02*
X007222Y034835D01*
X007222Y034834D02*
X006178Y034834D01*
X006178Y034833D02*
X007222Y034833D01*
X007222Y034832D02*
X006178Y034832D01*
X006178Y034831D02*
X007222Y034831D01*
X007222Y034830D02*
X006178Y034830D01*
X006178Y034829D02*
X007222Y034829D01*
X007222Y034828D02*
X006178Y034828D01*
X006178Y034827D02*
X007222Y034827D01*
X007222Y034826D02*
X006178Y034826D01*
X006178Y034825D02*
X007222Y034825D01*
X007222Y034824D02*
X006178Y034824D01*
X006178Y034823D02*
X007222Y034823D01*
X007222Y034822D02*
X006178Y034822D01*
X006178Y034821D02*
X007222Y034821D01*
X007222Y034820D02*
X006178Y034820D01*
X006178Y034819D02*
X007222Y034819D01*
X007222Y034818D02*
X006178Y034818D01*
X006178Y034817D02*
X007222Y034817D01*
X007222Y034816D02*
X006178Y034816D01*
X006178Y034815D02*
X007222Y034815D01*
X007222Y034814D02*
X006178Y034814D01*
X006178Y034813D02*
X007222Y034813D01*
X007222Y034812D02*
X006178Y034812D01*
X006178Y034811D02*
X007222Y034811D01*
X007222Y034810D02*
X006178Y034810D01*
X006178Y034809D02*
X007222Y034809D01*
X007222Y034808D02*
X006178Y034808D01*
X006178Y034807D02*
X007222Y034807D01*
X007222Y034806D02*
X006178Y034806D01*
X006178Y034805D02*
X007222Y034805D01*
X007222Y034804D02*
X006178Y034804D01*
X006178Y034803D02*
X007222Y034803D01*
X007222Y034802D02*
X006178Y034802D01*
X006178Y034801D02*
X007222Y034801D01*
X007222Y034800D02*
X006178Y034800D01*
X006178Y034799D02*
X007222Y034799D01*
X007222Y034798D02*
X006178Y034798D01*
X006178Y034797D02*
X007222Y034797D01*
X007222Y034796D02*
X006178Y034796D01*
X006178Y034795D02*
X007222Y034795D01*
X007222Y034794D02*
X006178Y034794D01*
X006178Y034793D02*
X007222Y034793D01*
X007222Y034792D02*
X006178Y034792D01*
X006178Y034791D02*
X007222Y034791D01*
X007222Y034790D02*
X006178Y034790D01*
X006178Y034789D02*
X007222Y034789D01*
X007222Y034788D02*
X006178Y034788D01*
X006178Y034787D02*
X007222Y034787D01*
X007222Y034786D02*
X006178Y034786D01*
X006178Y034785D02*
X007222Y034785D01*
X007222Y034784D02*
X006178Y034784D01*
X006178Y034783D02*
X007222Y034783D01*
X007222Y034782D02*
X006178Y034782D01*
X006178Y034781D02*
X007222Y034781D01*
X007222Y034780D02*
X006178Y034780D01*
X006178Y034779D02*
X007222Y034779D01*
X007222Y034778D02*
X006178Y034778D01*
X006178Y034777D02*
X007222Y034777D01*
X007222Y034776D02*
X006178Y034776D01*
X006178Y034775D02*
X007222Y034775D01*
X007222Y034774D02*
X006178Y034774D01*
X006178Y034773D02*
X007222Y034773D01*
X007222Y034772D02*
X006178Y034772D01*
X006178Y034771D02*
X007222Y034771D01*
X007222Y034770D02*
X006178Y034770D01*
X006178Y034769D02*
X007222Y034769D01*
X007222Y034768D02*
X006178Y034768D01*
X006178Y034767D02*
X007222Y034767D01*
X007222Y034766D02*
X006178Y034766D01*
X006178Y034765D02*
X007222Y034765D01*
X007222Y034764D02*
X006178Y034764D01*
X006178Y034763D02*
X007222Y034763D01*
X007222Y034762D02*
X006178Y034762D01*
X006178Y034761D02*
X007222Y034761D01*
X007222Y034760D02*
X006178Y034760D01*
X006178Y034759D02*
X007222Y034759D01*
X007222Y034758D02*
X006178Y034758D01*
X006178Y034757D02*
X007222Y034757D01*
X007222Y034756D02*
X006178Y034756D01*
X006178Y034755D02*
X007222Y034755D01*
X007222Y034754D02*
X006178Y034754D01*
X006178Y034753D02*
X007222Y034753D01*
X007222Y034752D02*
X006178Y034752D01*
X006178Y034751D02*
X007222Y034751D01*
X007222Y034750D02*
X006178Y034750D01*
X006178Y034749D02*
X007222Y034749D01*
X007222Y034748D02*
X006178Y034748D01*
X006178Y034747D02*
X007222Y034747D01*
X007222Y034746D02*
X006178Y034746D01*
X006178Y034745D02*
X007222Y034745D01*
X007222Y034744D02*
X006178Y034744D01*
X006178Y034743D02*
X007222Y034743D01*
X007222Y034742D02*
X006178Y034742D01*
X006178Y034741D02*
X007222Y034741D01*
X007222Y034740D02*
X006178Y034740D01*
X006178Y034739D02*
X007222Y034739D01*
X007222Y034738D02*
X006178Y034738D01*
X006178Y034737D02*
X007222Y034737D01*
X007222Y034736D02*
X006178Y034736D01*
X006178Y034735D02*
X007222Y034735D01*
X007222Y034734D02*
X006178Y034734D01*
X006178Y034733D02*
X007222Y034733D01*
X007222Y034732D02*
X006178Y034732D01*
X006178Y034731D02*
X007222Y034731D01*
X007222Y034730D02*
X006178Y034730D01*
X006178Y034729D02*
X007222Y034729D01*
X007222Y034728D02*
X006178Y034728D01*
X006178Y034727D02*
X007222Y034727D01*
X007222Y034726D02*
X006178Y034726D01*
X006178Y034725D02*
X007222Y034725D01*
X007222Y034724D02*
X006178Y034724D01*
X006178Y034723D02*
X007222Y034723D01*
X007222Y034722D02*
X006178Y034722D01*
X006178Y034721D02*
X007222Y034721D01*
X007222Y034720D02*
X006178Y034720D01*
X006178Y034719D02*
X007222Y034719D01*
X007222Y034718D02*
X006178Y034718D01*
X006178Y034717D02*
X007222Y034717D01*
X007222Y034716D02*
X006178Y034716D01*
X006178Y034715D02*
X007222Y034715D01*
X007222Y034714D02*
X006178Y034714D01*
X006178Y034713D02*
X007222Y034713D01*
X007222Y034712D02*
X006178Y034712D01*
X006178Y034711D02*
X007222Y034711D01*
X007222Y034710D02*
X006178Y034710D01*
X006178Y034709D02*
X007222Y034709D01*
X007222Y034708D02*
X006178Y034708D01*
X006178Y034707D02*
X007222Y034707D01*
X007222Y034706D02*
X006178Y034706D01*
X006178Y034705D02*
X007222Y034705D01*
X007222Y034704D02*
X006178Y034704D01*
X006178Y034703D02*
X007222Y034703D01*
X007222Y034702D02*
X006178Y034702D01*
X006178Y034701D02*
X007222Y034701D01*
X007222Y034700D02*
X006178Y034700D01*
X006178Y034699D02*
X007222Y034699D01*
X007222Y034698D02*
X006178Y034698D01*
X006178Y034697D02*
X007222Y034697D01*
X007222Y034696D02*
X006178Y034696D01*
X006178Y034695D02*
X007222Y034695D01*
X007222Y034694D02*
X006178Y034694D01*
X006178Y034693D02*
X007222Y034693D01*
X007222Y034692D02*
X006178Y034692D01*
X006178Y034691D02*
X007222Y034691D01*
X007222Y034690D02*
X006178Y034690D01*
X006178Y034689D02*
X007222Y034689D01*
X007222Y034688D02*
X006178Y034688D01*
X006178Y034687D02*
X007222Y034687D01*
X007222Y034686D02*
X006178Y034686D01*
X006178Y034685D02*
X007222Y034685D01*
X007222Y034684D02*
X006178Y034684D01*
X006178Y034683D02*
X007222Y034683D01*
X007222Y034682D02*
X006178Y034682D01*
X006178Y034681D02*
X007222Y034681D01*
X007222Y034680D02*
X006178Y034680D01*
X006178Y034679D02*
X007222Y034679D01*
X007222Y034678D02*
X006178Y034678D01*
X006178Y034677D02*
X007222Y034677D01*
X007222Y034676D02*
X006178Y034676D01*
X006178Y034675D02*
X007222Y034675D01*
X007222Y034674D02*
X006178Y034674D01*
X006178Y034673D02*
X007222Y034673D01*
X007222Y034672D02*
X006178Y034672D01*
X006178Y034671D02*
X007222Y034671D01*
X007222Y034670D02*
X006178Y034670D01*
X006178Y034669D02*
X007222Y034669D01*
X007222Y034668D02*
X006178Y034668D01*
X006178Y034667D02*
X007222Y034667D01*
X007222Y034666D02*
X006178Y034666D01*
X006178Y034665D02*
X007222Y034665D01*
X007222Y034664D02*
X006178Y034664D01*
X006178Y034663D02*
X007222Y034663D01*
X007222Y034662D02*
X006178Y034662D01*
X006178Y034661D02*
X007222Y034661D01*
X007222Y034660D02*
X006178Y034660D01*
X006178Y034659D02*
X007222Y034659D01*
X007222Y034658D02*
X006178Y034658D01*
X006178Y034657D02*
X007222Y034657D01*
X007222Y034656D02*
X006178Y034656D01*
X006178Y034655D02*
X007222Y034655D01*
X007222Y034654D02*
X006178Y034654D01*
X006178Y034653D02*
X007222Y034653D01*
X007222Y034652D02*
X006178Y034652D01*
X006178Y034651D02*
X007222Y034651D01*
X007222Y034650D02*
X006178Y034650D01*
X006178Y034649D02*
X007222Y034649D01*
X007222Y034648D02*
X006178Y034648D01*
X006178Y034647D02*
X007222Y034647D01*
X007222Y034646D02*
X006178Y034646D01*
X006178Y034645D02*
X007222Y034645D01*
X007222Y034644D02*
X006178Y034644D01*
X006178Y034643D02*
X007222Y034643D01*
X007222Y034642D02*
X006178Y034642D01*
X006178Y034641D02*
X007222Y034641D01*
X007222Y034640D02*
X006178Y034640D01*
X006178Y034639D02*
X007222Y034639D01*
X007222Y034638D02*
X006178Y034638D01*
X006178Y034637D02*
X007222Y034637D01*
X007222Y034636D02*
X006178Y034636D01*
X006178Y034635D02*
X007222Y034635D01*
X007222Y034634D02*
X006178Y034634D01*
X006178Y034633D02*
X007222Y034633D01*
X007222Y034632D02*
X006178Y034632D01*
X006178Y034631D02*
X007222Y034631D01*
X007222Y034630D02*
X006178Y034630D01*
X006178Y034629D02*
X007222Y034629D01*
X007222Y034628D02*
X006178Y034628D01*
X006178Y034627D02*
X007222Y034627D01*
X007222Y034626D02*
X006178Y034626D01*
X006178Y034625D02*
X007222Y034625D01*
X007222Y034624D02*
X006178Y034624D01*
X006178Y034623D02*
X007222Y034623D01*
X007222Y034622D02*
X006178Y034622D01*
X006178Y034621D02*
X007222Y034621D01*
X007222Y034620D02*
X006178Y034620D01*
X006178Y034619D02*
X007222Y034619D01*
X007222Y034618D02*
X006178Y034618D01*
X006178Y034617D02*
X007222Y034617D01*
X007222Y034616D02*
X006178Y034616D01*
X006178Y034615D02*
X007222Y034615D01*
X007222Y034614D02*
X006178Y034614D01*
X006178Y034613D02*
X007222Y034613D01*
X007222Y034612D02*
X006178Y034612D01*
X006178Y034611D02*
X007222Y034611D01*
X007222Y034610D02*
X006178Y034610D01*
X006178Y034609D02*
X007222Y034609D01*
X007222Y034608D02*
X006178Y034608D01*
X006178Y034607D02*
X007222Y034607D01*
X007222Y034606D02*
X006178Y034606D01*
X006178Y034605D02*
X007222Y034605D01*
X007222Y034604D02*
X006178Y034604D01*
X006178Y034603D02*
X007222Y034603D01*
X007222Y034602D02*
X006178Y034602D01*
X006178Y034601D02*
X007222Y034601D01*
X007222Y034600D02*
X006178Y034600D01*
X006178Y034599D02*
X007222Y034599D01*
X007222Y034598D02*
X006178Y034598D01*
X006178Y034597D02*
X007222Y034597D01*
X007222Y034596D02*
X006178Y034596D01*
X006178Y034595D02*
X007222Y034595D01*
X007222Y034594D02*
X006178Y034594D01*
X006178Y034593D02*
X007222Y034593D01*
X007222Y034592D02*
X006178Y034592D01*
X006178Y034591D02*
X007222Y034591D01*
X007222Y034590D02*
X006178Y034590D01*
X006178Y034589D02*
X007222Y034589D01*
X007222Y034588D02*
X006178Y034588D01*
X006178Y034587D02*
X007222Y034587D01*
X007222Y034586D02*
X006178Y034586D01*
X006178Y034585D02*
X007222Y034585D01*
X007222Y034584D02*
X006178Y034584D01*
X006178Y034583D02*
X007222Y034583D01*
X007222Y034582D02*
X006178Y034582D01*
X006178Y034581D02*
X007222Y034581D01*
X007222Y034580D02*
X006178Y034580D01*
X006178Y034579D02*
X007222Y034579D01*
X007222Y034578D02*
X006178Y034578D01*
X006178Y034577D02*
X007222Y034577D01*
X007222Y034576D02*
X006178Y034576D01*
X006178Y034575D02*
X007222Y034575D01*
X007222Y034574D02*
X006178Y034574D01*
X006178Y034573D02*
X007222Y034573D01*
X007222Y034572D02*
X006178Y034572D01*
X006178Y034571D02*
X007222Y034571D01*
X007222Y034570D02*
X006178Y034570D01*
X006178Y034569D02*
X007222Y034569D01*
X007222Y034568D02*
X006178Y034568D01*
X006178Y034567D02*
X007222Y034567D01*
X007222Y034566D02*
X006178Y034566D01*
X006178Y034565D02*
X007222Y034565D01*
X007222Y034564D02*
X006178Y034564D01*
X006178Y034563D02*
X007222Y034563D01*
X007222Y034562D02*
X006178Y034562D01*
X006178Y034561D02*
X007222Y034561D01*
X007222Y034560D02*
X006178Y034560D01*
X006178Y034559D02*
X007222Y034559D01*
X007222Y034558D02*
X006178Y034558D01*
X006178Y034557D02*
X007222Y034557D01*
X007222Y034556D02*
X006178Y034556D01*
X006178Y034555D02*
X007222Y034555D01*
X007222Y034554D02*
X006178Y034554D01*
X006178Y034553D02*
X007222Y034553D01*
X007222Y034552D02*
X006178Y034552D01*
X006178Y034551D02*
X007222Y034551D01*
X007222Y034550D02*
X006178Y034550D01*
X006178Y034549D02*
X007222Y034549D01*
X007222Y034548D02*
X006178Y034548D01*
X006178Y034547D02*
X007222Y034547D01*
X007222Y034546D02*
X006178Y034546D01*
X006178Y034545D02*
X007222Y034545D01*
X007222Y034544D02*
X006178Y034544D01*
X006178Y034543D02*
X007222Y034543D01*
X007222Y034542D02*
X006178Y034542D01*
X006178Y034541D02*
X007222Y034541D01*
X007222Y034540D02*
X006178Y034540D01*
X006178Y034539D02*
X007222Y034539D01*
X007222Y034538D02*
X006178Y034538D01*
X006178Y034537D02*
X007222Y034537D01*
X007222Y034536D02*
X006178Y034536D01*
X006178Y034535D02*
X007222Y034535D01*
X007222Y034534D02*
X006178Y034534D01*
X006178Y034533D02*
X007222Y034533D01*
X007222Y034532D02*
X006178Y034532D01*
X006178Y034531D02*
X007222Y034531D01*
X007222Y034530D02*
X006178Y034530D01*
X006178Y034529D02*
X007222Y034529D01*
X007222Y034528D02*
X006178Y034528D01*
X006178Y034527D02*
X007222Y034527D01*
X007222Y034526D02*
X006178Y034526D01*
X006178Y034525D02*
X007222Y034525D01*
X007222Y034524D02*
X006178Y034524D01*
X006178Y034523D02*
X007222Y034523D01*
X007222Y034522D02*
X006178Y034522D01*
X006178Y034521D02*
X007222Y034521D01*
X007222Y034520D02*
X006178Y034520D01*
X006178Y034519D02*
X007222Y034519D01*
X007222Y034518D02*
X006178Y034518D01*
X006178Y034517D02*
X007222Y034517D01*
X007222Y034516D02*
X006178Y034516D01*
X006178Y034515D02*
X007222Y034515D01*
X007222Y034514D02*
X006178Y034514D01*
X006178Y034513D02*
X007222Y034513D01*
X007222Y034512D02*
X006178Y034512D01*
X006178Y034511D02*
X007222Y034511D01*
X007222Y034510D02*
X006178Y034510D01*
X006178Y034509D02*
X007222Y034509D01*
X007222Y034508D02*
X006178Y034508D01*
X006178Y034507D02*
X007222Y034507D01*
X007222Y034506D02*
X006178Y034506D01*
X006178Y034505D02*
X007222Y034505D01*
X007222Y034504D02*
X006178Y034504D01*
X006178Y034503D02*
X007222Y034503D01*
X007222Y034502D02*
X006178Y034502D01*
X006178Y034501D02*
X007222Y034501D01*
X007222Y034500D02*
X006178Y034500D01*
X006178Y034499D02*
X007222Y034499D01*
X007222Y034498D02*
X006178Y034498D01*
X006178Y034497D02*
X007222Y034497D01*
X007222Y034496D02*
X006178Y034496D01*
X006178Y034495D02*
X007222Y034495D01*
X007222Y034494D02*
X006178Y034494D01*
X006178Y034493D02*
X007222Y034493D01*
X007222Y034492D02*
X006178Y034492D01*
X006178Y034491D02*
X007222Y034491D01*
X007222Y034490D02*
X006178Y034490D01*
X006178Y034489D02*
X007222Y034489D01*
X007222Y034488D02*
X006178Y034488D01*
X006178Y034487D02*
X007222Y034487D01*
X007222Y034486D02*
X006178Y034486D01*
X006178Y034485D02*
X007222Y034485D01*
X007222Y034484D02*
X006178Y034484D01*
X006178Y034483D02*
X007222Y034483D01*
X007222Y034482D02*
X006178Y034482D01*
X006178Y034481D02*
X007222Y034481D01*
X007222Y034480D02*
X006178Y034480D01*
X006178Y034479D02*
X007222Y034479D01*
X007222Y034478D02*
X006178Y034478D01*
X006178Y034477D02*
X007222Y034477D01*
X007222Y034476D02*
X006178Y034476D01*
X006178Y034475D02*
X007222Y034475D01*
X007222Y034474D02*
X006178Y034474D01*
X006178Y034473D02*
X007222Y034473D01*
X007222Y034472D02*
X006178Y034472D01*
X006178Y034471D02*
X007222Y034471D01*
X007222Y034470D02*
X006178Y034470D01*
X006178Y034469D02*
X007222Y034469D01*
X007222Y034468D02*
X006178Y034468D01*
X006178Y034467D02*
X007222Y034467D01*
X007222Y034466D02*
X006178Y034466D01*
X006178Y034465D02*
X007222Y034465D01*
X007222Y034464D02*
X006178Y034464D01*
X006178Y034463D02*
X007222Y034463D01*
X007222Y034462D02*
X006178Y034462D01*
X006178Y034461D02*
X007222Y034461D01*
X007222Y034460D02*
X006178Y034460D01*
X006178Y034459D02*
X007222Y034459D01*
X007222Y034458D02*
X006178Y034458D01*
X006178Y034457D02*
X007222Y034457D01*
X007222Y034456D02*
X006178Y034456D01*
X006178Y034455D02*
X007222Y034455D01*
X007222Y034454D02*
X006178Y034454D01*
X006178Y034453D02*
X007222Y034453D01*
X007222Y034452D02*
X006178Y034452D01*
X006178Y034451D02*
X007222Y034451D01*
X007222Y034450D02*
X006178Y034450D01*
X006178Y034449D02*
X007222Y034449D01*
X007222Y034448D02*
X006178Y034448D01*
X006178Y034447D02*
X007222Y034447D01*
X007222Y034446D02*
X006178Y034446D01*
X006178Y034445D02*
X007222Y034445D01*
X007222Y034444D02*
X006178Y034444D01*
X006178Y034443D02*
X007222Y034443D01*
X007222Y034442D02*
X006178Y034442D01*
X006178Y034441D02*
X007222Y034441D01*
X007222Y034440D02*
X006178Y034440D01*
X006178Y034439D02*
X007222Y034439D01*
X007222Y034438D02*
X006178Y034438D01*
X006178Y034437D02*
X007222Y034437D01*
X007222Y034436D02*
X006178Y034436D01*
X006178Y034435D02*
X007222Y034435D01*
X007222Y034434D02*
X006178Y034434D01*
X006178Y034433D02*
X007222Y034433D01*
X007222Y034432D02*
X006178Y034432D01*
X006178Y034431D02*
X007222Y034431D01*
X007222Y034430D02*
X006178Y034430D01*
X006178Y034429D02*
X007222Y034429D01*
X007222Y034428D02*
X006178Y034428D01*
X006178Y034427D02*
X007222Y034427D01*
X007222Y034426D02*
X006178Y034426D01*
X006178Y034425D02*
X007222Y034425D01*
X007222Y034424D02*
X006178Y034424D01*
X006178Y034423D02*
X007222Y034423D01*
X007222Y034422D02*
X006178Y034422D01*
X006178Y034421D02*
X007222Y034421D01*
X007222Y034420D02*
X006178Y034420D01*
X006178Y034419D02*
X007222Y034419D01*
X007222Y034418D02*
X006178Y034418D01*
X006178Y034417D02*
X007222Y034417D01*
X007222Y034416D02*
X006178Y034416D01*
X006178Y034415D02*
X007222Y034415D01*
X007222Y034414D02*
X006178Y034414D01*
X006178Y034413D02*
X007222Y034413D01*
X007222Y034412D02*
X006178Y034412D01*
X006178Y034411D02*
X007222Y034411D01*
X007222Y034410D02*
X006178Y034410D01*
X006178Y034409D02*
X007222Y034409D01*
X007222Y034408D02*
X006178Y034408D01*
X006178Y034407D02*
X007222Y034407D01*
X007222Y034406D02*
X006178Y034406D01*
X006178Y034405D02*
X007222Y034405D01*
X007222Y034404D02*
X006178Y034404D01*
X006178Y034403D02*
X007222Y034403D01*
X007222Y034402D02*
X006178Y034402D01*
X006178Y034401D02*
X007222Y034401D01*
X007222Y034400D02*
X006178Y034400D01*
X006178Y034399D02*
X007222Y034399D01*
X007222Y034398D02*
X006178Y034398D01*
X006178Y034397D02*
X007222Y034397D01*
X007222Y034396D02*
X006178Y034396D01*
X006178Y034395D02*
X007222Y034395D01*
X007222Y034394D02*
X006178Y034394D01*
X006178Y034393D02*
X007222Y034393D01*
X007222Y034392D02*
X006178Y034392D01*
X006178Y034391D02*
X007222Y034391D01*
X007222Y034390D02*
X006178Y034390D01*
X006178Y034389D02*
X007222Y034389D01*
X007222Y034388D02*
X006178Y034388D01*
X006178Y034387D02*
X007222Y034387D01*
X007222Y034386D02*
X006178Y034386D01*
X006178Y034385D02*
X007222Y034385D01*
X007222Y034384D02*
X006178Y034384D01*
X006178Y034383D02*
X007222Y034383D01*
X007222Y034382D02*
X006178Y034382D01*
X006178Y034381D02*
X007222Y034381D01*
X007222Y034380D02*
X006178Y034380D01*
X006178Y034379D02*
X007222Y034379D01*
X007222Y034378D02*
X006178Y034378D01*
X006178Y034377D02*
X007222Y034377D01*
X007222Y034376D02*
X006178Y034376D01*
X006178Y034375D02*
X007222Y034375D01*
X007222Y034374D02*
X006178Y034374D01*
X006178Y034373D02*
X007222Y034373D01*
X007222Y034372D02*
X006178Y034372D01*
X006178Y034371D02*
X007222Y034371D01*
X007222Y034370D02*
X006178Y034370D01*
X006178Y034369D02*
X007222Y034369D01*
X007222Y034368D02*
X006178Y034368D01*
X006178Y034367D02*
X007222Y034367D01*
X007222Y034366D02*
X006178Y034366D01*
X006178Y034365D02*
X007222Y034365D01*
X007222Y034364D02*
X006178Y034364D01*
X006178Y034363D02*
X007222Y034363D01*
X007222Y034362D02*
X006178Y034362D01*
X006178Y034361D02*
X007222Y034361D01*
X007222Y034360D02*
X006178Y034360D01*
X006178Y034359D02*
X007222Y034359D01*
X007222Y034358D02*
X006178Y034358D01*
X006178Y034357D02*
X007222Y034357D01*
X007222Y034356D02*
X006178Y034356D01*
X006178Y034355D02*
X007222Y034355D01*
X007222Y034354D02*
X006178Y034354D01*
X006178Y034353D02*
X007222Y034353D01*
X007222Y034352D02*
X006178Y034352D01*
X006178Y034351D02*
X007222Y034351D01*
X007222Y034350D02*
X006178Y034350D01*
X006178Y034349D02*
X007222Y034349D01*
X007222Y034348D02*
X006178Y034348D01*
X006178Y034347D02*
X007222Y034347D01*
X007222Y034346D02*
X006178Y034346D01*
X006178Y034345D02*
X007222Y034345D01*
X007222Y034344D02*
X006178Y034344D01*
X006178Y034343D02*
X007222Y034343D01*
X007222Y034342D02*
X006178Y034342D01*
X006178Y034341D02*
X007222Y034341D01*
X007222Y034340D02*
X006178Y034340D01*
X006178Y034339D02*
X007222Y034339D01*
X007222Y034338D02*
X006178Y034338D01*
X006178Y034337D02*
X007222Y034337D01*
X007222Y034336D02*
X006178Y034336D01*
X006178Y034335D02*
X007222Y034335D01*
X007222Y034334D02*
X006178Y034334D01*
X006178Y034333D02*
X007222Y034333D01*
X007222Y034332D02*
X006178Y034332D01*
X006178Y034331D02*
X007222Y034331D01*
X007222Y034330D02*
X006178Y034330D01*
X006178Y034329D02*
X007222Y034329D01*
X007222Y034328D02*
X006178Y034328D01*
X006178Y034327D02*
X007222Y034327D01*
X007222Y034326D02*
X006178Y034326D01*
X006178Y034325D02*
X007222Y034325D01*
X007222Y034324D02*
X006178Y034324D01*
X006178Y034323D02*
X007222Y034323D01*
X007222Y034322D02*
X006178Y034322D01*
X006178Y034321D02*
X007222Y034321D01*
X007222Y034320D02*
X006178Y034320D01*
X006178Y034319D02*
X007222Y034319D01*
X007222Y034318D02*
X006178Y034318D01*
X006178Y034317D02*
X007222Y034317D01*
X007222Y034316D02*
X006178Y034316D01*
X006178Y034315D02*
X007222Y034315D01*
X007222Y034314D02*
X006178Y034314D01*
X006178Y034313D02*
X007222Y034313D01*
X007222Y034312D02*
X006178Y034312D01*
X006178Y034311D02*
X007222Y034311D01*
X007222Y034310D02*
X006178Y034310D01*
X006178Y034309D02*
X007222Y034309D01*
X007222Y034308D02*
X006178Y034308D01*
X006178Y034307D02*
X007222Y034307D01*
X007222Y034306D02*
X006178Y034306D01*
X006178Y034305D02*
X007222Y034305D01*
X007222Y034304D02*
X006178Y034304D01*
X006178Y034303D02*
X007222Y034303D01*
X007222Y034302D02*
X006178Y034302D01*
X006178Y034301D02*
X007222Y034301D01*
X007222Y034300D02*
X006178Y034300D01*
X006178Y034299D02*
X007222Y034299D01*
X007222Y034298D02*
X006178Y034298D01*
X006178Y034297D02*
X007222Y034297D01*
X007222Y034296D02*
X006178Y034296D01*
X006178Y034295D02*
X007222Y034295D01*
X007222Y034294D02*
X006178Y034294D01*
X006178Y034293D02*
X007222Y034293D01*
X007222Y034292D02*
X006178Y034292D01*
X006178Y034291D02*
X007222Y034291D01*
X007222Y034290D02*
X006178Y034290D01*
X006178Y034289D02*
X007222Y034289D01*
X007222Y034288D02*
X006178Y034288D01*
X006178Y034287D02*
X007222Y034287D01*
X007222Y034286D02*
X006178Y034286D01*
X006178Y034285D02*
X007222Y034285D01*
X007222Y034284D02*
X006178Y034284D01*
X006178Y034283D02*
X007222Y034283D01*
X007222Y034282D02*
X006178Y034282D01*
X006178Y034281D02*
X007222Y034281D01*
X007222Y034280D02*
X006178Y034280D01*
X006178Y034279D02*
X007222Y034279D01*
X007222Y034278D02*
X006178Y034278D01*
X006178Y034277D02*
X007222Y034277D01*
X007222Y034276D02*
X006178Y034276D01*
X006178Y034275D02*
X007222Y034275D01*
X007222Y034274D02*
X006178Y034274D01*
X006178Y034273D02*
X007222Y034273D01*
X007222Y034272D02*
X006178Y034272D01*
X006178Y034271D02*
X007222Y034271D01*
X007222Y034270D02*
X006178Y034270D01*
X006178Y034269D02*
X007222Y034269D01*
X007222Y034268D02*
X006178Y034268D01*
X006178Y034267D02*
X007222Y034267D01*
X007222Y034266D02*
X006178Y034266D01*
X006178Y034265D02*
X007222Y034265D01*
X007222Y034264D02*
X006178Y034264D01*
X006178Y034263D02*
X007222Y034263D01*
X007222Y034262D02*
X006178Y034262D01*
X006178Y034261D02*
X007222Y034261D01*
X007222Y034260D02*
X006178Y034260D01*
X006178Y034259D02*
X007222Y034259D01*
X007222Y034258D02*
X006178Y034258D01*
X006178Y034257D02*
X007222Y034257D01*
X007222Y034256D02*
X006178Y034256D01*
X006178Y034255D02*
X007222Y034255D01*
X007222Y034254D02*
X006178Y034254D01*
X006178Y034253D02*
X007222Y034253D01*
X007222Y034252D02*
X006178Y034252D01*
X006178Y034251D02*
X007222Y034251D01*
X007222Y034250D02*
X006178Y034250D01*
X006178Y034249D02*
X007222Y034249D01*
X007222Y034248D02*
X006178Y034248D01*
X006178Y034247D02*
X007222Y034247D01*
X007222Y034246D02*
X006178Y034246D01*
X006178Y034245D02*
X007222Y034245D01*
X007222Y034244D02*
X006178Y034244D01*
X006178Y034243D02*
X007222Y034243D01*
X007222Y034242D02*
X006178Y034242D01*
X006178Y034241D02*
X007222Y034241D01*
X007222Y034240D02*
X006178Y034240D01*
X006178Y034239D02*
X007222Y034239D01*
X007222Y034238D02*
X006178Y034238D01*
X006178Y034237D02*
X007222Y034237D01*
X007222Y034236D02*
X006178Y034236D01*
X006178Y034235D02*
X007222Y034235D01*
X007222Y034234D02*
X006178Y034234D01*
X006178Y034233D02*
X007222Y034233D01*
X007222Y034232D02*
X006178Y034232D01*
X006178Y034231D02*
X007222Y034231D01*
X007222Y034230D02*
X006178Y034230D01*
X006178Y034229D02*
X007222Y034229D01*
X007222Y034228D02*
X006178Y034228D01*
X006178Y034227D02*
X007222Y034227D01*
X007222Y034226D02*
X006178Y034226D01*
X006178Y034225D02*
X007222Y034225D01*
X007222Y034224D02*
X006178Y034224D01*
X006178Y034223D02*
X007222Y034223D01*
X007222Y034222D02*
X006178Y034222D01*
X006178Y034221D02*
X007222Y034221D01*
X007222Y034220D02*
X006178Y034220D01*
X006178Y034219D02*
X007222Y034219D01*
X007222Y034218D02*
X006178Y034218D01*
X006178Y034217D02*
X007222Y034217D01*
X007222Y034216D02*
X006178Y034216D01*
X006178Y034215D02*
X007222Y034215D01*
X007222Y034214D02*
X006178Y034214D01*
X006178Y034213D02*
X007222Y034213D01*
X007222Y034212D02*
X006178Y034212D01*
X006178Y034211D02*
X007222Y034211D01*
X007222Y034210D02*
X006178Y034210D01*
X006178Y034209D02*
X007222Y034209D01*
X007222Y034208D02*
X006178Y034208D01*
X006178Y034207D02*
X007222Y034207D01*
X007222Y034206D02*
X006178Y034206D01*
X006178Y034205D02*
X007222Y034205D01*
X007222Y034204D02*
X006178Y034204D01*
X006178Y034203D02*
X007222Y034203D01*
X007222Y034202D02*
X006178Y034202D01*
X006178Y034201D02*
X007222Y034201D01*
X007222Y034200D02*
X006178Y034200D01*
X006178Y034199D02*
X007222Y034199D01*
X007222Y034198D02*
X006178Y034198D01*
X006178Y034197D02*
X007222Y034197D01*
X007222Y034196D02*
X006178Y034196D01*
D16*
X003600Y030999D03*
X023600Y030999D03*
D17*
X023600Y029999D03*
X023600Y028999D03*
X023600Y027999D03*
X023600Y026999D03*
X023600Y025999D03*
X023600Y024999D03*
X023600Y023999D03*
X023600Y022999D03*
X023600Y021999D03*
X023600Y020999D03*
X023600Y019999D03*
X023600Y018999D03*
X023600Y017999D03*
X023600Y016999D03*
X023600Y015999D03*
X023600Y014999D03*
X023600Y013999D03*
X023600Y012999D03*
X023600Y011999D03*
X023600Y010999D03*
X023600Y009999D03*
X023600Y008999D03*
X023600Y007999D03*
X023600Y006999D03*
X024600Y006999D03*
X024600Y007999D03*
X024600Y008999D03*
X024600Y009999D03*
X024600Y010999D03*
X024600Y011999D03*
X024600Y012999D03*
X024600Y013999D03*
X024600Y014999D03*
X024600Y015999D03*
X024600Y016999D03*
X024600Y017999D03*
X024600Y018999D03*
X024600Y019999D03*
X024600Y020999D03*
X024600Y021999D03*
X024600Y022999D03*
X024600Y023999D03*
X024600Y024999D03*
X024600Y025999D03*
X024600Y026999D03*
X024600Y027999D03*
X024600Y028999D03*
X024600Y029999D03*
X024600Y030999D03*
X004600Y030999D03*
X004600Y029999D03*
X004600Y028999D03*
X004600Y027999D03*
X004600Y026999D03*
X004600Y025999D03*
X004600Y024999D03*
X004600Y023999D03*
X004600Y022999D03*
X004600Y021999D03*
X004600Y020999D03*
X004600Y019999D03*
X004600Y018999D03*
X004600Y017999D03*
X004600Y016999D03*
X004600Y015999D03*
X004600Y014999D03*
X004600Y013999D03*
X004600Y012999D03*
X004600Y011999D03*
X004600Y010999D03*
X004600Y009999D03*
X004600Y008999D03*
X004600Y007999D03*
X004600Y006999D03*
X003600Y006999D03*
X003600Y007999D03*
X003600Y008999D03*
X003600Y009999D03*
X003600Y010999D03*
X003600Y011999D03*
X003600Y012999D03*
X003600Y013999D03*
X003600Y014999D03*
X003600Y015999D03*
X003600Y016999D03*
X003600Y017999D03*
X003600Y018999D03*
X003600Y019999D03*
X003600Y020999D03*
X003600Y021999D03*
X003600Y022999D03*
X003600Y023999D03*
X003600Y024999D03*
X003600Y025999D03*
X003600Y026999D03*
X003600Y027999D03*
X003600Y028999D03*
X003600Y029999D03*
D18*
X006631Y004668D03*
X007616Y004668D03*
X008600Y002699D03*
X009584Y004668D03*
X010569Y004668D03*
X012131Y004668D03*
X013116Y004668D03*
X014100Y002699D03*
X015084Y004668D03*
X016069Y004668D03*
D19*
X027550Y032674D03*
X028050Y032674D03*
X028550Y032674D03*
X029050Y032674D03*
X029050Y034524D03*
X028550Y034524D03*
X028050Y034524D03*
X027550Y034524D03*
X002650Y034724D03*
X002150Y034724D03*
X001650Y034724D03*
X001150Y034724D03*
X001150Y032874D03*
X001650Y032874D03*
X002150Y032874D03*
X002650Y032874D03*
D20*
X003400Y033264D03*
X003400Y033934D03*
X002335Y035599D03*
X001665Y035599D03*
X023765Y032899D03*
X024435Y032899D03*
X027565Y035499D03*
X028235Y035499D03*
X029700Y033834D03*
X029700Y033164D03*
D21*
X019900Y004499D02*
X019300Y004499D01*
X019300Y003499D02*
X019900Y003499D01*
X019900Y002499D02*
X019300Y002499D01*
D22*
X018350Y002525D03*
X018350Y003273D03*
X018350Y004125D03*
X018350Y004873D03*
X015700Y006325D03*
X015700Y007073D03*
X006600Y007073D03*
X006600Y006325D03*
D23*
X007900Y006364D03*
X007900Y007034D03*
X008700Y007034D03*
X008700Y006364D03*
X013300Y006364D03*
X013300Y007034D03*
X014400Y007034D03*
X014400Y006364D03*
X004200Y032764D03*
X004200Y033434D03*
D24*
X001200Y012899D03*
D25*
X001200Y011899D03*
X001200Y010899D03*
X001200Y009899D03*
X001200Y008899D03*
X001200Y007899D03*
D26*
X004700Y034677D02*
X004700Y035322D01*
X005700Y035322D02*
X005700Y034677D01*
X008500Y034677D02*
X008500Y035322D01*
X009500Y035322D02*
X009500Y034677D01*
X014500Y034677D02*
X014500Y035322D01*
X015500Y035322D02*
X015500Y034677D01*
X020400Y034677D02*
X020400Y035322D01*
X021400Y035322D02*
X021400Y034677D01*
X024300Y034677D02*
X024300Y035322D01*
X025300Y035322D02*
X025300Y034677D01*
D27*
X026600Y006999D03*
D28*
X026600Y007999D03*
X026600Y008999D03*
X026600Y009999D03*
X026600Y010999D03*
X026600Y011999D03*
X026600Y012999D03*
X026600Y013999D03*
X026600Y014999D03*
X026600Y015999D03*
X026600Y016999D03*
X026600Y017999D03*
X026600Y018999D03*
X026600Y019999D03*
X026600Y020999D03*
X026600Y021999D03*
X026600Y022999D03*
X026600Y023999D03*
X026600Y024999D03*
X026600Y025999D03*
X026600Y026999D03*
X026600Y027999D03*
X026600Y028999D03*
X026600Y029999D03*
X026600Y030999D03*
D29*
X026300Y033499D03*
X025500Y033799D03*
X022400Y033499D03*
X021600Y033799D03*
X018500Y032299D03*
X018500Y031299D03*
X010500Y033499D03*
X009700Y033799D03*
X006700Y033499D03*
X005900Y033899D03*
X002800Y033999D03*
X002100Y033599D03*
X001750Y029999D03*
X007300Y006299D03*
X007100Y005549D03*
X005900Y005549D03*
X015000Y006299D03*
X029100Y033399D03*
D30*
X028800Y033399D01*
X028550Y033149D01*
X028550Y032674D01*
X029100Y033399D02*
X029200Y033399D01*
X029435Y033164D01*
X029700Y033164D01*
X029700Y033899D02*
X028550Y033899D01*
X028550Y034524D01*
X028050Y034524D02*
X028050Y034049D01*
X026900Y032899D01*
X024435Y032899D01*
X025500Y033799D02*
X025700Y033599D01*
X025900Y033599D01*
X026400Y033599D01*
X026684Y033861D02*
X027062Y033861D01*
X027100Y033899D01*
X027100Y035299D01*
X027300Y035499D01*
X027565Y035499D01*
X028235Y035499D02*
X028500Y035499D01*
X029050Y034949D01*
X029050Y034524D01*
X026684Y034699D02*
X026400Y034699D01*
X026200Y034699D01*
X025900Y034699D01*
X026684Y034699D02*
X026684Y034991D01*
X023600Y034918D02*
X023122Y034918D01*
X023122Y035070D02*
X023004Y035187D01*
X022711Y035187D01*
X022687Y035164D01*
X022113Y035164D01*
X022089Y035187D01*
X021902Y035187D01*
X021902Y035361D01*
X021900Y035377D01*
X021900Y035799D01*
X023600Y035799D01*
X023600Y034499D01*
X023122Y034499D01*
X023122Y035070D01*
X023115Y035077D02*
X023600Y035077D01*
X023600Y035235D02*
X021902Y035235D01*
X021900Y035394D02*
X023600Y035394D01*
X023600Y035552D02*
X021900Y035552D01*
X021900Y035711D02*
X023600Y035711D01*
X023600Y034760D02*
X023122Y034760D01*
X023122Y034601D02*
X023600Y034601D01*
X022528Y033861D02*
X022528Y033499D01*
X022400Y033499D01*
X022272Y033499D01*
X022272Y033861D01*
X022016Y033861D02*
X022016Y033599D01*
X022200Y033599D01*
X022016Y033599D02*
X021800Y033599D01*
X021600Y033799D01*
X022267Y034900D02*
X022263Y035311D01*
X024600Y029999D02*
X026600Y029999D01*
X026600Y028999D02*
X024600Y028999D01*
X024600Y027999D02*
X026600Y027999D01*
X026600Y026999D02*
X024600Y026999D01*
X024600Y025999D02*
X026600Y025999D01*
X026600Y024999D02*
X024600Y024999D01*
X024600Y023999D02*
X026600Y023999D01*
X026600Y022999D02*
X024600Y022999D01*
X024600Y021999D02*
X026600Y021999D01*
X026600Y020999D02*
X024600Y020999D01*
X024600Y019999D02*
X026600Y019999D01*
X026600Y018999D02*
X024600Y018999D01*
X024600Y017999D02*
X026600Y017999D01*
X026600Y016999D02*
X024600Y016999D01*
X024600Y015999D02*
X026600Y015999D01*
X026600Y014999D02*
X024600Y014999D01*
X024600Y013999D02*
X026600Y013999D01*
X026600Y012999D02*
X024600Y012999D01*
X024600Y011999D02*
X026600Y011999D01*
X026600Y010999D02*
X024600Y010999D01*
X024600Y009999D02*
X026600Y009999D01*
X026600Y008999D02*
X024600Y008999D01*
X024600Y007999D02*
X026600Y007999D01*
X016100Y005499D02*
X016100Y004668D01*
X016069Y004668D01*
X016100Y005499D02*
X015750Y005499D01*
X010569Y005499D01*
X010569Y004668D01*
X010050Y005549D02*
X010650Y006149D01*
X010650Y006364D01*
X010050Y005549D02*
X007100Y005549D01*
X006631Y004668D02*
X006631Y003699D01*
X012100Y003699D01*
X012100Y004668D01*
X012131Y004668D01*
X005900Y005549D02*
X005900Y014499D01*
X004900Y015499D01*
X002200Y015499D01*
X001750Y015949D01*
X001750Y029999D01*
X003600Y029999D02*
X004600Y029999D01*
X004200Y033434D02*
X004200Y033899D01*
X003375Y034724D01*
X002650Y034724D01*
X002150Y034724D02*
X002150Y034249D01*
X002400Y033999D01*
X002800Y033999D01*
X003335Y033999D01*
X003400Y033934D01*
X005900Y033899D02*
X005934Y033865D01*
X006376Y033865D01*
X006316Y033861D02*
X006572Y033861D01*
X006700Y033861D01*
X006700Y033499D01*
X006700Y033861D02*
X006828Y033861D01*
X006828Y034699D02*
X006572Y034699D01*
X006572Y034991D01*
X006316Y034991D02*
X006316Y034783D01*
X006400Y034699D01*
X006572Y034699D01*
X006828Y034699D02*
X006828Y034991D01*
X007084Y034991D02*
X007084Y034699D01*
X007000Y034699D01*
X006828Y034699D01*
X006316Y034991D02*
X006308Y034999D01*
D31*
X007084Y033861D02*
X007084Y033283D01*
X006900Y033099D01*
X005500Y033099D01*
X003000Y035599D01*
X002335Y035599D01*
X001665Y035599D02*
X001665Y034724D01*
X001650Y034724D01*
X002100Y033599D02*
X002200Y033499D01*
X002900Y033499D01*
X003135Y033264D01*
X003400Y033264D01*
X004200Y032764D02*
X010265Y032764D01*
X010884Y033383D01*
X010884Y033861D01*
X010628Y033861D02*
X010628Y033627D01*
X010500Y033499D01*
X010200Y033499D01*
X010100Y033599D01*
X009900Y033599D01*
X009700Y033799D01*
X010116Y033861D02*
X010116Y033615D01*
X010100Y033599D01*
X010372Y033627D02*
X010372Y033861D01*
X010372Y033627D02*
X010500Y033499D01*
X010500Y034699D02*
X010300Y034699D01*
X010372Y034771D01*
X010372Y034991D01*
X010116Y034991D02*
X010116Y034715D01*
X010100Y034699D01*
X010116Y034783D02*
X010200Y034699D01*
X010300Y034699D01*
X010500Y034699D02*
X010800Y034699D01*
X011400Y034699D01*
X011500Y034799D01*
X011500Y035299D01*
X010884Y034991D02*
X010884Y034783D01*
X010800Y034699D01*
X010628Y034827D02*
X010628Y034991D01*
X010628Y034827D02*
X010500Y034699D01*
X010116Y034783D02*
X010116Y034991D01*
X011550Y031949D02*
X004600Y024999D01*
X004800Y024499D02*
X004100Y024499D01*
X003600Y024999D01*
X003150Y025499D02*
X002350Y026299D01*
X002350Y031799D01*
X001650Y032499D01*
X001650Y032874D01*
X002150Y032874D02*
X002150Y033549D01*
X002100Y033599D01*
X002650Y032874D02*
X002650Y026949D01*
X003600Y025999D01*
X003150Y025499D02*
X004100Y025499D01*
X004600Y025999D01*
X004800Y024499D02*
X012000Y031699D01*
X028700Y031699D01*
X029050Y032049D01*
X029050Y032674D01*
X028050Y032674D02*
X028050Y032049D01*
X027950Y031949D01*
X011550Y031949D01*
X004600Y020999D02*
X008250Y017349D01*
X008250Y008549D01*
X009765Y007034D01*
X013300Y007034D01*
X014400Y007034D01*
X014439Y007073D01*
X015700Y007073D01*
X015700Y006325D02*
X015700Y005549D01*
X015750Y005499D01*
X015000Y006299D02*
X014500Y006299D01*
X014450Y006349D01*
X014415Y006349D01*
X014400Y006364D01*
X013300Y006364D02*
X010650Y006364D01*
X008700Y006364D01*
X008700Y007034D02*
X007900Y007034D01*
X006639Y007034D01*
X006600Y007073D01*
X006600Y018249D01*
X005350Y019499D01*
X004350Y019499D01*
X004100Y019749D01*
X004100Y020449D01*
X003600Y020949D01*
X003600Y020999D01*
X004600Y011999D02*
X004100Y011499D01*
X001600Y011499D01*
X001200Y011899D01*
X001300Y010999D02*
X001200Y010899D01*
X001300Y010999D02*
X003600Y010999D01*
X006600Y006325D02*
X006600Y004699D01*
X006631Y004668D01*
X007300Y006299D02*
X007365Y006364D01*
X007900Y006364D01*
X023765Y032899D02*
X023800Y032934D01*
X023800Y032999D01*
X023700Y033099D01*
X023700Y033399D01*
X023238Y033861D01*
X022784Y033861D01*
X022800Y034599D02*
X022700Y034599D01*
X022800Y034599D02*
X022800Y034975D01*
X022784Y034991D01*
X022528Y034991D02*
X022500Y034963D01*
X022500Y034599D01*
X022300Y034499D02*
X022300Y034963D01*
X022272Y034991D01*
X022016Y034991D02*
X022000Y034975D01*
X022000Y034599D01*
X022100Y034599D02*
X022200Y034599D01*
X022300Y034499D01*
X025800Y035299D02*
X025800Y035899D01*
X026800Y035899D01*
X026800Y035299D01*
X025800Y035299D01*
X025800Y035364D02*
X026800Y035364D01*
X026800Y035483D02*
X025800Y035483D01*
X025800Y035601D02*
X026800Y035601D01*
X026800Y035720D02*
X025800Y035720D01*
X025800Y035838D02*
X026800Y035838D01*
X026428Y033861D02*
X026428Y033627D01*
X026400Y033599D01*
X026300Y033499D01*
X026172Y033627D01*
X026172Y033861D01*
X025916Y033861D02*
X025916Y033615D01*
X025900Y033599D01*
D32*
X024600Y029999D02*
X023600Y029999D01*
X022000Y028399D01*
X022000Y002549D01*
X021950Y002499D01*
X019600Y002499D01*
X019574Y002525D01*
X018350Y002525D01*
X018374Y003249D02*
X018850Y003249D01*
X019100Y003499D01*
X019600Y003499D01*
X019150Y003499D01*
X019100Y003549D01*
X019100Y003699D01*
X018700Y004099D01*
X018376Y004099D01*
X018350Y004125D01*
X018350Y004873D02*
X018376Y004899D01*
X018800Y004899D01*
X019200Y004499D01*
X019600Y004499D01*
X019600Y030199D01*
X018500Y031299D01*
X018500Y032299D02*
X018500Y036399D01*
X029700Y034199D02*
X029700Y033899D01*
X029700Y033834D01*
X018350Y003273D02*
X018374Y003249D01*
D33*
X020400Y034999D02*
X020400Y036399D01*
X018500Y036399D01*
X014500Y036399D01*
X008500Y036399D01*
X008500Y034999D01*
X008500Y036399D02*
X004700Y036399D01*
X004700Y034999D01*
X014500Y034999D02*
X014500Y036399D01*
X020400Y036399D02*
X024300Y036399D01*
X024300Y034999D01*
D34*
X024400Y036299D02*
X024300Y036399D01*
X024400Y036299D02*
X028400Y036299D01*
X029700Y034999D01*
X029700Y034199D01*
D35*
X025900Y034699D02*
X025600Y034699D01*
X025300Y034999D01*
X023400Y034699D02*
X022900Y034699D01*
X022700Y034599D02*
X022500Y034599D01*
X022100Y034599D01*
X022000Y034599D01*
X021800Y034599D01*
X021400Y034999D01*
X010100Y034699D02*
X009800Y034699D01*
X009500Y034999D01*
X006400Y034699D02*
X006000Y034699D01*
X005700Y034999D01*
D36*
X007000Y034699D02*
X007300Y034699D01*
X007400Y034599D01*
D37*
X007600Y034299D01*
X007600Y034999D01*
X007600Y034299D02*
X007700Y034199D01*
X010900Y034599D02*
X011700Y034599D01*
X011500Y034199D02*
X012100Y034199D01*
X012100Y035299D01*
X011500Y035299D01*
X011500Y034199D01*
D38*
X025916Y034918D02*
X025917Y034918D01*
X025915Y035458D01*
X026175Y035418D02*
X026176Y034877D01*
X026429Y034861D02*
X026428Y035401D01*
X026683Y035420D02*
X026684Y034880D01*
X025916Y034918D02*
X025916Y034991D01*
M02*
